{"glyphs":{"0":{"ha":878,"x_min":65,"x_max":814,"o":"m 65 499 q 440 0 65 0 q 726 133 639 0 q 814 499 814 267 q 726 863 814 729 q 440 996 639 996 q 65 499 65 996 m 621 499 q 584 266 621 347 q 440 185 547 185 q 295 266 332 185 q 258 499 258 347 q 295 730 258 649 q 440 811 332 811 q 584 730 547 811 q 621 499 621 649 z "},"1":{"ha":458,"x_min":17,"x_max":369,"o":"m 17 797 l 17 981 l 369 981 l 369 0 l 164 0 l 164 797 l 17 797 z "},"2":{"ha":786,"x_min":51,"x_max":742,"o":"m 51 154 q 522 696 522 481 q 491 799 522 761 q 393 836 460 836 q 247 649 256 836 l 57 649 q 163 912 65 822 q 408 1001 260 1001 q 641 923 560 1001 q 722 714 722 844 q 662 508 722 611 q 508 317 601 404 q 313 168 415 231 l 742 168 l 742 8 l 51 8 l 51 154 z "},"3":{"ha":832,"x_min":60,"x_max":753,"o":"m 418 1018 q 590 983 518 1018 q 698 888 661 949 q 735 751 735 826 q 683 597 735 657 q 547 522 632 536 l 547 515 q 753 274 753 454 q 668 69 753 147 q 429 -10 583 -10 q 168 72 265 -10 q 60 317 71 153 l 251 317 q 301 198 258 242 q 421 154 343 154 q 525 191 488 154 q 563 288 563 228 q 508 396 563 358 q 349 433 454 433 l 308 433 l 308 593 l 349 593 q 543 728 543 590 q 508 822 543 788 q 414 856 474 856 q 311 816 351 856 q 265 706 271 776 l 74 706 q 171 937 82 856 q 418 1018 260 1018 z "},"4":{"ha":906,"x_min":54,"x_max":861,"o":"m 54 197 l 54 360 l 524 992 l 733 992 l 733 367 l 861 367 l 861 197 l 733 197 l 733 0 l 536 0 l 536 197 l 54 197 m 551 763 l 254 367 l 551 367 l 551 763 z "},"5":{"ha":879,"x_min":117,"x_max":815,"o":"m 767 828 l 301 828 l 301 581 q 390 641 333 618 q 514 664 446 664 q 683 620 615 664 q 783 503 750 576 q 815 342 815 431 q 727 90 815 185 q 475 -4 639 -4 q 289 34 368 -4 q 165 141 210 72 q 117 301 121 210 l 307 301 q 358 202 318 239 q 465 165 399 165 q 585 215 546 165 q 625 346 625 264 q 583 467 625 424 q 465 510 542 510 q 371 485 410 510 q 314 421 332 461 l 124 421 l 124 1000 l 767 1000 l 767 828 z "},"6":{"ha":868,"x_min":82,"x_max":799,"o":"m 585 714 q 438 858 563 858 q 296 773 340 858 q 257 506 251 688 q 344 612 279 572 q 494 651 408 651 q 717 566 636 651 q 799 324 799 481 q 760 151 799 226 q 644 33 721 76 q 457 -10 567 -10 q 163 123 243 -10 q 82 489 82 256 q 169 886 82 757 q 450 1015 256 1015 q 678 931 599 1015 q 768 714 757 846 l 585 714 m 274 338 q 319 209 274 260 q 451 158 364 158 q 571 203 526 158 q 615 326 615 247 q 570 454 615 410 q 449 499 525 499 q 325 457 376 499 q 274 338 274 415 z "},"7":{"ha":706,"x_min":22,"x_max":675,"o":"m 675 843 l 317 0 l 114 0 l 476 821 l 22 821 l 22 989 l 675 989 l 675 843 z "},"8":{"ha":885,"x_min":71,"x_max":814,"o":"m 94 757 q 134 889 94 828 q 252 988 174 950 q 442 1025 331 1025 q 631 988 553 1025 q 749 889 710 950 q 789 757 789 828 q 750 620 789 676 q 633 536 711 564 q 767 440 721 503 q 814 286 814 376 q 765 119 814 189 q 633 13 717 49 q 442 -24 549 -24 q 251 13 335 -24 q 119 119 167 49 q 71 286 71 189 q 117 440 71 376 q 251 536 164 503 q 134 621 174 564 q 94 757 94 678 m 288 725 q 329 622 288 658 q 442 586 371 586 q 556 622 514 586 q 597 725 597 658 q 555 828 597 792 q 442 865 513 865 q 330 828 372 865 q 288 725 288 792 m 261 297 q 310 181 261 224 q 442 138 358 138 q 574 181 525 138 q 624 297 624 224 q 573 412 624 372 q 442 451 522 451 q 312 412 363 451 q 261 297 261 372 z "},"9":{"ha":839,"x_min":58,"x_max":775,"o":"m 272 292 q 422 147 294 147 q 563 233 519 147 q 600 500 606 318 q 513 394 578 433 q 363 354 449 354 q 140 440 221 354 q 58 682 58 525 q 97 853 58 778 q 213 972 136 929 q 400 1015 290 1015 q 694 885 614 1015 q 775 525 775 756 q 694 126 775 263 q 422 -10 613 -10 q 248 31 321 -10 q 135 140 175 71 q 89 292 96 208 l 272 292 m 583 668 q 538 797 583 746 q 406 847 493 847 q 286 803 331 847 q 242 679 242 758 q 287 551 242 596 q 408 506 332 506 q 531 548 479 506 q 583 668 583 590 z "},"\u0000":{"ha":0,"x_min":0,"x_max":0,"o":""},"\r":{"ha":303,"x_min":0,"x_max":0,"o":""}," ":{"ha":303,"x_min":0,"x_max":0,"o":""},"अ":{"ha":1160,"x_min":90,"x_max":1188,"o":"m 1188 1028 l 1188 878 l 1033 878 l 1033 0 l 854 0 l 854 399 l 692 400 q 696 349 696 374 q 617 152 696 225 q 410 79 539 79 q 243 115 315 79 q 131 217 171 151 q 90 368 90 283 l 258 368 q 297 272 258 310 q 399 233 336 233 q 497 270 461 233 q 533 365 533 307 q 494 462 533 422 q 379 501 456 501 l 319 501 l 319 646 l 379 646 q 483 681 446 646 q 521 765 521 715 q 485 855 521 822 q 396 888 450 888 q 302 855 339 888 q 265 769 265 822 l 100 769 q 138 912 100 850 q 242 1007 175 974 q 396 1040 308 1040 q 602 972 524 1040 q 681 790 681 904 q 640 658 681 713 q 526 581 600 603 l 526 576 q 597 547 561 569 l 854 547 l 854 1028 l 1188 1028 z "},"आ":{"ha":1583,"x_min":90,"x_max":1617,"o":"m 1188 1028 l 1188 878 l 1033 878 l 1033 0 l 854 0 l 854 399 l 692 400 q 696 349 696 374 q 617 152 696 225 q 410 79 539 79 q 243 115 315 79 q 131 217 171 151 q 90 368 90 283 l 258 368 q 297 272 258 310 q 399 233 336 233 q 497 270 461 233 q 533 365 533 307 q 494 462 533 422 q 379 501 456 501 l 319 501 l 319 646 l 379 646 q 483 681 446 646 q 521 765 521 715 q 485 855 521 822 q 396 888 450 888 q 302 855 339 888 q 265 769 265 822 l 100 769 q 138 912 100 850 q 242 1007 175 974 q 396 1040 308 1040 q 602 972 524 1040 q 681 790 681 904 q 640 658 681 713 q 526 581 600 603 l 526 576 q 597 547 561 569 l 854 547 l 854 1028 l 1188 1028 m 1283 878 l 1129 878 l 1129 1028 l 1617 1028 l 1617 878 l 1464 878 l 1464 0 l 1283 0 l 1283 878 z "},"इ":{"ha":804,"x_min":-37,"x_max":842,"o":"m 396 624 q 310 604 344 624 q 275 539 275 585 q 306 476 275 496 q 386 457 336 457 l 446 457 q 650 399 568 457 q 732 213 732 342 q 667 44 732 110 q 488 -22 603 -22 q 363 7 413 -22 q 290 71 314 36 l 290 -112 l 119 -112 l 119 243 l 281 243 q 327 147 286 182 q 436 111 368 111 q 530 142 497 111 q 563 218 563 172 q 521 303 563 278 q 413 329 479 329 q 331 332 360 329 q 163 387 232 336 q 94 540 94 438 q 167 701 94 649 q 350 753 239 753 l 476 753 l 476 878 l -37 878 l -37 1028 l 842 1028 l 842 878 l 650 878 l 650 624 l 396 624 z "},"ई":{"ha":804,"x_min":-37,"x_max":993,"o":"m 396 624 q 310 604 344 624 q 275 539 275 585 q 306 476 275 496 q 386 457 336 457 l 446 457 q 650 399 568 457 q 732 213 732 342 q 667 44 732 110 q 488 -22 603 -22 q 363 7 413 -22 q 290 71 314 36 l 290 -112 l 119 -112 l 119 243 l 281 243 q 327 147 286 182 q 436 111 368 111 q 530 142 497 111 q 563 218 563 172 q 521 303 563 278 q 413 329 479 329 q 331 332 360 329 q 163 387 232 336 q 94 540 94 438 q 167 701 94 649 q 350 753 239 753 l 476 753 l 476 878 l -37 878 l -37 1028 l 842 1028 l 842 878 l 650 878 l 650 624 l 396 624 m 478 1122 q 539 1330 478 1249 q 738 1411 600 1411 q 927 1339 861 1411 q 988 1144 993 1267 l 831 1144 q 808 1230 832 1199 q 740 1261 785 1261 q 667 1227 690 1261 q 644 1124 644 1193 l 644 999 l 478 999 l 478 1122 z "},"उ":{"ha":790,"x_min":-29,"x_max":819,"o":"m 679 772 q 641 632 679 688 q 542 564 603 576 l 542 561 q 669 470 621 540 q 717 306 717 400 q 679 149 717 217 q 572 44 642 82 q 404 6 501 6 q 226 44 304 6 q 105 156 149 83 q 61 325 61 229 l 232 325 q 278 210 232 256 q 396 165 325 165 q 506 208 465 165 q 547 319 547 251 q 507 432 547 385 q 386 479 467 479 l 310 479 l 310 635 l 361 635 q 468 674 429 635 q 507 781 507 713 l 507 878 l -29 878 l -29 1028 l 819 1028 l 819 878 l 679 878 l 679 772 z "},"ऊ":{"ha":1190,"x_min":-29,"x_max":1218,"o":"m 679 772 q 641 632 679 688 q 542 564 603 576 l 542 561 l 804 561 q 1040 493 953 561 q 1128 288 1128 425 q 1056 99 1128 167 q 861 31 985 31 q 786 38 831 31 l 786 174 q 831 172 801 172 q 922 202 888 172 q 956 293 956 232 q 915 388 956 357 q 807 418 874 418 l 690 418 q 715 296 715 364 q 678 147 715 213 q 570 43 640 81 q 404 6 500 6 q 226 44 304 6 q 105 156 149 83 q 61 325 61 229 l 232 325 q 278 210 232 256 q 396 165 325 165 q 506 208 465 165 q 547 319 547 251 q 507 432 547 385 q 386 479 467 479 l 310 479 l 310 635 l 361 635 q 468 674 429 635 q 507 781 507 713 l 507 878 l -29 878 l -29 1028 l 1218 1028 l 1218 878 l 679 878 l 679 772 z "},"ऋ":{"ha":1444,"x_min":-29,"x_max":1474,"o":"m 839 878 l 839 619 l 1058 619 q 1157 706 1157 619 l 1157 768 l 1311 768 l 1311 281 l 1279 281 q 1180 248 1214 281 q 1146 164 1146 215 q 1185 78 1146 106 q 1286 50 1224 50 q 1365 61 1321 50 l 1365 -82 q 1263 -93 1310 -93 q 1054 -30 1135 -93 q 974 147 974 33 q 1023 296 974 236 q 1157 379 1072 356 l 1157 500 q 1032 476 1099 476 l 839 476 l 839 0 l 674 0 l 674 290 l 368 0 l 142 0 l 142 8 l 672 468 q 606 567 656 531 q 485 604 556 604 q 329 544 388 604 q 271 385 271 485 l 92 385 q 133 578 92 494 q 252 709 175 663 q 432 756 329 756 q 674 644 592 756 l 674 878 l -29 878 l -29 1028 l 1474 1028 l 1474 878 l 839 878 z "},"ॠ":{"ha":1408,"x_min":-29,"x_max":1476,"o":"m 839 878 l 839 619 l 1058 619 q 1157 706 1157 619 l 1157 768 l 1311 768 l 1311 276 l 1260 276 q 1149 194 1149 276 q 1181 135 1149 154 q 1264 115 1214 115 l 1338 115 l 1338 -18 l 1269 -18 q 1149 -103 1149 -18 q 1275 -185 1149 -185 q 1414 -164 1343 -185 l 1414 -297 q 1338 -317 1385 -310 q 1247 -324 1292 -324 q 1055 -274 1133 -324 q 976 -121 976 -225 q 1013 -14 976 -58 q 1110 44 1050 31 l 1110 49 q 1013 101 1050 63 q 976 204 976 139 q 1029 325 976 283 q 1157 374 1082 367 l 1157 500 q 1032 476 1099 476 l 839 476 l 839 0 l 674 0 l 674 290 l 368 0 l 142 0 l 142 8 l 672 468 q 606 567 656 531 q 485 604 556 604 q 329 544 388 604 q 271 385 271 485 l 92 385 q 133 578 92 494 q 252 709 175 663 q 432 756 329 756 q 674 644 592 756 l 674 878 l -29 878 l -29 1028 l 1476 1028 l 1476 878 l 839 878 z "},"ऌ":{"ha":1254,"x_min":-29,"x_max":1283,"o":"m 974 878 l 974 729 q 1119 621 1064 703 q 1174 415 1174 539 q 1151 276 1174 343 l 1142 276 q 1024 244 1061 276 q 986 158 986 213 q 1026 74 986 101 q 1129 47 1065 47 q 1210 57 1176 47 l 1210 -86 q 1107 -96 1154 -96 q 895 -33 976 -96 q 814 150 814 31 q 864 290 814 231 q 992 369 914 350 q 994 417 994 400 q 958 539 994 492 q 854 586 921 586 q 744 531 781 586 q 707 388 707 476 l 707 353 l 557 353 l 557 388 q 521 531 557 475 q 414 586 485 586 q 303 538 342 586 q 264 413 264 490 q 310 273 264 322 q 440 224 357 224 l 479 226 l 479 69 q 431 68 460 68 q 173 163 264 68 q 82 415 82 257 q 122 594 82 521 q 233 706 163 668 q 389 743 303 743 q 542 694 483 743 q 628 568 601 644 l 632 568 q 694 670 651 626 q 800 732 736 714 l 800 878 l -29 878 l -29 1028 l 1283 1028 l 1283 878 l 974 878 z "},"ॡ":{"ha":1269,"x_min":-29,"x_max":1293,"o":"m 974 878 l 974 729 q 1119 621 1064 703 q 1174 415 1174 539 q 1151 276 1174 343 l 1106 276 q 994 194 994 276 q 1027 135 994 154 q 1110 115 1060 115 l 1183 115 l 1183 -18 l 1115 -18 q 993 -103 993 -18 q 1029 -166 993 -147 q 1121 -185 1065 -185 q 1260 -164 1189 -185 l 1260 -297 q 1185 -317 1231 -310 q 1094 -324 1139 -324 q 901 -274 979 -324 q 822 -119 822 -224 q 860 -14 822 -58 q 956 44 897 31 l 956 49 q 860 101 896 63 q 824 204 824 139 q 872 321 824 281 q 992 372 919 361 q 994 417 994 400 q 958 539 994 492 q 854 586 921 586 q 744 531 781 586 q 707 388 707 476 l 707 353 l 557 353 l 557 388 q 521 531 557 475 q 414 586 485 586 q 303 538 342 586 q 264 413 264 490 q 310 273 264 322 q 440 224 357 224 l 479 226 l 479 69 q 431 68 460 68 q 173 163 264 68 q 82 415 82 257 q 122 594 82 521 q 233 706 163 668 q 389 743 303 743 q 542 694 483 743 q 628 568 601 644 l 632 568 q 694 670 651 626 q 800 732 736 714 l 800 878 l -29 878 l -29 1028 l 1293 1028 l 1293 878 l 974 878 z "},"ए":{"ha":906,"x_min":-29,"x_max":935,"o":"m 935 878 l 801 878 l 801 749 q 744 531 801 604 q 556 457 686 457 q 488 461 524 457 l 488 621 q 515 619 497 619 q 600 652 574 619 q 626 753 626 685 l 626 878 l 304 878 l 304 369 q 347 228 304 278 q 468 179 390 179 q 583 222 542 179 q 625 342 625 265 l 800 342 q 712 110 800 193 q 471 26 624 26 q 213 121 301 26 q 125 376 125 215 l 124 878 l -29 878 l -29 1028 l 935 1028 l 935 878 z "},"ऐ":{"ha":906,"x_min":-29,"x_max":935,"o":"m 935 878 l 801 878 l 801 749 q 744 531 801 604 q 556 457 686 457 q 488 461 524 457 l 488 621 q 515 619 497 619 q 600 652 574 619 q 626 753 626 685 l 626 878 l 304 878 l 304 369 q 347 228 304 278 q 468 179 390 179 q 583 222 542 179 q 625 342 625 265 l 800 342 q 712 110 800 193 q 471 26 624 26 q 213 121 301 26 q 125 376 125 215 l 124 878 l -29 878 l -29 1028 l 935 1028 l 935 878 m 626 1022 q 524 1163 564 1119 q 444 1221 485 1207 q 336 1235 404 1235 l 269 1235 l 269 1379 l 333 1379 q 510 1356 444 1378 q 639 1259 575 1333 q 794 1022 703 1185 l 626 1022 z "},"ओ":{"ha":1589,"x_min":90,"x_max":1617,"o":"m 1290 1022 q 1188 1163 1228 1119 q 1108 1221 1149 1207 q 1000 1235 1068 1235 l 933 1235 l 933 1379 l 997 1379 q 1174 1356 1108 1378 q 1303 1259 1239 1333 q 1458 1022 1367 1185 l 1290 1022 m 1188 1028 l 1188 878 l 1033 878 l 1033 0 l 854 0 l 854 399 l 692 400 q 696 349 696 374 q 617 152 696 225 q 410 79 539 79 q 243 115 315 79 q 131 217 171 151 q 90 368 90 283 l 258 368 q 297 272 258 310 q 399 233 336 233 q 497 270 461 233 q 533 365 533 307 q 494 462 533 422 q 379 501 456 501 l 319 501 l 319 646 l 379 646 q 483 681 446 646 q 521 765 521 715 q 485 855 521 822 q 396 888 450 888 q 302 855 339 888 q 265 769 265 822 l 100 769 q 138 912 100 850 q 242 1007 175 974 q 396 1040 308 1040 q 602 972 524 1040 q 681 790 681 904 q 640 658 681 713 q 526 581 600 603 l 526 576 q 597 547 561 569 l 854 547 l 854 1028 l 1188 1028 m 1283 878 l 1129 878 l 1129 1028 l 1617 1028 l 1617 878 l 1464 878 l 1464 0 l 1283 0 l 1283 878 z "},"औ":{"ha":1589,"x_min":90,"x_max":1617,"o":"m 986 1472 q 1156 1448 1099 1472 q 1278 1333 1214 1424 q 1456 1024 1343 1243 l 1301 1024 q 1177 1104 1214 1083 q 1104 1131 1140 1125 q 988 1136 1068 1136 l 918 1136 l 918 1249 l 983 1249 q 1099 1244 1061 1249 q 1174 1220 1136 1239 q 1269 1157 1213 1201 q 1174 1294 1217 1251 q 1092 1348 1131 1338 q 990 1358 1054 1358 l 918 1358 l 918 1472 l 986 1472 m 1188 1028 l 1188 878 l 1033 878 l 1033 0 l 854 0 l 854 399 l 692 400 q 696 349 696 374 q 617 152 696 225 q 410 79 539 79 q 243 115 315 79 q 131 217 171 151 q 90 368 90 283 l 258 368 q 297 272 258 310 q 399 233 336 233 q 497 270 461 233 q 533 365 533 307 q 494 462 533 422 q 379 501 456 501 l 319 501 l 319 646 l 379 646 q 483 681 446 646 q 521 765 521 715 q 485 855 521 822 q 396 888 450 888 q 302 855 339 888 q 265 769 265 822 l 100 769 q 138 912 100 850 q 242 1007 175 974 q 396 1040 308 1040 q 602 972 524 1040 q 681 790 681 904 q 640 658 681 713 q 526 581 600 603 l 526 576 q 597 547 561 569 l 854 547 l 854 1028 l 1188 1028 m 1283 878 l 1129 878 l 1129 1028 l 1617 1028 l 1617 878 l 1464 878 l 1464 0 l 1283 0 l 1283 878 z "},"ऍ":{"ha":906,"x_min":-29,"x_max":935,"o":"m 935 878 l 801 878 l 801 749 q 744 531 801 604 q 556 457 686 457 q 488 461 524 457 l 488 621 q 515 619 497 619 q 600 652 574 619 q 626 753 626 685 l 626 878 l 304 878 l 304 369 q 347 228 304 278 q 468 179 390 179 q 583 222 542 179 q 625 342 625 265 l 800 342 q 712 110 800 193 q 471 26 624 26 q 213 121 301 26 q 125 376 125 215 l 124 878 l -29 878 l -29 1028 l 935 1028 l 935 878 m 456 1149 q 221 1225 300 1149 q 142 1424 142 1301 l 296 1424 q 335 1322 296 1363 q 456 1282 375 1282 q 575 1322 535 1282 q 615 1424 615 1363 l 768 1424 q 690 1225 768 1301 q 456 1149 611 1149 z "},"ॲ":{"ha":1164,"x_min":90,"x_max":1268,"o":"m 1188 1028 l 1188 878 l 1033 878 l 1033 0 l 854 0 l 854 399 l 692 400 q 696 349 696 374 q 617 152 696 225 q 410 79 539 79 q 243 115 315 79 q 131 217 171 151 q 90 368 90 283 l 258 368 q 297 272 258 310 q 399 233 336 233 q 497 270 461 233 q 533 365 533 307 q 494 462 533 422 q 379 501 456 501 l 319 501 l 319 646 l 379 646 q 483 681 446 646 q 521 765 521 715 q 485 855 521 822 q 396 888 450 888 q 302 855 339 888 q 265 769 265 822 l 100 769 q 138 912 100 850 q 242 1007 175 974 q 396 1040 308 1040 q 602 972 524 1040 q 681 790 681 904 q 640 658 681 713 q 526 581 600 603 l 526 576 q 597 547 561 569 l 854 547 l 854 1028 l 1188 1028 m 956 1153 q 721 1229 800 1153 q 642 1428 642 1306 l 796 1428 q 835 1326 796 1367 q 956 1286 875 1286 q 1075 1326 1035 1286 q 1115 1428 1115 1367 l 1268 1428 q 1190 1229 1268 1306 q 956 1153 1111 1153 z "},"ऑ":{"ha":1589,"x_min":90,"x_max":1617,"o":"m 1188 1028 l 1188 878 l 1033 878 l 1033 0 l 854 0 l 854 399 l 692 400 q 696 349 696 374 q 617 152 696 225 q 410 79 539 79 q 243 115 315 79 q 131 217 171 151 q 90 368 90 283 l 258 368 q 297 272 258 310 q 399 233 336 233 q 497 270 461 233 q 533 365 533 307 q 494 462 533 422 q 379 501 456 501 l 319 501 l 319 646 l 379 646 q 483 681 446 646 q 521 765 521 715 q 485 855 521 822 q 396 888 450 888 q 302 855 339 888 q 265 769 265 822 l 100 769 q 138 912 100 850 q 242 1007 175 974 q 396 1040 308 1040 q 602 972 524 1040 q 681 790 681 904 q 640 658 681 713 q 526 581 600 603 l 526 576 q 597 547 561 569 l 854 547 l 854 1028 l 1188 1028 m 1283 878 l 1129 878 l 1129 1028 l 1617 1028 l 1617 878 l 1464 878 l 1464 0 l 1283 0 l 1283 878 m 1164 1149 q 929 1225 1008 1149 q 850 1424 850 1301 l 1004 1424 q 1044 1322 1004 1363 q 1164 1282 1083 1282 q 1283 1322 1243 1282 q 1324 1424 1324 1363 l 1476 1424 q 1398 1225 1476 1301 q 1164 1149 1319 1149 z "},"ा":{"ha":429,"x_min":-29,"x_max":458,"o":"m 125 878 l -29 878 l -29 1028 l 458 1028 l 458 878 l 306 878 l 306 0 l 125 0 l 125 878 z "},"ि":{"ha":429,"x_min":-29,"x_max":1250,"o":"m 688 1414 q 978 1365 850 1414 q 1178 1225 1106 1317 q 1250 1011 1250 1133 l 1250 988 l 1071 988 l 1071 1008 q 1016 1153 1071 1096 q 874 1239 961 1211 q 688 1267 786 1267 q 421 1209 532 1267 q 303 1028 310 1151 l 458 1028 l 458 878 l 306 878 l 306 0 l 125 0 l 125 878 l -29 878 l -29 1028 l 125 1028 q 203 1237 129 1150 q 402 1369 276 1324 q 688 1414 528 1414 z "},"ी":{"ha":429,"x_min":-306,"x_max":458,"o":"m 458 1028 l 458 878 l 306 878 l 306 0 l 125 0 l 125 878 l -29 878 l -29 1028 l 131 1028 l 131 1082 q 3 1263 131 1263 q -102 1210 -74 1263 q -131 1082 -131 1158 l -131 988 l -306 988 l -306 1074 q -232 1322 -306 1231 q 3 1414 -158 1414 q 235 1322 164 1414 q 306 1074 306 1229 l 306 1028 l 458 1028 z "},"ु":{"ha":0,"x_min":-632,"x_max":8,"o":"m -286 -451 q -533 -375 -435 -451 q -629 -140 -632 -299 l -471 -140 q -424 -268 -474 -226 q -290 -310 -374 -310 q -183 -279 -222 -310 q -144 -194 -144 -249 q -175 -118 -144 -149 q -261 -87 -206 -87 l -306 -87 l -306 53 l -261 53 q -61 -15 -131 53 q 8 -196 8 -82 q -71 -383 8 -314 q -286 -451 -150 -451 z "},"ू":{"ha":0,"x_min":-508,"x_max":138,"o":"m -257 -433 q -437 -373 -365 -433 q -508 -200 -508 -312 q -429 -20 -508 -86 q -221 46 -350 46 q 51 -68 -36 46 q 138 -358 138 -182 l 136 -425 l -11 -425 l -11 -350 q -66 -156 -11 -224 q -222 -87 -121 -87 q -324 -117 -285 -87 q -364 -200 -364 -146 q -330 -276 -364 -249 q -246 -304 -296 -304 q -204 -303 -219 -304 l -204 -432 q -257 -433 -222 -433 z "},"ृ":{"ha":0,"x_min":-481,"x_max":-51,"o":"m -190 -453 q -396 -391 -311 -453 q -481 -200 -481 -329 q -404 -20 -481 -89 q -193 49 -328 49 q -125 47 -137 49 l -125 -75 l -178 -75 q -273 -108 -239 -75 q -307 -193 -307 -142 q -266 -282 -307 -254 q -161 -310 -225 -310 q -51 -293 -108 -310 l -51 -432 q -190 -453 -114 -453 z "},"ॄ":{"ha":0,"x_min":-443,"x_max":-7,"o":"m -172 -650 q -365 -601 -286 -650 q -443 -447 -443 -551 q -406 -341 -443 -385 q -310 -283 -369 -297 l -310 -279 q -406 -226 -369 -264 q -443 -124 -443 -189 q -378 7 -443 -35 q -228 49 -314 49 l -125 49 l -125 -50 l -160 -50 q -271 -132 -271 -50 q -239 -192 -271 -174 q -156 -211 -207 -211 l -82 -211 l -82 -344 l -149 -344 q -272 -429 -272 -344 q -236 -492 -272 -474 q -146 -511 -200 -511 q -69 -504 -107 -511 q -7 -490 -31 -497 l -7 -624 q -81 -643 -35 -636 q -172 -650 -128 -650 z "},"ॢ":{"ha":0,"x_min":-621,"x_max":219,"o":"m 160 -544 q 219 -536 194 -544 l 219 -649 q 142 -656 181 -656 q -18 -607 43 -656 q -79 -471 -79 -558 q -43 -365 -79 -408 q 51 -306 -7 -321 q 53 -276 53 -296 q 27 -187 53 -221 q -47 -153 1 -153 q -126 -192 -100 -153 q -151 -296 -151 -232 l -151 -321 l -269 -321 l -269 -296 q -295 -192 -269 -232 q -372 -153 -321 -153 q -452 -187 -424 -153 q -481 -278 -481 -221 q -447 -378 -481 -343 q -354 -412 -414 -412 q -325 -410 -335 -412 l -325 -532 q -361 -533 -339 -533 q -553 -463 -485 -533 q -621 -276 -621 -393 q -556 -94 -621 -158 q -393 -31 -492 -31 q -278 -66 -322 -31 q -215 -158 -235 -101 l -211 -158 q -145 -67 -192 -103 q -25 -31 -99 -31 q 133 -95 69 -31 q 196 -276 196 -160 q 179 -378 196 -332 l 171 -378 q 83 -401 111 -378 q 54 -464 54 -424 q 85 -524 54 -503 q 160 -544 115 -544 z "},"ॣ":{"ha":0,"x_min":-621,"x_max":256,"o":"m 153 -717 q 210 -712 182 -717 q 256 -701 239 -707 l 256 -806 q 199 -819 233 -814 q 132 -824 165 -824 q -12 -787 46 -824 q -71 -674 -71 -751 q -43 -592 -71 -625 q 29 -550 -15 -560 l 29 -547 q -44 -508 -17 -537 q -71 -429 -71 -478 q -36 -342 -71 -374 q 51 -303 -1 -311 q 53 -276 53 -294 q 27 -187 53 -221 q -47 -153 1 -153 q -126 -192 -100 -153 q -151 -296 -151 -232 l -151 -321 l -269 -321 l -269 -296 q -295 -192 -269 -232 q -372 -153 -321 -153 q -452 -187 -424 -153 q -481 -278 -481 -221 q -447 -378 -481 -343 q -354 -412 -414 -412 q -325 -410 -335 -412 l -325 -532 q -361 -533 -339 -533 q -553 -463 -485 -533 q -621 -276 -621 -393 q -556 -94 -621 -158 q -393 -31 -492 -31 q -278 -66 -322 -31 q -215 -158 -235 -101 l -211 -158 q -145 -67 -192 -103 q -25 -31 -99 -31 q 133 -95 69 -31 q 196 -276 196 -160 q 179 -378 196 -332 l 143 -378 q 63 -436 63 -378 q 86 -480 63 -465 q 147 -494 110 -494 l 200 -494 l 200 -599 l 153 -599 q 86 -612 111 -599 q 61 -660 61 -625 q 87 -703 61 -690 q 153 -717 113 -717 z "},"े":{"ha":0,"x_min":-651,"x_max":-126,"o":"m -294 1022 q -397 1163 -357 1119 q -476 1221 -436 1207 q -585 1235 -517 1235 l -651 1235 l -651 1379 l -587 1379 q -411 1356 -476 1378 q -282 1259 -346 1333 q -126 1022 -218 1185 l -294 1022 z "},"ै":{"ha":0,"x_min":-665,"x_max":-128,"o":"m -597 1472 q -427 1448 -485 1472 q -305 1333 -369 1424 q -128 1024 -240 1243 l -282 1024 q -406 1104 -369 1083 q -479 1131 -443 1125 q -596 1136 -515 1136 l -665 1136 l -665 1249 l -600 1249 q -485 1244 -522 1249 q -409 1220 -447 1239 q -314 1157 -371 1201 q -410 1294 -367 1251 q -491 1348 -453 1338 q -593 1358 -529 1358 l -665 1358 l -665 1472 l -597 1472 z "},"ो":{"ha":431,"x_min":-221,"x_max":458,"o":"m 125 878 l -29 878 l -29 1028 l 458 1028 l 458 878 l 306 878 l 306 0 l 125 0 l 125 878 m 136 1022 q 34 1163 74 1119 q -46 1221 -6 1207 q -154 1235 -86 1235 l -221 1235 l -221 1379 l -157 1379 q 19 1356 -46 1378 q 149 1259 85 1333 q 304 1022 213 1185 l 136 1022 z "},"ौ":{"ha":429,"x_min":-240,"x_max":458,"o":"m 125 878 l -29 878 l -29 1028 l 458 1028 l 458 878 l 306 878 l 306 0 l 125 0 l 125 878 m -172 1472 q -2 1448 -60 1472 q 120 1333 56 1424 q 297 1024 185 1243 l 143 1024 q 19 1104 56 1083 q -54 1131 -18 1125 q -171 1136 -90 1136 l -240 1136 l -240 1249 l -175 1249 q -60 1244 -97 1249 q 16 1220 -22 1239 q 111 1157 54 1201 q 15 1294 58 1251 q -66 1348 -28 1338 q -168 1358 -104 1358 l -240 1358 l -240 1472 l -172 1472 z "},"ॅ":{"ha":0,"x_min":-537,"x_max":89,"o":"m -224 1131 q -458 1207 -379 1131 q -537 1406 -537 1283 l -383 1406 q -344 1304 -383 1344 q -224 1264 -304 1264 q -104 1304 -144 1264 q -64 1406 -64 1344 l 89 1406 q 10 1207 89 1283 q -224 1131 -68 1131 z "},"ॉ":{"ha":432,"x_min":-99,"x_max":528,"o":"m 126 878 l -28 878 l -28 1028 l 460 1028 l 460 878 l 307 878 l 307 0 l 126 0 l 126 878 m 215 1131 q -19 1207 60 1131 q -99 1406 -99 1283 l 56 1406 q 95 1304 56 1344 q 215 1264 135 1264 q 335 1304 294 1264 q 375 1406 375 1344 l 528 1406 q 449 1207 528 1283 q 215 1131 371 1131 z "},"क":{"ha":1356,"x_min":-29,"x_max":1385,"o":"m 774 878 l 774 636 q 859 720 804 689 q 989 751 914 751 q 1140 710 1075 751 q 1239 597 1204 669 q 1274 435 1274 525 q 1236 265 1274 336 q 1133 155 1199 193 q 985 117 1068 117 q 894 128 942 117 l 894 268 q 939 264 913 264 q 1049 308 1006 264 q 1092 431 1092 353 q 1047 551 1092 504 q 933 599 1003 599 q 815 546 856 599 q 774 418 774 493 l 774 0 l 601 0 l 601 225 q 511 138 569 169 q 372 107 453 107 q 219 147 285 107 q 118 261 154 188 q 82 431 82 335 q 119 599 82 526 q 223 712 156 672 q 379 751 290 751 q 513 722 457 751 q 601 640 569 692 l 601 878 l -29 878 l -29 1028 l 1385 1028 l 1385 878 l 774 878 m 432 258 q 557 310 513 258 q 601 429 601 361 q 558 549 601 499 q 433 600 514 600 q 312 553 360 600 q 264 431 264 507 q 311 305 264 351 q 432 258 358 258 z "},"ख":{"ha":1319,"x_min":-29,"x_max":1347,"o":"m 1347 1028 l 1347 878 l 1194 878 l 1194 0 l 1015 0 l 1015 249 q 835 168 954 168 q 789 171 819 168 q 662 42 742 90 q 475 -7 582 -7 q 201 91 301 -7 q 100 367 100 189 l 100 557 l 140 557 q 283 601 235 557 q 332 749 332 646 l 332 878 l -29 878 l -29 1028 l 1347 1028 m 479 147 q 651 236 596 147 q 588 331 610 275 q 565 456 565 388 q 600 601 565 538 q 697 701 635 665 q 835 738 758 738 q 1015 656 954 738 l 1015 878 l 513 878 l 513 725 q 449 513 513 586 q 278 431 385 439 l 278 346 q 331 202 278 257 q 479 147 385 147 m 874 304 q 978 349 942 304 q 1015 454 1015 393 q 979 557 1015 513 q 874 601 943 601 q 768 563 811 601 q 725 456 725 524 q 767 344 725 385 q 874 304 808 304 z "},"ग":{"ha":1096,"x_min":-29,"x_max":1124,"o":"m 1124 1028 l 1124 878 l 969 878 l 969 0 l 790 0 l 790 878 l 588 878 l 588 540 q 523 340 588 417 q 325 264 458 264 q 126 335 196 264 q 56 532 56 406 q 57 575 56 561 l 231 575 l 231 532 q 252 449 231 482 q 319 417 274 417 q 408 533 408 417 l 408 878 l -29 878 l -29 1028 l 1124 1028 z "},"घ":{"ha":976,"x_min":-29,"x_max":1006,"o":"m 1006 878 l 853 878 l 853 0 l 672 0 l 672 263 q 559 169 628 201 q 404 138 490 138 q 185 203 271 138 q 100 390 100 269 q 147 525 100 471 q 263 594 194 579 l 263 599 q 158 662 197 614 q 119 797 119 710 l 119 878 l -29 878 l -29 1028 l 1006 1028 l 1006 878 m 672 878 l 299 878 l 299 806 q 333 705 299 739 q 447 671 368 671 l 507 671 l 507 526 l 435 526 q 320 494 358 526 q 282 408 282 461 q 328 315 282 347 q 447 283 374 283 q 561 310 510 283 q 642 385 613 336 q 672 497 672 435 l 672 878 z "},"ङ":{"ha":953,"x_min":-29,"x_max":981,"o":"m 981 1028 l 981 878 l 654 878 l 654 624 l 401 624 q 315 605 350 624 q 281 540 281 586 q 310 477 281 497 q 389 457 340 457 l 450 457 q 655 400 572 457 q 738 217 738 343 q 658 40 738 106 q 432 -25 578 -25 q 182 47 278 -25 q 81 243 86 118 l 260 243 q 306 147 261 182 q 426 111 351 111 q 530 140 493 111 q 567 218 567 169 q 526 303 567 276 q 418 329 485 329 l 367 329 q 181 378 261 329 q 101 546 101 426 q 173 699 101 649 q 354 750 244 750 l 481 750 l 481 878 l -29 878 l -29 1028 l 981 1028 m 835 624 q 905 595 876 624 q 933 525 933 567 q 905 456 933 485 q 835 428 876 428 q 765 456 793 428 q 736 525 736 485 q 765 595 736 567 q 835 624 793 624 z "},"च":{"ha":1036,"x_min":-29,"x_max":1065,"o":"m 1065 878 l 911 878 l 911 0 l 732 0 l 732 244 q 626 156 692 188 q 481 124 561 124 q 333 156 399 124 q 230 249 268 188 q 192 393 192 310 q 214 498 192 450 q 278 578 236 546 l 69 578 l 69 719 l 579 719 l 579 578 l 525 578 q 406 535 451 578 q 360 424 360 492 q 410 313 360 353 q 533 272 460 272 q 678 338 624 274 q 732 501 732 403 l 732 878 l -29 878 l -29 1028 l 1065 1028 l 1065 878 z "},"छ":{"ha":1140,"x_min":-29,"x_max":1169,"o":"m 893 878 l 893 744 q 1029 646 979 719 q 1079 460 1079 572 q 1016 233 1079 329 q 835 84 953 136 q 556 32 717 32 q 218 110 344 32 q 92 339 92 189 q 138 481 92 425 q 260 558 183 536 l 260 563 q 156 626 194 578 q 117 761 117 674 l 117 878 l -29 878 l -29 1028 l 1169 1028 l 1169 878 l 893 878 m 726 878 l 296 878 l 296 769 q 329 669 296 704 q 435 635 363 635 l 464 635 l 464 490 l 438 490 q 315 453 357 490 q 274 356 274 415 q 346 229 274 274 q 557 185 418 185 q 825 259 728 185 q 922 468 922 333 q 890 581 922 539 q 808 622 857 622 q 731 589 763 622 q 699 493 699 556 q 718 378 699 439 l 571 378 q 550 513 550 440 q 598 668 550 610 q 726 746 646 726 l 726 878 z "},"ज":{"ha":1183,"x_min":-29,"x_max":1213,"o":"m 1213 878 l 1060 878 l 1060 0 l 879 0 l 879 531 l 681 531 l 681 454 q 644 299 681 367 q 541 194 608 232 q 383 156 474 156 q 163 238 240 156 q 85 454 85 319 l 85 683 l 264 683 l 264 460 q 296 352 264 392 q 383 313 328 313 q 474 352 442 313 q 506 460 506 392 l 506 683 l 879 683 l 879 878 l -29 878 l -29 1028 l 1213 1028 l 1213 878 z "},"झ":{"ha":1197,"x_min":-29,"x_max":1225,"o":"m 1225 878 l 1071 878 l 1071 0 l 894 0 l 894 322 l 690 322 q 728 193 728 269 q 667 42 728 101 q 496 -17 606 -17 q 294 69 368 -17 l 294 -114 l 125 -114 l 125 236 l 286 236 q 333 149 293 182 q 440 115 372 115 q 531 144 500 115 q 563 218 563 174 q 524 300 563 271 q 413 329 486 329 q 331 332 360 329 q 163 387 232 336 q 94 540 94 438 q 167 701 94 649 q 350 753 239 753 l 476 753 l 476 878 l -29 878 l -29 1028 l 1225 1028 l 1225 878 m 894 457 l 894 878 l 650 878 l 650 624 l 396 624 q 310 604 344 624 q 275 539 275 585 q 306 476 275 496 q 386 457 336 457 l 446 457 l 894 457 z "},"ञ":{"ha":1146,"x_min":-29,"x_max":1175,"o":"m 1175 878 l 1022 878 l 1022 0 l 842 0 l 842 356 l 717 356 q 613 164 697 235 q 400 93 529 93 q 179 165 265 93 q 82 353 93 238 l 251 353 q 303 275 264 306 q 401 244 343 244 q 519 296 478 244 q 561 425 561 347 q 519 551 561 500 q 401 603 476 603 q 303 572 342 603 q 251 494 264 542 l 82 494 q 178 683 93 611 q 400 756 264 756 q 609 688 526 756 q 714 507 692 621 l 842 507 l 842 878 l -29 878 l -29 1028 l 1175 1028 l 1175 878 z "},"ट":{"ha":899,"x_min":-29,"x_max":928,"o":"m 496 600 q 327 547 393 600 q 261 393 261 493 q 319 250 261 306 q 469 194 376 194 q 622 253 564 194 q 679 403 679 311 l 850 403 q 803 212 850 294 q 672 84 757 129 q 474 39 586 39 q 271 83 360 39 q 132 208 182 128 q 82 393 82 289 q 131 585 82 504 q 272 708 181 665 q 485 751 363 751 l 490 751 l 490 878 l -29 878 l -29 1028 l 928 1028 l 928 878 l 667 878 l 667 600 l 496 600 z "},"ठ":{"ha":935,"x_min":-29,"x_max":963,"o":"m 554 878 l 554 747 q 769 633 685 724 q 853 403 853 543 q 802 217 853 297 q 664 94 751 138 q 467 51 576 51 q 271 94 358 51 q 133 217 183 138 q 82 403 82 297 q 165 633 82 543 q 378 747 249 722 l 378 878 l -29 878 l -29 1028 l 963 1028 l 963 878 l 554 878 m 675 403 q 617 548 675 492 q 467 604 560 604 q 318 548 375 604 q 261 403 261 492 q 318 257 261 314 q 467 200 375 200 q 617 257 560 200 q 675 403 675 314 z "},"ड":{"ha":790,"x_min":-29,"x_max":818,"o":"m 401 624 q 315 605 350 624 q 281 540 281 586 q 310 477 281 497 q 389 457 340 457 l 450 457 q 655 400 572 457 q 738 217 738 343 q 658 40 738 106 q 432 -25 578 -25 q 182 47 278 -25 q 81 243 86 118 l 260 243 q 306 147 261 182 q 426 111 351 111 q 530 140 493 111 q 567 218 567 169 q 526 303 567 276 q 418 329 485 329 l 367 329 q 181 378 261 329 q 101 546 101 426 q 173 699 101 649 q 354 750 244 750 l 475 750 l 475 878 l -29 878 l -29 1028 l 818 1028 l 818 878 l 649 878 l 649 624 l 401 624 z "},"ढ":{"ha":903,"x_min":-29,"x_max":931,"o":"m 543 636 q 335 569 415 636 q 256 378 256 503 q 326 197 256 267 q 521 126 396 126 q 665 167 608 126 q 721 275 721 207 q 692 349 721 319 q 621 378 664 378 q 556 353 583 378 q 529 290 529 328 q 533 265 529 276 l 404 265 q 399 314 399 299 q 463 455 399 404 q 628 506 526 506 q 808 442 742 506 q 874 275 874 379 q 780 72 874 146 q 518 -3 686 -3 q 295 44 394 -3 q 139 178 196 90 q 82 385 82 265 q 135 589 82 504 q 279 717 188 674 q 488 760 371 760 l 525 760 l 525 878 l -29 878 l -29 1028 l 931 1028 l 931 878 l 694 878 l 694 636 l 543 636 z "},"ण":{"ha":1224,"x_min":-29,"x_max":1251,"o":"m 1251 878 l 1097 878 l 1097 0 l 918 0 l 918 878 l 700 878 l 700 517 q 624 303 700 385 q 408 221 549 221 q 194 304 269 221 q 118 517 118 388 l 118 878 l -29 878 l -29 1028 l 1251 1028 l 1251 878 m 524 878 l 293 878 l 293 500 q 325 408 293 443 q 410 372 357 372 q 494 407 464 372 q 524 500 524 442 l 524 878 z "},"त":{"ha":976,"x_min":-29,"x_max":1004,"o":"m 1004 878 l 850 878 l 850 0 l 671 0 l 671 532 l 486 532 q 324 482 383 532 q 264 339 264 432 q 317 195 264 247 q 471 143 369 143 l 497 143 l 497 1 l 443 1 q 182 88 282 1 q 82 343 82 174 q 192 600 82 514 q 478 686 301 686 l 671 686 l 671 878 l -29 878 l -29 1028 l 1004 1028 l 1004 878 z "},"थ":{"ha":1089,"x_min":89,"x_max":1117,"o":"m 1117 1028 l 1117 878 l 963 878 l 963 0 l 783 0 l 783 285 q 672 170 751 217 q 478 124 592 124 q 272 171 360 124 q 137 306 185 218 q 89 513 89 393 q 94 601 89 561 l 222 601 q 417 640 344 601 q 490 772 490 678 q 461 855 490 822 q 382 888 432 888 q 299 855 329 888 q 268 767 268 822 q 274 714 268 747 l 111 714 q 106 771 106 750 q 142 917 106 856 q 242 1009 179 978 q 383 1040 306 1040 q 526 1006 464 1040 q 624 910 589 972 q 658 767 658 847 q 562 549 658 626 q 292 472 465 472 l 263 472 q 327 328 267 383 q 504 272 388 272 q 645 306 582 272 q 746 406 708 340 q 783 561 783 471 l 783 1028 l 1117 1028 z "},"द":{"ha":849,"x_min":-29,"x_max":876,"o":"m 471 597 q 322 551 379 597 q 265 419 265 504 q 311 296 265 342 q 433 250 357 250 q 541 290 496 250 q 586 401 586 329 l 751 401 l 751 -36 l 576 -36 l 576 192 q 496 130 546 151 q 382 108 446 108 q 231 144 299 108 q 122 251 163 181 q 82 424 82 322 q 130 602 82 528 q 262 714 178 676 q 451 751 346 751 l 522 751 l 522 878 l -29 878 l -29 1028 l 876 1028 l 876 878 l 703 878 l 703 597 l 471 597 z "},"ध":{"ha":1006,"x_min":97,"x_max":1043,"o":"m 1043 878 l 893 878 l 893 0 l 713 0 l 713 257 q 592 154 668 190 q 417 118 517 118 q 196 183 283 118 q 108 367 108 249 q 158 502 108 450 q 272 567 207 554 l 272 572 q 148 649 199 590 q 97 801 97 708 q 167 975 97 910 q 349 1040 238 1040 q 527 977 463 1040 q 592 811 592 914 q 589 758 592 789 l 456 758 l 457 789 q 430 862 457 833 q 356 890 403 890 q 278 860 307 890 q 250 782 250 829 q 303 681 250 715 q 439 646 357 646 l 521 646 l 521 500 l 447 500 q 331 470 372 500 q 290 386 290 440 q 338 297 290 328 q 461 265 385 265 q 592 298 535 265 q 681 389 649 331 q 713 524 713 447 l 713 1028 l 1043 1028 l 1043 878 z "},"न":{"ha":1125,"x_min":-29,"x_max":1154,"o":"m 1154 878 l 1000 878 l 1000 0 l 821 0 l 821 544 l 610 544 q 660 385 660 475 q 622 242 660 301 q 520 151 585 182 q 376 121 456 121 q 226 156 294 121 q 117 255 157 190 q 76 407 76 319 q 118 563 76 499 q 231 660 160 628 q 392 693 303 693 l 821 693 l 821 878 l -29 878 l -29 1028 l 1154 1028 l 1154 878 m 379 272 q 478 310 439 272 q 517 408 517 349 q 478 505 517 467 q 379 543 439 543 q 277 505 317 543 q 238 407 238 467 q 276 310 238 347 q 379 272 315 272 z "},"प":{"ha":929,"x_min":-29,"x_max":957,"o":"m 957 878 l 804 878 l 804 0 l 625 0 l 625 336 q 408 242 551 242 q 182 338 261 242 q 103 594 103 435 l 103 878 l -29 878 l -29 1028 l 957 1028 l 957 878 m 625 878 l 282 878 l 282 594 q 325 447 282 500 q 454 393 368 393 q 580 445 535 393 q 625 575 625 497 l 625 878 z "},"फ":{"ha":1368,"x_min":-29,"x_max":1396,"o":"m 779 878 l 779 638 q 868 721 811 690 q 1003 751 925 751 q 1152 711 1088 751 q 1252 599 1217 671 q 1288 439 1288 528 q 1251 266 1288 339 q 1148 155 1214 193 q 999 117 1082 117 q 901 131 944 117 l 901 268 q 953 263 935 263 q 1063 309 1021 263 q 1106 431 1106 356 q 1061 551 1106 504 q 947 599 1017 599 q 822 542 864 599 q 779 399 779 485 l 779 0 l 600 0 l 600 332 q 396 242 531 242 q 179 336 256 242 q 103 586 103 431 l 103 878 l -29 878 l -29 1028 l 1396 1028 l 1396 878 l 779 878 m 600 878 l 282 878 l 282 586 q 322 444 282 496 q 442 393 361 393 q 558 442 517 393 q 600 567 600 492 l 600 878 z "},"ब":{"ha":956,"x_min":-29,"x_max":985,"o":"m 985 1028 l 985 878 l 831 878 l 831 0 l 658 0 l 658 211 q 562 128 624 158 q 419 99 500 99 q 248 141 325 99 q 126 260 171 183 q 82 436 82 338 q 126 608 82 533 q 246 725 169 683 q 418 767 322 767 q 558 738 497 767 q 658 658 618 708 l 658 878 l -29 878 l -29 1028 l 985 1028 m 456 650 q 314 601 374 650 l 644 336 q 668 438 668 386 q 643 542 668 493 q 570 620 618 590 q 456 650 522 650 m 239 436 q 268 325 239 372 q 347 253 297 278 q 457 228 397 228 q 596 275 542 228 l 264 542 q 239 436 239 492 z "},"भ":{"ha":1154,"x_min":88,"x_max":1183,"o":"m 1183 1028 l 1183 878 l 1028 878 l 1028 0 l 849 0 l 849 493 l 656 493 l 656 411 q 583 185 656 265 q 375 106 511 106 q 225 139 290 106 q 124 233 160 172 q 88 374 88 294 q 171 571 88 501 q 385 640 254 640 l 488 640 l 488 754 q 464 851 488 817 q 392 886 440 886 q 324 856 350 886 q 297 776 297 826 q 303 729 297 751 l 122 729 q 117 783 117 763 q 187 969 117 899 q 386 1040 257 1040 q 592 954 528 1040 q 656 722 656 868 l 656 640 l 849 640 l 849 1028 l 1183 1028 m 488 493 l 389 493 q 292 461 329 493 q 254 375 254 429 q 288 290 254 321 q 372 258 321 258 q 458 297 428 258 q 488 401 488 335 l 488 493 z "},"म":{"ha":1140,"x_min":-29,"x_max":1169,"o":"m 1169 878 l 1015 878 l 1015 0 l 835 0 l 835 493 l 628 493 l 628 411 q 555 186 628 267 q 346 106 482 106 q 138 179 217 106 q 60 374 60 253 q 143 571 60 501 q 356 640 226 640 l 460 640 l 460 878 l -29 878 l -29 1028 l 1169 1028 l 1169 878 m 835 878 l 628 878 l 628 640 l 835 640 l 835 878 m 460 493 l 361 493 q 264 461 301 493 q 226 375 226 429 q 259 290 226 321 q 343 258 292 258 q 430 297 400 258 q 460 401 460 335 l 460 493 z "},"य":{"ha":1040,"x_min":-29,"x_max":1069,"o":"m 1069 878 l 915 878 l 915 0 l 736 0 l 736 249 q 622 161 693 193 q 457 129 551 129 q 182 235 281 129 q 83 521 83 340 q 89 597 83 547 l 106 597 q 274 648 222 597 q 326 803 326 699 l 326 878 l -29 878 l -29 1028 l 1069 1028 l 1069 878 m 736 878 l 504 878 l 504 771 q 261 503 504 522 q 323 340 261 401 q 494 279 385 279 q 669 346 603 279 q 736 517 736 413 l 736 878 z "},"र":{"ha":739,"x_min":-29,"x_max":768,"o":"m 275 438 l 275 279 q 303 178 275 217 q 388 140 332 140 q 469 176 440 140 q 499 271 499 213 l 499 304 l 671 304 q 672 276 672 292 q 597 66 672 144 q 390 -12 522 -12 q 174 71 250 -12 q 97 288 97 154 l 97 582 l 240 582 q 402 633 351 582 q 453 782 453 683 l 453 878 l -29 878 l -29 1028 l 768 1028 l 768 878 l 632 878 l 632 782 q 306 438 632 438 l 275 438 z "},"ल":{"ha":1264,"x_min":-29,"x_max":1293,"o":"m 996 878 l 996 718 q 1131 606 1081 686 q 1182 410 1182 526 q 1142 230 1182 308 q 1023 107 1101 151 q 833 63 944 63 q 785 64 804 63 l 785 221 l 824 218 q 953 269 906 218 q 1000 407 1000 321 q 962 531 1000 483 q 854 579 924 579 q 744 525 781 579 q 707 382 707 471 l 707 353 l 557 353 l 557 382 q 521 524 557 469 q 414 579 485 579 q 303 532 342 579 q 264 407 264 485 q 311 269 264 321 q 440 218 358 218 l 479 221 l 479 64 q 431 63 460 63 q 241 107 319 63 q 122 230 163 151 q 82 410 82 308 q 122 589 82 515 q 233 700 163 663 q 389 738 303 738 q 544 689 485 738 q 631 564 603 640 l 633 564 q 702 672 657 628 q 819 732 747 717 l 819 878 l -29 878 l -29 1028 l 1293 1028 l 1293 878 l 996 878 z "},"व":{"ha":931,"x_min":-29,"x_max":958,"o":"m 958 1028 l 958 878 l 806 878 l 806 0 l 631 0 l 631 221 q 535 135 594 165 q 396 104 475 104 q 230 147 301 104 q 120 264 158 189 q 82 436 82 339 q 121 602 82 529 q 231 716 160 675 q 396 757 303 757 q 535 727 475 757 q 631 643 596 697 l 631 878 l -29 878 l -29 1028 l 958 1028 m 444 247 q 546 274 504 247 q 609 342 588 300 q 631 431 631 385 q 582 560 631 506 q 444 614 533 614 q 311 563 364 614 q 258 432 258 513 q 310 298 258 349 q 444 247 363 247 z "},"श":{"ha":1167,"x_min":104,"x_max":1196,"o":"m 286 417 l 286 299 q 318 187 286 229 q 419 144 350 144 q 511 183 478 144 q 544 285 544 221 l 544 304 l 719 304 l 719 282 q 640 68 719 146 q 424 -10 560 -10 q 189 76 274 -10 q 104 308 104 163 l 104 567 l 301 567 q 481 610 410 567 q 551 747 551 654 q 518 847 551 810 q 426 885 485 885 q 335 847 368 885 q 301 746 301 810 q 304 694 301 713 l 125 694 q 121 753 121 724 q 158 903 121 838 q 265 1004 196 968 q 426 1040 335 1040 q 650 960 567 1040 q 733 736 733 881 q 631 498 733 579 q 367 417 529 417 l 286 417 m 1196 1028 l 1196 878 l 1042 878 l 1042 0 l 860 0 l 860 1028 l 1196 1028 z "},"ष":{"ha":944,"x_min":-29,"x_max":974,"o":"m 974 878 l 819 878 l 819 0 l 643 0 l 643 326 q 419 228 571 228 q 185 328 267 228 q 103 594 103 429 l 103 878 l -29 878 l -29 1028 l 974 1028 l 974 878 m 643 878 l 279 878 l 643 613 l 643 878 m 457 379 q 566 410 522 379 q 629 493 610 440 l 276 749 l 276 590 q 322 436 276 493 q 457 379 367 379 z "},"स":{"ha":1146,"x_min":-29,"x_max":1174,"o":"m 1174 878 l 1019 878 l 1019 0 l 840 0 l 840 443 l 275 443 l 275 281 q 304 179 275 218 q 392 140 333 140 q 476 176 446 140 q 507 271 507 213 l 507 288 l 679 288 q 681 260 681 276 q 604 61 681 135 q 394 -12 528 -12 q 175 72 253 -12 q 97 290 97 156 l 97 572 l 211 572 q 372 625 321 572 q 424 772 424 678 l 424 878 l -29 878 l -29 1028 l 1174 1028 l 1174 878 m 840 878 l 603 878 l 603 772 q 554 590 603 668 l 840 590 l 840 878 z "},"ह":{"ha":813,"x_min":-29,"x_max":842,"o":"m 411 628 q 331 608 361 628 q 300 544 300 589 q 315 496 300 517 q 358 464 331 475 q 429 469 388 469 q 651 400 571 469 q 746 222 732 331 l 574 222 q 525 295 564 264 q 425 326 486 326 q 309 281 353 326 q 265 163 265 235 q 309 42 265 88 q 425 -3 353 -3 q 523 27 483 -3 q 574 99 563 57 l 746 99 q 647 -82 733 -12 q 425 -151 560 -151 q 247 -111 322 -151 q 131 1 171 -71 q 90 165 90 72 q 125 312 90 247 q 224 417 160 376 q 149 484 176 443 q 122 579 122 525 q 183 710 122 663 q 349 757 244 757 l 485 757 l 485 878 l -29 878 l -29 1028 l 842 1028 l 842 878 l 657 878 l 657 628 l 411 628 z "},"ळ":{"ha":1354,"x_min":-29,"x_max":1382,"o":"m 1065 878 l 1065 718 q 1215 607 1158 688 q 1272 414 1272 526 q 1231 247 1272 319 q 1117 135 1189 175 q 956 96 1044 96 q 785 142 858 96 q 681 269 713 189 l 674 269 q 569 142 642 189 q 399 96 496 96 q 238 135 310 96 q 124 247 165 175 q 82 414 82 319 q 124 583 82 510 q 238 697 165 657 q 399 736 310 736 q 563 692 492 736 q 675 564 633 649 l 679 564 q 767 676 713 633 q 892 731 821 718 l 892 878 l -29 878 l -29 1028 l 1382 1028 l 1382 878 l 1065 878 m 425 249 q 543 295 497 249 q 589 414 589 342 q 543 536 589 489 q 424 583 497 583 q 303 536 350 583 q 257 414 257 489 q 304 294 257 340 q 425 249 351 249 m 929 249 q 1049 294 1001 249 q 1096 414 1096 340 q 1049 536 1096 489 q 931 583 1003 583 q 811 536 857 583 q 765 414 765 489 q 811 294 765 340 q 929 249 857 249 z "},"क़":{"ha":1356,"x_min":-29,"x_max":1385,"o":"m 774 878 l 774 636 q 859 720 804 689 q 989 751 914 751 q 1140 710 1075 751 q 1239 597 1204 669 q 1274 435 1274 525 q 1236 265 1274 336 q 1133 155 1199 193 q 985 117 1068 117 q 894 128 942 117 l 894 268 q 939 264 913 264 q 1049 308 1006 264 q 1092 431 1092 353 q 1047 551 1092 504 q 933 599 1003 599 q 815 546 856 599 q 774 418 774 493 l 774 0 l 601 0 l 601 225 q 511 138 569 169 q 372 107 453 107 q 219 147 285 107 q 118 261 154 188 q 82 431 82 335 q 119 599 82 526 q 223 712 156 672 q 379 751 290 751 q 513 722 457 751 q 601 640 569 692 l 601 878 l -29 878 l -29 1028 l 1385 1028 l 1385 878 l 774 878 m 432 258 q 557 310 513 258 q 601 429 601 361 q 558 549 601 499 q 433 600 514 600 q 312 553 360 600 q 264 431 264 507 q 311 305 264 351 q 432 258 358 258 m 346 -201 q 269 -170 300 -201 q 238 -94 238 -139 q 269 -17 238 -49 q 346 14 300 14 q 423 -17 392 14 q 454 -94 454 -49 q 423 -170 454 -139 q 346 -201 392 -201 z "},"ख़":{"ha":1319,"x_min":-29,"x_max":1347,"o":"m 1347 1028 l 1347 878 l 1194 878 l 1194 0 l 1015 0 l 1015 249 q 835 168 954 168 q 789 171 819 168 q 662 42 742 90 q 475 -7 582 -7 q 201 91 301 -7 q 100 367 100 189 l 100 557 l 140 557 q 283 601 235 557 q 332 749 332 646 l 332 878 l -29 878 l -29 1028 l 1347 1028 m 479 147 q 651 236 596 147 q 588 331 610 275 q 565 456 565 388 q 600 601 565 538 q 697 701 635 665 q 835 738 758 738 q 1015 656 954 738 l 1015 878 l 513 878 l 513 725 q 449 513 513 586 q 278 431 385 439 l 278 346 q 331 202 278 257 q 479 147 385 147 m 874 304 q 978 349 942 304 q 1015 454 1015 393 q 979 557 1015 513 q 874 601 943 601 q 768 563 811 601 q 725 456 725 524 q 767 344 725 385 q 874 304 808 304 m 446 -311 q 369 -280 400 -311 q 338 -204 338 -249 q 369 -127 338 -158 q 446 -96 400 -96 q 523 -127 492 -96 q 554 -204 554 -158 q 523 -280 554 -249 q 446 -311 492 -311 z "},"ग़":{"ha":1094,"x_min":-29,"x_max":1124,"o":"m 1124 1028 l 1124 878 l 969 878 l 969 0 l 790 0 l 790 878 l 588 878 l 588 540 q 523 340 588 417 q 325 264 458 264 q 126 335 196 264 q 56 532 56 406 q 57 575 56 561 l 231 575 l 231 532 q 252 449 231 482 q 319 417 274 417 q 408 533 408 417 l 408 878 l -29 878 l -29 1028 l 1124 1028 m 328 -47 q 251 -16 282 -47 q 219 60 219 15 q 251 137 219 106 q 328 168 282 168 q 405 137 374 168 q 436 60 436 106 q 405 -16 436 15 q 328 -47 374 -47 z "},"ज़":{"ha":1183,"x_min":-29,"x_max":1213,"o":"m 1213 878 l 1060 878 l 1060 0 l 879 0 l 879 531 l 681 531 l 681 454 q 644 299 681 367 q 541 194 608 232 q 383 156 474 156 q 163 238 240 156 q 85 454 85 319 l 85 683 l 264 683 l 264 460 q 296 352 264 392 q 383 313 328 313 q 474 352 442 313 q 506 460 506 392 l 506 683 l 879 683 l 879 878 l -29 878 l -29 1028 l 1213 1028 l 1213 878 m 386 -151 q 309 -120 340 -151 q 278 -44 278 -89 q 309 33 278 1 q 386 64 340 64 q 463 33 432 64 q 494 -44 494 1 q 463 -120 494 -89 q 386 -151 432 -151 z "},"ड़":{"ha":790,"x_min":-29,"x_max":818,"o":"m 401 624 q 315 605 350 624 q 281 540 281 586 q 310 477 281 497 q 389 457 340 457 l 450 457 q 655 400 572 457 q 738 217 738 343 q 658 40 738 106 q 432 -25 578 -25 q 182 47 278 -25 q 81 243 86 118 l 260 243 q 306 147 261 182 q 426 111 351 111 q 530 140 493 111 q 567 218 567 169 q 526 303 567 276 q 418 329 485 329 l 367 329 q 181 378 261 329 q 101 546 101 426 q 173 699 101 649 q 354 750 244 750 l 475 750 l 475 878 l -29 878 l -29 1028 l 818 1028 l 818 878 l 649 878 l 649 624 l 401 624 m 428 -332 q 351 -301 382 -332 q 319 -225 319 -269 q 351 -148 319 -179 q 428 -117 382 -117 q 505 -148 474 -117 q 536 -225 536 -179 q 505 -301 536 -269 q 428 -332 474 -332 z "},"ढ़":{"ha":903,"x_min":-29,"x_max":931,"o":"m 543 636 q 335 569 415 636 q 256 378 256 503 q 326 197 256 267 q 521 126 396 126 q 665 167 608 126 q 721 275 721 207 q 692 349 721 319 q 621 378 664 378 q 556 353 583 378 q 529 290 529 328 q 533 265 529 276 l 404 265 q 399 314 399 299 q 463 455 399 404 q 628 506 526 506 q 808 442 742 506 q 874 275 874 379 q 780 72 874 146 q 518 -3 686 -3 q 295 44 394 -3 q 139 178 196 90 q 82 385 82 265 q 135 589 82 504 q 279 717 188 674 q 488 760 371 760 l 525 760 l 525 878 l -29 878 l -29 1028 l 931 1028 l 931 878 l 694 878 l 694 636 l 543 636 m 488 -308 q 410 -277 442 -308 q 379 -201 379 -246 q 410 -124 379 -156 q 488 -93 442 -93 q 565 -124 533 -93 q 596 -201 596 -156 q 565 -277 596 -246 q 488 -308 533 -308 z "},"फ़":{"ha":1368,"x_min":-29,"x_max":1396,"o":"m 779 878 l 779 638 q 868 721 811 690 q 1003 751 925 751 q 1152 711 1088 751 q 1252 599 1217 671 q 1288 439 1288 528 q 1251 266 1288 339 q 1148 155 1214 193 q 999 117 1082 117 q 901 131 944 117 l 901 268 q 953 263 935 263 q 1063 309 1021 263 q 1106 431 1106 356 q 1061 551 1106 504 q 947 599 1017 599 q 822 542 864 599 q 779 399 779 485 l 779 0 l 600 0 l 600 332 q 396 242 531 242 q 179 336 256 242 q 103 586 103 431 l 103 878 l -29 878 l -29 1028 l 1396 1028 l 1396 878 l 779 878 m 600 878 l 282 878 l 282 586 q 322 444 282 496 q 442 393 361 393 q 558 442 517 393 q 600 567 600 492 l 600 878 m 332 -60 q 255 -28 286 -60 q 224 47 224 3 q 255 124 224 93 q 332 156 286 156 q 409 124 378 156 q 440 47 440 93 q 409 -28 440 3 q 332 -60 378 -60 z "},"ऱ":{"ha":739,"x_min":-29,"x_max":768,"o":"m 275 438 l 275 279 q 303 178 275 217 q 388 140 332 140 q 469 176 440 140 q 499 271 499 213 l 499 304 l 671 304 q 672 276 672 292 q 597 66 672 144 q 390 -12 522 -12 q 174 71 250 -12 q 97 288 97 154 l 97 582 l 240 582 q 402 633 351 582 q 453 782 453 683 l 453 878 l -29 878 l -29 1028 l 768 1028 l 768 878 l 632 878 l 632 782 q 306 438 632 438 l 275 438 m 154 -267 q 77 -235 108 -267 q 46 -160 46 -204 q 77 -83 46 -114 q 154 -51 108 -51 q 231 -83 200 -51 q 263 -160 263 -114 q 231 -235 263 -204 q 154 -267 200 -267 z "},"ं":{"ha":0,"x_min":-325,"x_max":-107,"o":"m -217 1140 q -294 1172 -262 1140 q -325 1249 -325 1204 q -294 1326 -325 1294 q -217 1357 -262 1357 q -139 1326 -171 1357 q -107 1249 -107 1294 q -139 1172 -107 1204 q -217 1140 -171 1140 z "},"ँ":{"ha":0,"x_min":-537,"x_max":89,"o":"m -225 1368 q -277 1390 -256 1368 q -299 1442 -299 1411 q -277 1494 -299 1472 q -225 1515 -256 1515 q -172 1494 -193 1515 q -150 1442 -150 1474 q -172 1389 -150 1410 q -225 1368 -193 1368 m -224 1131 q -456 1205 -375 1131 q -537 1406 -537 1279 l -394 1406 q -349 1301 -394 1344 q -224 1258 -304 1258 q -100 1301 -144 1258 q -56 1406 -56 1344 l 89 1406 q 8 1205 89 1279 q -224 1131 -72 1131 z "},"ः":{"ha":364,"x_min":74,"x_max":290,"o":"m 182 556 q 105 587 136 556 q 74 663 74 618 q 105 739 74 707 q 182 771 136 771 q 258 739 226 771 q 290 663 290 707 q 258 587 290 618 q 182 556 226 556 m 182 146 q 105 176 136 146 q 74 251 74 207 q 105 328 74 297 q 182 360 136 360 q 258 328 226 360 q 290 251 290 297 q 258 177 290 208 q 182 146 226 146 z "},"ऽ":{"ha":818,"x_min":89,"x_max":703,"o":"m 89 224 l 415 224 q 481 242 458 224 q 504 290 504 260 q 474 360 504 326 q 378 444 443 393 q 273 535 314 496 q 203 629 232 575 q 174 746 174 683 q 235 886 174 839 q 399 933 297 933 l 703 933 l 703 782 l 443 782 q 357 719 357 782 q 389 649 357 683 q 485 564 421 614 q 589 473 549 513 q 658 380 629 433 q 688 264 688 326 q 626 124 688 176 q 460 72 564 72 l 89 72 l 89 224 z "},"्":{"ha":0,"x_min":-300,"x_max":58,"o":"m -300 -79 l -122 -79 l 58 -376 l -125 -376 l -300 -79 z "},"़":{"ha":0,"x_min":-542,"x_max":-325,"o":"m -433 -304 q -510 -273 -479 -304 q -542 -197 -542 -242 q -510 -120 -542 -151 q -433 -89 -479 -89 q -356 -120 -387 -89 q -325 -197 -325 -151 q -356 -273 -325 -242 q -433 -304 -387 -304 z "},"०":{"ha":878,"x_min":65,"x_max":814,"o":"m 65 499 q 440 0 65 0 q 726 133 639 0 q 814 499 814 267 q 726 863 814 729 q 440 996 639 996 q 65 499 65 996 m 621 499 q 584 266 621 347 q 440 185 547 185 q 295 266 332 185 q 258 499 258 347 q 295 730 258 649 q 440 811 332 811 q 584 730 547 811 q 621 499 621 649 z "},"१":{"ha":458,"x_min":17,"x_max":369,"o":"m 17 797 l 17 981 l 369 981 l 369 0 l 164 0 l 164 797 l 17 797 z "},"२":{"ha":786,"x_min":51,"x_max":742,"o":"m 51 154 q 522 696 522 481 q 491 799 522 761 q 393 836 460 836 q 247 649 256 836 l 57 649 q 163 912 65 822 q 408 1001 260 1001 q 641 923 560 1001 q 722 714 722 844 q 662 508 722 611 q 508 317 601 404 q 313 168 415 231 l 742 168 l 742 8 l 51 8 l 51 154 z "},"३":{"ha":832,"x_min":60,"x_max":753,"o":"m 418 1018 q 590 983 518 1018 q 698 888 661 949 q 735 751 735 826 q 683 597 735 657 q 547 522 632 536 l 547 515 q 753 274 753 454 q 668 69 753 147 q 429 -10 583 -10 q 168 72 265 -10 q 60 317 71 153 l 251 317 q 301 198 258 242 q 421 154 343 154 q 525 191 488 154 q 563 288 563 228 q 508 396 563 358 q 349 433 454 433 l 308 433 l 308 593 l 349 593 q 543 728 543 590 q 508 822 543 788 q 414 856 474 856 q 311 816 351 856 q 265 706 271 776 l 74 706 q 171 937 82 856 q 418 1018 260 1018 z "},"४":{"ha":906,"x_min":54,"x_max":861,"o":"m 54 197 l 54 360 l 524 992 l 733 992 l 733 367 l 861 367 l 861 197 l 733 197 l 733 0 l 536 0 l 536 197 l 54 197 m 551 763 l 254 367 l 551 367 l 551 763 z "},"५":{"ha":879,"x_min":117,"x_max":815,"o":"m 767 828 l 301 828 l 301 581 q 390 641 333 618 q 514 664 446 664 q 683 620 615 664 q 783 503 750 576 q 815 342 815 431 q 727 90 815 185 q 475 -4 639 -4 q 289 34 368 -4 q 165 141 210 72 q 117 301 121 210 l 307 301 q 358 202 318 239 q 465 165 399 165 q 585 215 546 165 q 625 346 625 264 q 583 467 625 424 q 465 510 542 510 q 371 485 410 510 q 314 421 332 461 l 124 421 l 124 1000 l 767 1000 l 767 828 z "},"६":{"ha":868,"x_min":82,"x_max":799,"o":"m 585 714 q 438 858 563 858 q 296 773 340 858 q 257 506 251 688 q 344 612 279 572 q 494 651 408 651 q 717 566 636 651 q 799 324 799 481 q 760 151 799 226 q 644 33 721 76 q 457 -10 567 -10 q 163 123 243 -10 q 82 489 82 256 q 169 886 82 757 q 450 1015 256 1015 q 678 931 599 1015 q 768 714 757 846 l 585 714 m 274 338 q 319 209 274 260 q 451 158 364 158 q 571 203 526 158 q 615 326 615 247 q 570 454 615 410 q 449 499 525 499 q 325 457 376 499 q 274 338 274 415 z "},"७":{"ha":706,"x_min":22,"x_max":675,"o":"m 675 843 l 317 0 l 114 0 l 476 821 l 22 821 l 22 989 l 675 989 l 675 843 z "},"८":{"ha":885,"x_min":71,"x_max":814,"o":"m 94 757 q 134 889 94 828 q 252 988 174 950 q 442 1025 331 1025 q 631 988 553 1025 q 749 889 710 950 q 789 757 789 828 q 750 620 789 676 q 633 536 711 564 q 767 440 721 503 q 814 286 814 376 q 765 119 814 189 q 633 13 717 49 q 442 -24 549 -24 q 251 13 335 -24 q 119 119 167 49 q 71 286 71 189 q 117 440 71 376 q 251 536 164 503 q 134 621 174 564 q 94 757 94 678 m 288 725 q 329 622 288 658 q 442 586 371 586 q 556 622 514 586 q 597 725 597 658 q 555 828 597 792 q 442 865 513 865 q 330 828 372 865 q 288 725 288 792 m 261 297 q 310 181 261 224 q 442 138 358 138 q 574 181 525 138 q 624 297 624 224 q 573 412 624 372 q 442 451 522 451 q 312 412 363 451 q 261 297 261 372 z "},"९":{"ha":839,"x_min":58,"x_max":775,"o":"m 272 292 q 422 147 294 147 q 563 233 519 147 q 600 500 606 318 q 513 394 578 433 q 363 354 449 354 q 140 440 221 354 q 58 682 58 525 q 97 853 58 778 q 213 972 136 929 q 400 1015 290 1015 q 694 885 614 1015 q 775 525 775 756 q 694 126 775 263 q 422 -10 613 -10 q 248 31 321 -10 q 135 140 175 71 q 89 292 96 208 l 272 292 m 583 668 q 538 797 583 746 q 406 847 493 847 q 286 803 331 847 q 242 679 242 758 q 287 551 242 596 q 408 506 332 506 q 531 548 479 506 q 583 668 583 590 z "},"ॐ":{"ha":1481,"x_min":101,"x_max":1374,"o":"m 788 1256 q 735 1277 757 1256 q 714 1329 714 1299 q 735 1383 714 1361 q 788 1404 757 1404 q 840 1383 819 1404 q 861 1329 861 1361 q 840 1276 861 1297 q 788 1256 819 1256 m 788 1018 q 555 1092 636 1018 q 474 1293 474 1167 l 617 1293 q 662 1190 617 1232 q 788 1147 707 1147 q 912 1190 867 1147 q 957 1293 957 1232 l 1101 1293 q 1020 1092 1101 1167 q 788 1018 939 1018 m 1082 950 q 1305 863 1236 950 q 1374 607 1374 776 l 1374 429 q 1282 128 1374 231 q 1007 26 1190 26 q 867 40 953 26 l 867 189 q 975 179 939 179 q 1150 244 1100 179 q 1200 436 1200 308 l 1200 629 q 1173 754 1200 711 q 1082 797 1146 797 q 968 657 968 797 q 942 494 968 556 q 856 405 915 433 q 697 374 797 376 q 710 290 710 335 q 673 145 710 207 q 570 49 636 83 q 419 15 504 15 q 253 51 325 15 q 141 153 181 88 q 101 303 101 218 l 268 303 q 308 208 268 246 q 408 169 347 169 q 508 208 471 169 q 544 307 544 246 q 506 406 544 365 q 390 446 467 446 l 331 446 l 331 597 l 390 597 q 494 633 457 597 q 532 724 532 669 q 496 816 532 782 q 404 850 460 850 q 313 818 349 850 q 276 732 276 786 l 110 732 q 147 874 110 813 q 253 970 185 936 q 408 1004 321 1004 q 616 934 538 1004 q 694 747 694 864 q 654 609 694 667 q 539 529 614 551 l 539 526 q 576 514 560 522 l 657 514 q 767 545 733 514 q 800 660 800 576 q 866 875 800 800 q 1082 950 932 950 z "},"॰":{"ha":671,"x_min":100,"x_max":571,"o":"m 571 472 q 506 308 571 372 q 338 244 440 244 q 167 308 233 244 q 100 474 100 372 q 167 639 100 575 q 338 703 233 703 q 506 638 440 703 q 571 472 571 574 m 210 474 q 246 386 210 419 q 338 353 282 353 q 425 386 390 353 q 460 472 460 419 q 425 561 460 526 q 338 596 390 596 q 246 561 282 596 q 210 474 210 526 z "},"।":{"ha":446,"x_min":210,"x_max":388,"o":"m 388 0 l 210 0 l 210 1029 l 388 1029 l 388 0 z "},"॥":{"ha":792,"x_min":210,"x_max":733,"o":"m 388 0 l 210 0 l 210 1029 l 388 1029 l 388 0 m 733 0 l 554 0 l 554 1029 l 733 1029 l 733 0 z "},"₨":{"ha":1574,"x_min":89,"x_max":1524,"o":"m 813 678 q 751 492 813 567 q 572 392 689 417 l 817 0 l 600 0 l 371 382 l 285 382 l 285 0 l 89 0 l 89 981 l 463 981 q 723 897 633 981 q 813 678 813 814 m 285 517 l 446 517 q 614 665 614 517 q 573 776 614 736 q 446 815 532 815 l 285 815 l 285 517 m 1054 547 q 1098 484 1054 504 q 1235 444 1142 464 q 1383 405 1325 425 q 1482 340 1440 385 q 1524 218 1524 294 q 1490 101 1524 153 q 1391 20 1456 50 q 1239 -10 1326 -10 q 994 58 1089 -10 q 882 250 900 126 l 1074 250 q 1124 167 1081 197 q 1238 136 1168 136 q 1318 160 1290 136 q 1346 222 1346 183 q 1322 274 1346 254 q 1263 304 1299 293 q 1164 329 1228 315 q 1017 369 1074 349 q 921 433 961 389 q 881 554 881 478 q 915 669 881 618 q 1016 750 950 721 q 1174 779 1082 779 q 1408 708 1321 779 q 1517 519 1496 638 l 1324 519 q 1275 602 1315 571 q 1171 633 1235 633 q 1085 610 1117 633 q 1054 547 1054 588 z "},"₹":{"ha":856,"x_min":61,"x_max":794,"o":"m 653 850 l 653 731 l 794 731 l 794 618 l 649 618 q 544 429 632 493 q 275 365 456 365 l 275 278 q 394 133 275 133 q 481 169 453 133 q 510 278 510 206 l 692 278 q 613 63 686 140 q 403 -14 539 -14 q 172 66 251 -14 q 92 306 92 146 l 92 493 q 318 502 243 493 q 426 538 393 511 q 467 618 458 564 l 61 618 l 61 731 l 469 731 l 469 850 l 61 850 l 61 981 l 794 981 l 794 850 l 653 850 z "},"‌":{"ha":0,"x_min":-32,"x_max":33,"o":"m -32 1126 l 33 1126 l 33 -319 l -32 -319 l -32 1126 z "},"‍":{"ha":0,"x_min":-178,"x_max":178,"o":"m 32 882 l 32 -319 l -33 -319 l -33 882 l -129 781 l -175 826 l -46 956 l -178 1088 l -132 1133 l 0 1001 l 133 1133 l 178 1089 l 44 956 l 178 824 l 132 778 l 32 882 z "},"◌":{"ha":904,"x_min":69,"x_max":835,"o":"m 418 633 q 375 649 392 633 q 358 692 358 665 q 375 734 358 718 q 418 750 392 750 q 461 734 444 750 q 478 692 478 718 q 461 649 478 665 q 418 633 444 633 m 586 613 q 543 628 560 613 q 526 671 526 644 q 543 713 526 697 q 586 729 560 729 q 629 713 613 729 q 646 671 646 697 q 629 628 646 644 q 586 613 613 613 m 256 575 q 213 591 229 575 q 196 633 196 607 q 213 676 196 660 q 256 692 229 692 q 299 676 282 692 q 315 633 315 660 q 299 591 315 607 q 256 575 282 575 m 714 510 q 671 526 688 510 q 654 568 654 542 q 671 610 654 594 q 714 626 688 626 q 757 610 740 626 q 774 568 774 594 q 757 526 774 542 q 714 510 740 510 m 150 438 q 107 453 124 438 q 90 496 90 469 q 107 538 90 522 q 150 554 124 554 q 193 538 176 554 q 210 496 210 522 q 193 453 210 469 q 150 438 176 438 m 775 351 q 732 367 749 351 q 715 410 715 383 q 732 452 715 436 q 775 468 749 468 q 818 452 801 468 q 835 410 835 436 q 818 367 835 383 q 775 351 801 351 m 129 269 q 86 285 103 269 q 69 328 69 301 q 86 370 69 354 q 129 386 103 386 q 172 370 156 386 q 189 328 189 354 q 172 285 189 301 q 129 269 156 269 m 761 185 q 718 201 735 185 q 701 243 701 217 q 718 285 701 269 q 761 301 735 301 q 804 285 788 301 q 821 243 821 269 q 804 201 821 217 q 761 185 788 185 m 192 113 q 149 128 165 113 q 132 171 132 144 q 149 213 132 197 q 192 229 165 229 q 235 213 218 229 q 251 171 251 197 q 235 128 251 144 q 192 113 218 113 m 660 51 q 617 67 633 51 q 600 110 600 83 q 617 152 600 136 q 660 168 633 168 q 703 152 686 168 q 719 110 719 136 q 703 67 719 83 q 660 51 686 51 m 328 7 q 285 23 301 7 q 268 65 268 39 q 285 108 268 92 q 328 124 301 124 q 371 108 354 124 q 388 65 388 92 q 371 23 388 39 q 328 7 354 7 m 500 -12 q 457 3 474 -12 q 440 46 440 19 q 457 88 440 72 q 500 104 474 104 q 543 88 526 104 q 560 46 560 72 q 543 3 560 19 q 500 -12 526 -12 z "},"!":{"ha":488,"x_min":144,"x_max":360,"o":"m 360 1021 l 335 326 l 169 326 l 144 1021 l 360 1021 m 358 204 l 358 0 l 147 0 l 147 204 l 358 204 z "},"\"":{"ha":517,"x_min":60,"x_max":457,"o":"m 222 1110 l 208 814 l 76 814 l 60 1110 l 222 1110 m 457 1110 l 443 814 l 311 814 l 294 1110 l 457 1110 z "},"#":{"ha":1190,"x_min":31,"x_max":1160,"o":"m 938 610 l 896 419 l 1075 419 l 1075 242 l 858 242 l 807 0 l 625 0 l 676 242 l 421 242 l 369 0 l 188 0 l 239 242 l 31 242 l 31 419 l 276 419 l 318 610 l 115 610 l 115 788 l 356 788 l 407 1028 l 589 1028 l 538 788 l 793 788 l 844 1028 l 1026 1028 l 975 788 l 1160 788 l 1160 610 l 938 610 m 756 610 l 500 610 l 458 419 l 714 419 l 756 610 z "},"$":{"ha":851,"x_min":58,"x_max":796,"o":"m 485 565 q 646 506 583 535 q 752 419 708 476 q 796 268 796 361 q 757 130 796 193 q 640 28 718 67 q 451 -10 563 -10 l 450 -10 l 450 -121 l 397 -121 l 397 -7 q 162 83 253 6 q 61 283 71 160 l 269 283 q 308 195 275 233 q 397 146 342 157 l 397 418 l 369 426 q 208 484 269 456 q 102 570 146 513 q 58 722 58 628 q 102 865 58 804 q 223 960 146 926 q 397 994 300 993 l 397 1111 l 450 1111 l 450 993 q 680 909 594 983 q 776 719 765 835 l 565 719 q 528 798 558 765 q 450 840 499 831 l 450 576 l 485 565 m 268 731 q 301 649 268 681 q 397 594 335 618 l 397 844 q 302 813 336 842 q 268 731 268 783 m 450 140 q 550 176 514 142 q 586 264 586 210 q 551 347 586 315 q 450 400 515 378 l 450 140 z "},"%":{"ha":1040,"x_min":39,"x_max":1001,"o":"m 260 996 q 419 937 357 996 q 481 774 481 878 q 419 610 481 669 q 260 551 357 551 q 101 610 163 551 q 39 774 39 669 q 101 937 39 878 q 260 996 163 996 m 888 983 l 342 0 l 153 0 l 699 983 l 888 983 m 171 774 q 194 698 171 726 q 258 669 218 669 q 324 698 299 669 q 349 774 349 726 q 324 849 349 821 q 258 878 299 878 q 194 849 218 878 q 171 774 171 821 m 782 432 q 940 373 879 432 q 1001 210 1001 314 q 940 47 1001 106 q 782 -12 879 -12 q 623 47 685 -12 q 561 210 561 106 q 623 373 561 314 q 782 432 685 432 m 693 210 q 717 133 693 161 q 781 104 740 104 q 846 133 821 104 q 871 210 871 161 q 846 286 871 257 q 781 315 821 315 q 717 287 740 315 q 693 210 693 258 z "},"&":{"ha":957,"x_min":43,"x_max":951,"o":"m 754 0 l 604 175 q 585 132 593 147 q 497 29 560 68 q 351 -10 435 -10 q 188 29 258 -10 q 81 135 118 68 q 43 289 43 203 q 76 438 43 374 q 165 537 108 501 q 290 575 221 572 l 274 600 q 231 677 246 639 q 215 763 215 715 q 247 874 215 822 q 340 958 278 926 q 488 990 401 990 q 678 935 611 990 q 765 792 746 879 q 779 703 779 750 l 778 676 l 596 676 q 593 724 596 711 q 565 801 592 774 q 492 828 539 828 q 424 803 449 828 q 399 742 399 778 q 411 686 399 710 q 453 628 424 663 l 951 0 l 754 0 m 353 154 q 451 191 413 154 q 489 286 489 228 q 445 388 489 347 q 342 428 401 428 q 248 393 285 428 q 211 294 211 358 q 252 192 211 231 q 353 154 293 154 z "},"'":{"ha":288,"x_min":60,"x_max":228,"o":"m 228 1110 l 210 814 l 78 814 l 60 1110 l 228 1110 z "},"(":{"ha":556,"x_min":44,"x_max":608,"o":"m 44 558 q 147 1035 44 824 q 418 1376 250 1246 l 608 1376 l 608 1357 q 233 558 233 1047 q 608 -240 233 69 l 608 -258 l 418 -258 q 147 83 250 -128 q 44 558 44 293 z "},")":{"ha":558,"x_min":-50,"x_max":514,"o":"m 514 560 q 411 82 514 293 q 140 -258 308 -129 l -50 -258 l -50 -240 q 325 558 325 69 q -50 1357 325 1047 l -50 1376 l 140 1376 q 411 1035 308 1246 q 514 560 514 825 z "},"*":{"ha":706,"x_min":92,"x_max":622,"o":"m 553 954 l 622 828 l 440 763 l 622 699 l 549 568 l 400 693 l 432 500 l 288 500 l 318 693 l 168 567 l 92 699 l 274 764 l 94 828 l 165 954 l 318 832 l 286 1025 l 432 1025 l 400 832 l 553 954 z "},"+":{"ha":786,"x_min":39,"x_max":747,"o":"m 747 404 l 488 404 l 488 140 l 299 140 l 299 404 l 39 404 l 39 583 l 299 583 l 299 849 l 488 849 l 488 583 l 747 583 l 747 404 z "},",":{"ha":297,"x_min":42,"x_max":246,"o":"m 213 126 q 246 -25 246 51 q 201 -167 246 -111 q 61 -222 156 -222 l 61 -147 q 114 -130 97 -147 q 131 -68 131 -112 l 131 -54 l 42 -54 l 42 126 l 213 126 z "},"-":{"ha":726,"x_min":-3,"x_max":588,"o":"m 588 576 l 588 414 l -3 414 l -3 576 l 588 576 z "},".":{"ha":293,"x_min":40,"x_max":251,"o":"m 251 204 l 251 0 l 40 0 l 40 204 l 251 204 z "},"/":{"ha":532,"x_min":-14,"x_max":551,"o":"m 551 1315 l 175 -251 l -14 -251 l 363 1315 l 551 1315 z "},":":{"ha":339,"x_min":69,"x_max":281,"o":"m 281 782 l 281 578 l 69 578 l 69 782 l 281 782 m 281 204 l 281 0 l 69 0 l 69 204 l 281 204 z "},";":{"ha":439,"x_min":126,"x_max":339,"o":"m 338 775 l 338 571 l 126 571 l 126 775 l 338 775 m 306 126 q 339 -25 339 51 q 294 -167 339 -111 q 154 -222 249 -222 l 154 -147 q 207 -130 190 -147 q 224 -68 224 -112 l 224 -54 l 135 -54 l 135 126 l 306 126 z "},"<":{"ha":626,"x_min":39,"x_max":588,"o":"m 342 183 l 39 494 l 342 807 l 588 807 l 283 494 l 588 183 l 342 183 z "},"=":{"ha":835,"x_min":39,"x_max":796,"o":"m 796 749 l 796 571 l 39 571 l 39 749 l 796 749 m 796 417 l 796 240 l 39 240 l 39 417 l 796 417 z "},">":{"ha":626,"x_min":39,"x_max":588,"o":"m 39 807 l 283 807 l 588 494 l 283 183 l 39 183 l 342 494 l 39 807 z "},"?":{"ha":717,"x_min":31,"x_max":678,"o":"m 364 1039 q 592 964 506 1039 q 678 751 678 889 q 590 539 678 613 q 353 463 501 465 l 353 322 l 168 322 l 168 590 l 247 590 q 422 624 360 590 q 485 750 485 658 q 450 845 485 811 q 357 879 415 879 q 256 842 293 879 q 218 747 218 806 l 33 747 q 69 897 31 831 q 184 1001 108 963 q 364 1039 260 1039 m 368 204 l 368 0 l 157 0 l 157 204 l 368 204 z "},"@":{"ha":1696,"x_min":64,"x_max":1650,"o":"m 938 1124 q 1319 1048 1158 1124 q 1565 828 1479 972 q 1650 485 1650 685 q 1595 233 1650 347 q 1449 54 1540 119 q 1251 -11 1357 -11 q 1101 32 1158 -11 q 1035 167 1043 75 q 917 35 988 81 q 747 -11 847 -11 q 595 30 661 -11 q 492 145 529 71 q 456 317 456 219 q 457 363 456 347 q 524 577 465 482 q 680 726 583 672 q 893 779 776 779 q 1134 698 1044 779 q 1224 478 1224 617 q 1219 417 1224 449 l 1197 267 q 1194 233 1194 242 q 1212 176 1194 193 q 1265 160 1229 160 q 1356 197 1314 160 q 1425 305 1399 233 q 1451 478 1451 376 q 1389 733 1451 624 q 1205 903 1326 843 q 908 964 1083 964 q 555 879 703 964 q 331 647 407 794 q 254 318 254 500 q 403 -73 254 65 q 839 -211 553 -211 l 803 -371 q 401 -286 567 -368 q 150 -51 236 -204 q 64 318 64 103 q 179 741 64 558 q 494 1024 294 924 q 938 1124 693 1124 m 1033 429 q 986 563 1033 517 q 860 610 939 610 q 752 578 801 610 q 674 488 703 547 q 644 346 644 428 q 692 208 644 257 q 814 160 740 160 q 921 191 871 160 q 1002 283 971 222 q 1033 429 1033 343 z "},"A":{"ha":978,"x_min":17,"x_max":961,"o":"m 686 197 l 293 197 l 224 0 l 17 0 l 378 969 l 601 969 l 961 0 l 754 0 l 686 197 m 633 346 l 489 760 l 344 346 l 633 346 z "},"B":{"ha":881,"x_min":89,"x_max":832,"o":"m 636 506 q 778 422 725 488 q 832 267 832 356 q 749 72 832 143 q 510 0 667 0 l 89 0 l 89 981 l 501 981 q 730 915 650 981 q 810 732 810 850 q 762 582 810 640 q 636 506 714 524 m 285 569 l 461 569 q 573 602 535 569 q 611 696 611 635 q 574 790 611 757 q 458 824 536 824 l 285 824 l 285 569 m 471 160 q 590 194 549 160 q 632 293 632 228 q 590 394 632 358 q 469 429 547 429 l 285 429 l 285 160 l 471 160 z "},"C":{"ha":1054,"x_min":58,"x_max":996,"o":"m 532 990 q 836 896 715 990 q 996 639 957 801 l 790 639 q 691 764 758 718 q 529 810 624 810 q 389 771 451 810 q 292 660 326 732 q 257 490 257 588 q 292 322 257 394 q 389 211 326 250 q 529 172 451 172 q 691 218 624 172 q 790 343 758 264 l 996 343 q 836 86 957 181 q 532 -8 715 -8 q 284 55 392 -8 q 117 232 176 118 q 58 490 58 346 q 117 750 58 636 q 283 927 176 864 q 532 990 390 990 z "},"D":{"ha":1010,"x_min":89,"x_max":951,"o":"m 951 492 q 890 235 951 346 q 713 62 829 124 q 438 0 597 0 l 89 0 l 89 981 l 438 981 q 713 920 597 981 q 890 749 829 860 q 951 492 951 639 m 421 175 q 666 258 579 175 q 753 492 753 342 q 666 726 753 643 q 421 810 579 810 l 285 810 l 285 175 l 421 175 z "},"E":{"ha":729,"x_min":89,"x_max":674,"o":"m 285 825 l 285 571 l 632 571 l 632 421 l 285 421 l 285 157 l 674 157 l 674 0 l 89 0 l 89 981 l 674 981 l 674 825 l 285 825 z "},"F":{"ha":740,"x_min":89,"x_max":697,"o":"m 697 981 l 697 825 l 285 825 l 285 563 l 615 563 l 615 413 l 285 413 l 285 0 l 89 0 l 89 981 l 697 981 z "},"G":{"ha":1067,"x_min":58,"x_max":1008,"o":"m 543 990 q 840 902 722 990 q 992 664 958 814 l 786 664 q 694 770 757 731 q 544 810 631 810 q 394 771 460 810 q 293 660 329 732 q 257 490 257 588 q 340 250 257 336 q 565 164 422 164 q 747 226 671 164 q 844 400 822 289 l 513 400 l 513 540 l 1008 540 l 1008 351 q 927 172 988 254 q 769 41 867 90 q 544 -8 671 -8 q 290 55 400 -8 q 119 231 179 118 q 58 490 58 344 q 119 749 58 636 q 289 926 179 863 q 543 990 399 990 z "},"H":{"ha":990,"x_min":89,"x_max":901,"o":"m 901 981 l 901 0 l 704 0 l 704 426 l 285 426 l 285 0 l 89 0 l 89 981 l 285 981 l 285 583 l 704 583 l 704 981 l 901 981 z "},"I":{"ha":374,"x_min":89,"x_max":285,"o":"m 285 981 l 285 0 l 89 0 l 89 981 l 285 981 z "},"J":{"ha":728,"x_min":25,"x_max":646,"o":"m 646 981 l 646 289 q 567 69 646 147 q 350 -10 489 -10 q 113 76 200 -10 q 25 322 25 163 l 218 322 q 249 207 218 247 q 342 167 281 167 q 424 199 397 167 q 450 289 450 232 l 450 981 l 646 981 z "},"K":{"ha":904,"x_min":89,"x_max":885,"o":"m 469 499 l 885 0 l 647 0 l 285 449 l 285 0 l 89 0 l 89 981 l 285 981 l 285 540 l 649 981 l 885 981 l 469 499 z "},"L":{"ha":642,"x_min":89,"x_max":614,"o":"m 285 150 l 614 150 l 614 0 l 89 0 l 89 981 l 285 981 l 285 150 z "},"M":{"ha":1235,"x_min":89,"x_max":1146,"o":"m 1146 969 l 1146 0 l 951 0 l 951 676 l 703 0 l 533 0 l 285 674 l 285 0 l 89 0 l 89 969 l 326 969 l 621 240 l 910 969 l 1146 969 z "},"N":{"ha":1008,"x_min":89,"x_max":919,"o":"m 919 0 l 724 0 l 285 667 l 285 0 l 89 0 l 89 981 l 285 981 l 724 308 l 724 981 l 919 981 l 919 0 z "},"O":{"ha":1097,"x_min":58,"x_max":1039,"o":"m 549 994 q 798 931 686 994 q 974 752 910 867 q 1039 493 1039 638 q 974 233 1039 349 q 798 54 910 118 q 549 -10 686 -10 q 299 54 411 -10 q 123 233 188 118 q 58 493 58 349 q 123 752 58 638 q 299 931 188 867 q 549 994 411 994 m 549 814 q 397 775 463 814 q 295 663 332 736 q 258 493 258 590 q 295 323 258 396 q 397 211 332 250 q 549 172 463 172 q 700 211 635 172 q 802 323 765 250 q 839 493 839 396 q 802 663 839 590 q 700 775 765 736 q 549 814 635 814 z "},"P":{"ha":835,"x_min":89,"x_max":796,"o":"m 285 364 l 285 0 l 89 0 l 89 981 l 446 981 q 708 897 619 981 q 796 671 796 814 q 705 447 796 531 q 446 364 614 364 l 285 364 m 425 521 q 597 671 597 521 q 557 783 597 744 q 425 822 517 822 l 285 822 l 285 521 l 425 521 z "},"Q":{"ha":1097,"x_min":58,"x_max":1061,"o":"m 824 -179 l 671 4 q 549 -10 615 -10 q 299 54 411 -10 q 123 233 188 118 q 58 493 58 349 q 123 752 58 638 q 299 931 188 867 q 549 994 411 994 q 798 931 686 994 q 974 752 910 867 q 1039 493 1039 638 q 983 249 1039 358 q 829 74 928 140 l 1061 -179 l 824 -179 m 258 493 q 295 323 258 396 q 397 211 332 250 q 549 172 463 172 q 700 211 635 172 q 802 323 765 250 q 839 493 839 396 q 802 663 839 590 q 700 775 765 736 q 549 814 635 814 q 397 775 463 814 q 295 663 332 736 q 258 493 258 590 z "},"R":{"ha":856,"x_min":89,"x_max":817,"o":"m 600 0 l 371 382 l 285 382 l 285 0 l 89 0 l 89 981 l 463 981 q 723 897 633 981 q 813 678 813 814 q 751 492 813 567 q 572 392 689 417 l 817 0 l 600 0 m 285 517 l 446 517 q 614 665 614 517 q 573 776 614 736 q 446 815 532 815 l 285 815 l 285 517 z "},"S":{"ha":818,"x_min":58,"x_max":763,"o":"m 763 268 q 725 130 763 193 q 614 28 688 67 q 435 -10 540 -10 q 249 26 331 -10 q 117 128 167 61 q 61 283 68 194 l 269 283 q 317 184 276 224 q 426 144 358 144 q 520 177 488 144 q 553 261 553 210 q 526 337 553 307 q 460 385 500 367 q 349 426 419 403 q 199 487 257 457 q 99 574 140 517 q 58 722 58 631 q 149 922 58 849 q 390 994 240 994 q 638 919 546 994 q 743 719 731 844 l 532 719 q 488 806 524 772 q 389 840 451 840 q 301 812 335 840 q 268 729 268 783 q 294 658 268 686 q 359 611 319 629 q 467 571 399 593 q 620 508 561 538 q 721 421 679 479 q 763 268 763 363 z "},"T":{"ha":775,"x_min":19,"x_max":756,"o":"m 756 981 l 756 825 l 485 825 l 485 0 l 289 0 l 289 825 l 19 825 l 19 981 l 756 981 z "},"U":{"ha":949,"x_min":83,"x_max":865,"o":"m 278 981 l 278 406 q 328 233 278 290 q 475 175 379 175 q 620 233 569 175 q 671 406 671 290 l 671 981 l 865 981 l 865 406 q 815 176 865 269 q 674 36 764 82 q 471 -10 585 -10 q 189 96 294 -10 q 83 406 83 201 l 83 981 l 278 981 z "},"V":{"ha":979,"x_min":17,"x_max":963,"o":"m 226 981 l 489 204 l 753 981 l 963 981 l 615 0 l 364 0 l 17 981 l 226 981 z "},"W":{"ha":1419,"x_min":44,"x_max":1375,"o":"m 1375 981 l 1135 0 l 893 0 l 710 711 l 525 0 l 285 0 l 44 981 l 257 981 l 407 221 l 601 981 l 817 981 l 1013 221 l 1163 981 l 1375 981 z "},"X":{"ha":914,"x_min":17,"x_max":897,"o":"m 665 0 l 444 335 l 249 0 l 25 0 l 333 501 l 17 981 l 249 981 l 465 653 l 658 981 l 882 981 l 575 488 l 897 0 l 665 0 z "},"Y":{"ha":896,"x_min":17,"x_max":879,"o":"m 879 981 l 547 343 l 547 0 l 350 0 l 350 343 l 17 981 l 242 981 l 450 551 l 658 981 l 879 981 z "},"Z":{"ha":796,"x_min":61,"x_max":735,"o":"m 278 158 l 735 158 l 735 0 l 61 0 l 61 150 l 508 824 l 68 824 l 68 981 l 729 981 l 729 831 l 278 158 z "},"[":{"ha":565,"x_min":126,"x_max":497,"o":"m 497 1315 l 497 1157 l 311 1157 l 311 -93 l 497 -93 l 497 -251 l 126 -251 l 126 1315 l 497 1315 z "},"\\":{"ha":994,"x_min":183,"x_max":768,"o":"m 581 -251 l 183 1315 l 372 1315 l 768 -251 l 581 -251 z "},"]":{"ha":564,"x_min":67,"x_max":438,"o":"m 67 -251 l 67 -93 l 254 -93 l 254 1157 l 67 1157 l 67 1315 l 438 1315 l 438 -251 l 67 -251 z "},"^":{"ha":939,"x_min":43,"x_max":896,"o":"m 238 232 l 43 232 l 376 972 l 564 972 l 896 232 l 701 232 l 471 746 l 238 232 z "},"_":{"ha":933,"x_min":63,"x_max":878,"o":"m 878 -51 l 878 -242 l 63 -242 l 63 -51 l 878 -51 z "},"`":{"ha":418,"x_min":31,"x_max":350,"o":"m 350 961 l 350 828 l 31 978 l 31 1128 l 350 961 z "},"a":{"ha":939,"x_min":50,"x_max":850,"o":"m 390 779 q 557 733 488 779 q 656 610 626 688 l 656 769 l 850 769 l 850 0 l 656 0 l 656 161 q 557 37 626 83 q 390 -10 488 -10 q 215 38 293 -10 q 94 174 138 85 q 50 385 50 264 q 94 595 50 506 q 215 732 138 685 q 390 779 293 779 m 451 608 q 304 549 360 608 q 249 385 249 489 q 304 222 249 281 q 451 163 360 163 q 598 223 540 163 q 656 385 656 283 q 598 548 656 488 q 451 608 540 608 z "},"b":{"ha":939,"x_min":89,"x_max":889,"o":"m 549 779 q 724 732 646 779 q 845 595 801 685 q 889 385 889 506 q 845 174 889 264 q 724 38 801 85 q 549 -10 646 -10 q 383 37 451 -10 q 285 161 314 83 l 285 0 l 89 0 l 89 1028 l 285 1028 l 285 610 q 383 733 314 688 q 549 779 451 779 m 488 608 q 341 548 399 608 q 283 385 283 488 q 341 223 283 283 q 488 163 399 163 q 635 222 579 163 q 690 385 690 281 q 635 549 690 489 q 488 608 579 608 z "},"c":{"ha":857,"x_min":50,"x_max":807,"o":"m 435 779 q 683 699 583 779 q 807 479 782 618 l 600 479 q 543 576 588 540 q 431 611 499 611 q 301 553 353 611 q 249 385 249 496 q 301 216 249 274 q 431 158 353 158 q 543 194 499 158 q 600 290 588 229 l 807 290 q 683 71 782 151 q 435 -10 583 -10 q 235 38 322 -10 q 99 175 147 86 q 50 385 50 264 q 99 595 50 506 q 235 732 147 685 q 435 779 322 779 z "},"d":{"ha":939,"x_min":50,"x_max":850,"o":"m 390 779 q 556 733 488 779 q 656 610 625 688 l 656 1028 l 850 1028 l 850 0 l 656 0 l 656 161 q 556 37 625 83 q 390 -10 488 -10 q 215 38 293 -10 q 94 174 138 85 q 50 385 50 264 q 94 595 50 506 q 215 732 138 685 q 390 779 293 779 m 451 608 q 304 549 360 608 q 249 385 249 489 q 304 222 249 281 q 451 163 360 163 q 598 223 540 163 q 656 385 656 283 q 598 548 656 488 q 451 608 540 608 z "},"e":{"ha":863,"x_min":50,"x_max":813,"o":"m 813 414 q 806 347 813 385 l 242 347 q 297 196 246 244 q 425 147 349 147 q 538 181 493 147 q 596 271 583 214 l 803 271 q 738 126 788 190 q 609 26 688 63 q 435 -10 531 -10 q 235 38 322 -10 q 99 175 147 86 q 50 385 50 264 q 99 595 50 506 q 235 732 147 685 q 435 779 322 779 q 634 732 549 779 q 766 602 719 685 q 813 414 813 519 m 615 433 q 566 576 619 528 q 435 625 513 625 q 301 576 356 625 q 242 433 247 528 l 615 433 z "},"f":{"ha":497,"x_min":19,"x_max":469,"o":"m 469 903 q 349 878 383 908 q 314 771 314 847 l 314 769 l 469 769 l 469 604 l 314 604 l 314 0 l 118 0 l 118 604 l 19 604 l 19 769 l 118 769 l 118 788 q 197 999 118 925 q 429 1074 275 1074 q 469 1072 456 1074 l 469 903 z "},"g":{"ha":939,"x_min":50,"x_max":850,"o":"m 390 779 q 557 733 488 779 q 656 610 626 688 l 656 769 l 850 769 l 850 -3 q 808 -195 850 -110 q 681 -329 765 -281 q 478 -378 597 -378 q 208 -299 311 -378 q 83 -83 106 -219 l 276 -83 q 341 -174 293 -142 q 464 -207 389 -207 q 603 -156 550 -207 q 656 -3 656 -106 l 656 161 q 557 37 626 83 q 390 -10 488 -10 q 215 38 293 -10 q 94 174 138 85 q 50 385 50 264 q 94 595 50 506 q 215 732 138 685 q 390 779 293 779 m 451 608 q 304 549 360 608 q 249 385 249 489 q 304 222 249 281 q 451 163 360 163 q 598 223 540 163 q 656 385 656 283 q 598 548 656 488 q 451 608 540 608 z "},"h":{"ha":922,"x_min":89,"x_max":839,"o":"m 547 781 q 760 693 681 781 q 839 447 839 606 l 839 0 l 644 0 l 644 425 q 597 567 644 517 q 468 618 550 618 q 335 564 385 618 q 285 408 285 510 l 285 0 l 89 0 l 89 1028 l 285 1028 l 285 615 q 385 737 315 693 q 547 781 456 781 z "},"i":{"ha":374,"x_min":67,"x_max":308,"o":"m 67 990 q 100 1067 67 1038 q 188 1097 133 1097 q 275 1067 242 1097 q 308 990 308 1038 q 275 915 308 944 q 188 885 242 885 q 100 915 133 885 q 67 990 67 944 m 285 769 l 285 0 l 89 0 l 89 769 l 285 769 z "},"j":{"ha":378,"x_min":-42,"x_max":313,"o":"m 192 885 q 104 915 138 885 q 71 990 71 944 q 104 1067 71 1038 q 192 1097 138 1097 q 279 1067 246 1097 q 313 990 313 1036 q 279 915 313 944 q 192 885 246 885 m -42 -197 l 14 -197 q 76 -179 57 -197 q 94 -117 94 -161 l 94 769 l 290 769 l 290 -117 q 39 -367 290 -367 l -42 -367 l -42 -197 z "},"k":{"ha":783,"x_min":89,"x_max":778,"o":"m 539 0 l 285 336 l 285 0 l 89 0 l 89 1028 l 285 1028 l 285 450 l 538 769 l 769 769 l 446 386 l 778 0 l 539 0 z "},"l":{"ha":374,"x_min":89,"x_max":285,"o":"m 285 1028 l 285 0 l 89 0 l 89 1028 l 285 1028 z "},"m":{"ha":1454,"x_min":89,"x_max":1371,"o":"m 1068 781 q 1290 694 1208 781 q 1371 447 1371 607 l 1371 0 l 1176 0 l 1176 425 q 1131 562 1176 514 q 1007 610 1086 610 q 876 558 925 610 q 828 408 828 507 l 828 0 l 633 0 l 633 425 q 588 562 633 514 q 464 610 543 610 q 333 558 382 610 q 285 408 285 507 l 285 0 l 89 0 l 89 769 l 285 769 l 285 624 q 381 740 315 699 q 535 781 447 781 q 697 736 628 781 q 800 608 765 692 q 908 734 836 688 q 1068 781 979 781 z "},"n":{"ha":922,"x_min":89,"x_max":839,"o":"m 547 781 q 760 693 681 781 q 839 447 839 606 l 839 0 l 644 0 l 644 425 q 597 567 644 517 q 468 618 550 618 q 335 564 385 618 q 285 408 285 510 l 285 0 l 89 0 l 89 769 l 285 769 l 285 615 q 385 737 315 693 q 547 781 456 781 z "},"o":{"ha":889,"x_min":50,"x_max":839,"o":"m 444 779 q 647 732 557 779 q 788 595 736 685 q 839 385 839 506 q 788 175 839 264 q 647 38 736 86 q 444 -10 557 -10 q 242 38 332 -10 q 101 175 153 86 q 50 385 50 264 q 101 595 50 506 q 242 732 153 685 q 444 779 332 779 m 444 610 q 306 552 363 610 q 249 385 249 494 q 306 217 249 275 q 444 160 363 160 q 583 217 526 160 q 640 385 640 275 q 583 552 640 494 q 444 610 526 610 z "},"p":{"ha":939,"x_min":89,"x_max":889,"o":"m 549 779 q 724 732 646 779 q 845 595 801 685 q 889 385 889 506 q 845 174 889 264 q 724 38 801 85 q 549 -10 646 -10 q 383 37 451 -10 q 285 161 314 83 l 285 -367 l 89 -367 l 89 769 l 285 769 l 285 610 q 383 733 314 688 q 549 779 451 779 m 488 608 q 341 548 399 608 q 283 385 283 488 q 341 223 283 283 q 488 163 399 163 q 635 222 579 163 q 690 385 690 281 q 635 549 690 489 q 488 608 579 608 z "},"q":{"ha":939,"x_min":50,"x_max":850,"o":"m 404 778 q 557 740 493 778 q 656 632 621 701 l 656 769 l 850 769 l 850 -367 l 656 -367 l 656 149 q 555 33 618 74 q 404 -8 492 -8 q 225 40 306 -8 q 97 178 144 89 q 50 382 50 267 q 97 588 50 499 q 225 728 144 678 q 404 778 306 778 m 451 607 q 306 548 364 607 q 249 382 249 489 q 306 219 249 275 q 451 163 364 163 q 553 188 506 163 q 628 264 600 214 q 656 385 656 314 q 628 506 656 456 q 553 581 600 556 q 451 607 507 607 z "},"r":{"ha":576,"x_min":89,"x_max":557,"o":"m 285 622 q 399 738 328 696 q 557 781 469 781 l 557 571 l 500 571 q 285 371 285 571 l 285 0 l 89 0 l 89 769 l 285 769 l 285 622 z "},"s":{"ha":751,"x_min":60,"x_max":694,"o":"m 354 779 q 579 708 494 779 q 685 519 664 638 l 501 519 q 451 608 490 575 q 350 642 413 642 q 272 618 300 642 q 244 554 244 594 q 267 503 244 522 q 322 472 289 483 q 418 446 356 461 q 560 405 506 426 q 655 337 615 383 q 694 211 694 290 q 617 51 694 113 q 410 -10 540 -10 q 169 58 260 -10 q 60 250 79 125 l 247 250 q 297 160 254 193 q 410 128 340 128 q 486 152 460 128 q 513 215 513 176 q 490 269 513 249 q 433 301 467 290 q 336 328 399 313 q 197 367 250 347 q 105 432 143 388 q 67 554 67 476 q 143 717 67 654 q 354 779 219 779 z "},"t":{"ha":551,"x_min":24,"x_max":500,"o":"m 500 168 l 500 0 l 397 0 q 199 63 268 0 q 131 271 131 125 l 131 604 l 24 604 l 24 769 l 131 769 l 131 960 l 326 960 l 326 769 l 499 769 l 499 604 l 326 604 l 326 268 q 349 190 326 213 q 424 168 371 168 l 500 168 z "},"u":{"ha":914,"x_min":75,"x_max":825,"o":"m 825 769 l 825 0 l 629 0 l 629 156 q 528 34 599 78 q 367 -10 458 -10 q 154 78 233 -10 q 75 322 75 165 l 75 769 l 269 769 l 269 344 q 317 202 269 253 q 444 151 364 151 q 579 206 529 151 q 629 361 629 260 l 629 769 l 825 769 z "},"v":{"ha":846,"x_min":18,"x_max":826,"o":"m 424 196 l 618 769 l 826 769 l 542 0 l 303 0 l 18 769 l 228 769 l 424 196 z "},"w":{"ha":1199,"x_min":10,"x_max":1190,"o":"m 1190 769 l 983 0 l 767 0 l 601 560 l 432 0 l 215 0 l 10 769 l 206 769 l 331 175 l 501 769 l 708 769 l 881 175 l 1007 769 l 1190 769 z "},"x":{"ha":788,"x_min":14,"x_max":776,"o":"m 557 0 l 382 247 l 235 0 l 19 0 l 274 401 l 14 769 l 233 769 l 404 526 l 551 769 l 767 769 l 508 379 l 776 0 l 557 0 z "},"y":{"ha":843,"x_min":3,"x_max":840,"o":"m 221 769 l 431 247 l 625 769 l 840 769 l 369 -367 l 153 -367 l 326 22 l 3 769 l 221 769 z "},"z":{"ha":658,"x_min":33,"x_max":625,"o":"m 247 164 l 625 164 l 625 0 l 33 0 l 33 156 l 388 607 l 42 607 l 42 769 l 611 769 l 611 615 l 247 164 z "},"{":{"ha":590,"x_min":69,"x_max":546,"o":"m 235 515 q 353 449 314 500 q 392 317 392 397 q 378 194 392 275 q 367 122 372 161 q 363 44 363 82 q 416 -167 363 -82 q 546 -286 469 -251 l 546 -301 l 361 -301 q 286 -242 326 -283 q 214 -128 246 -201 q 182 50 182 -54 q 189 144 182 99 q 197 197 196 189 q 211 322 211 281 q 69 481 211 457 l 69 553 q 211 711 211 575 q 197 836 211 753 q 189 890 196 844 q 182 983 182 935 q 214 1161 182 1088 q 286 1276 246 1235 q 361 1335 326 1317 l 546 1335 l 546 1319 q 416 1200 469 1285 q 363 989 363 1115 q 367 913 363 951 q 378 840 372 874 q 392 717 392 760 q 235 518 392 550 l 235 515 z "},"|":{"ha":324,"x_min":64,"x_max":260,"o":"m 260 -168 l 64 -168 l 64 1122 l 260 1122 l 260 -168 z "},"}":{"ha":576,"x_min":53,"x_max":526,"o":"m 363 518 q 207 700 207 550 q 213 776 207 738 q 219 824 218 814 q 235 972 235 906 q 209 1127 235 1056 q 142 1248 183 1199 q 53 1319 100 1297 l 53 1335 l 235 1335 q 310 1276 269 1317 q 382 1161 350 1235 q 414 983 414 1088 q 407 890 414 935 q 399 836 400 844 q 385 711 385 753 q 416 608 385 653 q 526 553 447 563 l 526 481 q 416 426 447 472 q 385 322 385 381 q 399 197 385 281 q 407 144 400 189 q 414 50 414 99 q 382 -128 414 -54 q 310 -242 350 -201 q 235 -301 269 -283 l 53 -301 l 53 -286 q 142 -215 100 -264 q 209 -94 183 -165 q 235 61 235 -22 q 219 211 235 129 q 213 260 218 222 q 207 333 207 297 q 363 515 207 485 l 363 518 z "},"~":{"ha":821,"x_min":39,"x_max":782,"o":"m 285 575 q 362 561 328 575 q 440 522 396 547 q 501 492 479 501 q 547 482 524 482 q 633 576 618 482 l 782 576 q 697 374 761 440 q 536 307 633 307 q 461 320 494 307 q 381 360 428 333 q 322 390 344 381 q 274 400 299 400 q 186 306 203 400 l 39 306 q 125 508 61 442 q 285 575 189 575 z "}," ":{"ha":303,"x_min":0,"x_max":0,"o":""},"¡":{"ha":510,"x_min":144,"x_max":360,"o":"m 360 -240 l 335 454 l 169 454 l 144 -240 l 360 -240 m 358 576 l 358 781 l 147 781 l 147 576 l 358 576 z "},"¢":{"ha":810,"x_min":50,"x_max":760,"o":"m 418 164 q 523 197 478 164 q 579 289 568 231 l 760 289 q 663 92 747 167 q 454 7 579 18 l 454 -121 l 368 -121 l 368 8 q 136 113 222 21 q 50 361 50 206 q 135 608 50 517 q 368 713 221 700 l 368 838 l 454 838 l 454 714 q 663 629 579 703 q 760 433 747 556 l 579 433 q 522 526 567 493 q 418 558 478 558 q 288 507 338 558 q 238 361 238 456 q 288 215 238 265 q 418 164 338 164 z "},"£":{"ha":865,"x_min":54,"x_max":794,"o":"m 406 371 q 381 256 406 314 q 304 149 357 197 l 793 149 l 793 -6 l 114 -6 l 89 92 q 189 217 157 153 q 221 369 221 281 q 217 411 221 389 l 54 411 l 54 543 l 178 543 q 140 747 140 658 q 180 901 140 835 q 292 1002 219 967 q 457 1038 364 1038 q 695 953 608 1038 q 794 732 782 868 l 613 732 q 567 838 606 797 q 464 878 528 878 q 365 838 403 878 q 328 726 328 799 q 335 660 328 693 q 361 571 343 628 l 369 543 l 617 543 l 617 411 l 403 411 q 406 371 406 383 z "},"¤":{"ha":781,"x_min":90,"x_max":690,"o":"m 667 525 q 615 371 667 436 l 690 296 l 615 221 l 531 304 q 392 275 471 275 q 250 307 311 275 l 164 221 l 90 296 l 168 372 q 119 525 119 436 q 171 679 119 617 l 90 758 l 164 833 l 254 743 q 392 772 313 772 q 526 744 467 772 l 615 833 l 690 758 l 613 682 q 667 525 667 619 m 392 390 q 478 425 443 390 q 514 524 514 460 q 478 623 514 588 q 392 658 443 658 q 306 623 340 658 q 272 524 272 588 q 306 425 272 460 q 392 390 340 390 z "},"¥":{"ha":921,"x_min":31,"x_max":893,"o":"m 679 569 l 838 569 l 838 439 l 611 439 l 567 354 l 838 354 l 838 222 l 561 222 l 561 0 l 364 0 l 364 222 l 86 222 l 86 354 l 358 354 l 314 439 l 86 439 l 86 569 l 246 569 l 31 981 l 256 981 l 464 522 l 672 981 l 893 981 l 679 569 z "},"¦":{"ha":465,"x_min":135,"x_max":331,"o":"m 135 1122 l 331 1122 l 331 569 l 135 569 l 135 1122 m 331 -168 l 135 -168 l 135 386 l 331 386 l 331 -168 z "},"§":{"ha":810,"x_min":51,"x_max":760,"o":"m 589 157 q 715 -46 715 74 q 636 -214 715 -150 q 415 -278 557 -278 q 193 -205 276 -278 q 97 -10 110 -132 l 290 -10 q 419 -137 301 -137 q 490 -117 464 -137 q 517 -56 517 -97 q 469 31 517 -6 q 299 115 422 67 q 116 219 181 158 q 51 369 51 279 q 93 499 51 442 q 222 582 135 557 q 129 674 163 622 q 96 788 96 726 q 175 955 96 892 q 397 1018 254 1018 q 619 945 536 1018 q 714 750 701 872 l 519 750 q 485 843 517 808 q 393 878 453 878 q 320 858 347 878 q 293 797 293 838 q 341 710 293 747 q 513 626 389 674 q 695 519 631 579 q 760 369 760 460 q 719 244 760 299 q 589 157 678 189 m 260 369 q 299 278 260 313 q 407 243 338 243 q 514 279 475 243 q 553 369 553 315 q 514 462 553 426 q 406 497 475 497 q 299 460 338 497 q 260 369 260 424 z "},"¨":{"ha":525,"x_min":43,"x_max":482,"o":"m 43 953 q 69 1016 43 990 q 131 1042 94 1042 q 194 1016 169 1042 q 219 953 219 990 q 194 891 219 917 q 131 865 169 865 q 69 891 94 865 q 43 953 43 917 m 306 953 q 331 1016 306 990 q 393 1042 356 1042 q 456 1016 431 1042 q 482 953 482 990 q 456 891 482 917 q 393 865 431 865 q 331 891 356 865 q 306 953 306 917 z "},"©":{"ha":1089,"x_min":58,"x_max":1031,"o":"m 544 990 q 292 927 403 990 q 120 751 182 864 q 58 494 58 638 q 120 237 58 350 q 292 60 182 124 q 544 -4 403 -4 q 798 60 688 -4 q 969 237 908 124 q 1031 494 1031 350 q 969 751 1031 639 q 798 927 908 864 q 544 990 688 990 m 544 926 q 765 872 671 926 q 910 720 860 818 q 961 494 961 622 q 910 268 961 367 q 765 115 860 169 q 544 60 671 60 q 324 115 418 60 q 178 268 229 169 q 128 494 128 367 q 178 720 128 622 q 324 872 229 818 q 544 926 418 926 m 550 810 q 738 747 658 810 q 839 574 818 683 l 675 574 q 624 650 660 622 q 542 678 589 678 q 438 630 479 678 q 396 493 396 582 q 438 356 396 404 q 542 308 479 308 q 624 336 589 308 q 675 413 660 364 l 839 413 q 738 240 818 303 q 550 176 658 176 q 392 215 463 176 q 283 324 322 253 q 243 493 243 396 q 283 662 243 590 q 392 772 322 733 q 550 810 463 810 z "},"ª":{"ha":642,"x_min":39,"x_max":590,"o":"m 265 988 q 443 882 393 988 l 443 981 l 590 981 l 590 493 l 443 493 l 443 590 q 267 485 393 485 q 102 552 165 485 q 39 735 39 619 q 102 919 39 851 q 265 988 165 988 m 315 869 q 226 833 261 869 q 190 735 190 796 q 225 639 190 674 q 315 604 260 604 q 407 640 371 604 q 443 736 443 675 q 407 833 443 797 q 315 869 371 869 z "},"«":{"ha":722,"x_min":63,"x_max":661,"o":"m 186 167 l 63 410 l 186 653 l 368 653 l 242 410 l 368 167 l 186 167 m 479 167 l 356 410 l 479 653 l 661 653 l 535 410 l 661 167 l 479 167 z "},"¬":{"ha":1056,"x_min":50,"x_max":976,"o":"m 976 608 l 976 271 l 781 271 l 781 460 l 50 460 l 50 608 l 976 608 z "},"­":{"ha":726,"x_min":-3,"x_max":588,"o":"m 588 576 l 588 414 l -3 414 l -3 576 l 588 576 z "},"®":{"ha":1119,"x_min":58,"x_max":1061,"o":"m 561 990 q 822 928 708 990 q 998 753 935 865 q 1061 494 1061 640 q 998 237 1061 350 q 822 60 935 124 q 561 -4 708 -4 q 299 60 414 -4 q 122 237 185 124 q 58 494 58 350 q 122 753 58 640 q 299 928 185 865 q 561 990 414 990 m 561 65 q 790 119 692 65 q 940 269 888 172 q 993 494 993 367 q 940 722 993 625 q 790 873 888 819 q 561 926 693 926 q 331 874 429 926 q 181 723 233 821 q 128 494 128 625 q 181 269 128 365 q 331 119 233 172 q 561 65 429 65 m 808 629 q 771 519 808 565 q 660 457 733 472 l 815 206 l 681 206 l 533 450 l 482 450 l 482 206 l 358 206 l 358 808 l 592 808 q 755 758 701 808 q 808 629 808 707 m 482 531 l 581 531 q 683 613 683 531 q 660 674 683 653 q 581 696 636 696 l 482 696 l 482 531 z "},"¯":{"ha":592,"x_min":31,"x_max":561,"o":"m 561 1017 l 561 885 l 31 885 l 31 1017 l 561 1017 z "},"°":{"ha":611,"x_min":36,"x_max":575,"o":"m 307 979 q 502 913 429 979 q 575 732 575 847 q 503 550 575 618 q 310 482 432 482 q 112 551 188 482 q 36 732 36 619 q 110 913 36 847 q 307 979 183 979 m 307 874 q 222 837 256 874 q 188 731 188 800 q 223 626 188 663 q 310 589 258 589 q 392 626 360 589 q 424 731 424 663 q 391 837 424 800 q 307 874 358 874 z "},"±":{"ha":786,"x_min":39,"x_max":747,"o":"m 488 504 l 488 308 l 747 308 l 747 131 l 39 131 l 39 308 l 299 308 l 299 504 l 39 504 l 39 682 l 299 682 l 299 878 l 488 878 l 488 682 l 747 682 l 747 504 l 488 504 z "},"²":{"ha":519,"x_min":56,"x_max":474,"o":"m 204 603 l 472 603 l 472 489 l 63 489 l 63 596 l 238 717 q 299 773 278 744 q 319 835 319 801 q 305 872 319 860 q 268 885 290 885 q 203 807 210 885 l 56 807 q 122 939 61 888 q 286 990 182 990 q 426 949 378 990 q 474 846 474 907 q 435 750 474 792 q 308 663 396 708 l 204 603 z "},"³":{"ha":504,"x_min":33,"x_max":467,"o":"m 260 990 q 405 951 351 990 q 458 849 458 913 q 358 740 458 761 l 358 736 q 467 621 467 710 q 413 521 467 558 q 263 483 358 483 q 94 525 147 483 q 33 649 42 567 l 188 649 q 206 601 190 614 q 250 588 222 588 q 311 646 311 588 q 292 694 311 678 q 238 710 272 710 l 178 710 l 178 765 l 231 765 q 303 829 303 765 q 287 870 303 854 q 244 886 271 886 q 181 825 189 886 l 39 825 q 97 943 43 896 q 260 990 150 990 z "},"´":{"ha":381,"x_min":31,"x_max":350,"o":"m 350 978 l 31 828 l 31 961 l 350 1128 l 350 978 z "},"µ":{"ha":969,"x_min":110,"x_max":860,"o":"m 860 769 l 860 0 l 664 0 l 664 147 q 569 31 633 72 q 417 -10 504 -10 q 304 32 346 -10 l 304 -367 l 110 -367 l 110 769 l 304 769 l 304 368 q 354 214 304 268 q 488 160 404 160 q 616 212 568 160 q 664 363 664 264 l 664 769 l 860 769 z "},"¶":{"ha":919,"x_min":29,"x_max":810,"o":"m 810 0 l 651 0 l 651 822 l 543 822 l 543 0 l 386 0 l 386 386 l 360 386 q 174 426 249 386 q 65 531 100 465 q 29 678 29 597 q 65 824 29 758 q 174 930 100 890 q 360 969 249 969 l 810 969 l 810 0 z "},"·":{"ha":318,"x_min":53,"x_max":264,"o":"m 264 553 l 264 349 l 53 349 l 53 553 l 264 553 z "},"¸":{"ha":424,"x_min":31,"x_max":393,"o":"m 215 -72 q 341 -106 289 -69 q 393 -218 393 -142 q 340 -330 393 -293 q 210 -367 288 -367 l 31 -367 l 31 -261 l 189 -261 q 260 -211 260 -261 q 242 -178 260 -190 q 189 -165 225 -165 l 97 -165 l 97 10 l 215 10 l 215 -72 z "},"¹":{"ha":324,"x_min":39,"x_max":272,"o":"m 39 863 l 39 978 l 272 978 l 272 489 l 124 489 l 124 863 l 39 863 z "},"º":{"ha":621,"x_min":39,"x_max":583,"o":"m 311 985 q 453 953 392 985 q 549 863 515 921 q 583 733 583 806 q 549 603 583 661 q 453 512 515 544 q 311 479 392 479 q 169 512 231 479 q 73 603 107 544 q 39 733 39 661 q 73 863 39 806 q 169 953 107 921 q 311 985 231 985 m 311 869 q 223 834 257 869 q 189 733 189 799 q 224 632 189 668 q 311 596 258 596 q 398 632 364 596 q 432 733 432 668 q 398 834 432 799 q 311 869 364 869 z "},"»":{"ha":722,"x_min":69,"x_max":668,"o":"m 197 410 l 69 653 l 253 653 l 375 410 l 253 167 l 69 167 l 197 410 m 490 410 l 363 653 l 546 653 l 668 410 l 546 167 l 363 167 l 490 410 z "},"¼":{"ha":1017,"x_min":71,"x_max":976,"o":"m 831 981 l 315 0 l 124 0 l 640 981 l 831 981 m 71 863 l 71 978 l 304 978 l 304 489 l 156 489 l 156 863 l 71 863 m 976 90 l 917 90 l 917 0 l 768 0 l 768 90 l 503 90 l 503 171 l 719 490 l 917 490 l 917 175 l 976 175 l 976 90 m 775 381 l 644 179 l 775 179 l 775 381 z "},"½":{"ha":1103,"x_min":72,"x_max":1014,"o":"m 831 983 l 306 0 l 114 0 l 639 983 l 831 983 m 157 863 l 72 863 l 72 978 l 306 978 l 306 489 l 157 489 l 157 863 m 744 113 l 1013 113 l 1013 -1 l 603 -1 l 603 106 l 778 226 q 839 283 818 254 q 860 344 860 311 q 845 382 860 369 q 808 394 831 394 q 743 317 750 394 l 596 317 q 662 449 601 397 q 826 500 722 500 q 966 458 918 500 q 1014 356 1014 417 q 975 260 1014 301 q 849 172 936 218 l 744 113 z "},"¾":{"ha":1149,"x_min":88,"x_max":1114,"o":"m 314 990 q 459 951 406 990 q 513 849 513 913 q 413 740 513 761 l 413 736 q 521 621 521 710 q 467 521 521 558 q 317 483 413 483 q 149 525 201 483 q 88 649 96 567 l 242 649 q 260 601 244 614 q 304 588 276 588 q 365 646 365 588 q 346 694 365 678 q 292 710 326 710 l 232 710 l 232 765 l 285 765 q 357 829 357 765 q 341 870 357 854 q 299 886 325 886 q 235 825 243 886 l 93 825 q 151 943 97 896 q 314 990 204 990 m 969 983 l 468 0 l 276 0 l 778 983 l 969 983 m 1114 90 l 1054 90 l 1054 0 l 907 0 l 907 90 l 642 90 l 642 171 l 840 490 l 1054 490 l 1054 175 l 1114 175 l 1114 90 m 914 397 l 783 175 l 914 175 l 914 397 z "},"¿":{"ha":706,"x_min":88,"x_max":735,"o":"m 401 -262 q 174 -187 260 -262 q 88 25 88 -112 q 176 238 88 164 q 413 314 264 311 l 413 454 l 597 454 l 597 186 l 518 186 q 343 152 406 186 q 281 26 281 118 q 315 -69 281 -35 q 408 -103 350 -103 q 510 -66 472 -103 q 547 29 547 -29 l 732 29 q 696 -120 735 -54 q 581 -224 657 -186 q 401 -262 506 -262 m 397 572 l 397 776 l 608 776 l 608 572 l 397 572 z "},"À":{"ha":978,"x_min":17,"x_max":961,"o":"m 686 197 l 293 197 l 224 0 l 17 0 l 378 969 l 601 969 l 961 0 l 754 0 l 686 197 m 633 346 l 489 760 l 344 346 l 633 346 m 593 1172 l 593 1039 l 274 1189 l 274 1339 l 593 1172 z "},"Á":{"ha":978,"x_min":17,"x_max":961,"o":"m 686 197 l 293 197 l 224 0 l 17 0 l 378 969 l 601 969 l 961 0 l 754 0 l 686 197 m 633 346 l 489 760 l 344 346 l 633 346 m 699 1189 l 379 1039 l 379 1172 l 699 1339 l 699 1189 z "},"Â":{"ha":978,"x_min":17,"x_max":961,"o":"m 686 197 l 293 197 l 224 0 l 17 0 l 378 969 l 601 969 l 961 0 l 754 0 l 686 197 m 633 346 l 489 760 l 344 346 l 633 346 m 489 1167 l 282 1049 l 282 1181 l 489 1296 l 694 1181 l 694 1049 l 489 1167 z "},"Ã":{"ha":978,"x_min":17,"x_max":961,"o":"m 686 197 l 293 197 l 224 0 l 17 0 l 378 969 l 601 969 l 961 0 l 754 0 l 686 197 m 633 346 l 489 760 l 344 346 l 633 346 m 401 1240 q 453 1231 431 1240 q 506 1203 475 1221 q 547 1181 531 1188 q 581 1174 563 1174 q 622 1190 606 1174 q 642 1239 638 1207 l 743 1239 q 685 1102 729 1147 q 574 1057 642 1057 q 522 1067 544 1057 q 467 1094 499 1076 q 427 1115 442 1108 q 394 1122 413 1122 q 333 1057 343 1122 l 233 1057 q 401 1240 263 1240 z "},"Ä":{"ha":978,"x_min":17,"x_max":961,"o":"m 686 197 l 293 197 l 224 0 l 17 0 l 378 969 l 601 969 l 961 0 l 754 0 l 686 197 m 633 346 l 489 760 l 344 346 l 633 346 m 269 1164 q 295 1227 269 1201 q 357 1253 321 1253 q 421 1227 396 1253 q 446 1164 446 1201 q 421 1102 446 1128 q 357 1076 396 1076 q 295 1102 321 1076 q 269 1164 269 1128 m 532 1164 q 557 1227 532 1201 q 619 1253 582 1253 q 683 1227 657 1253 q 708 1164 708 1201 q 683 1102 708 1128 q 619 1076 657 1076 q 557 1102 582 1076 q 532 1164 532 1128 z "},"Å":{"ha":978,"x_min":17,"x_max":961,"o":"m 686 197 l 293 197 l 224 0 l 17 0 l 378 969 l 601 969 l 961 0 l 754 0 l 686 197 m 633 346 l 489 760 l 344 346 l 633 346 m 488 1367 q 601 1324 556 1367 q 647 1207 647 1281 q 601 1090 647 1133 q 488 1047 556 1047 q 374 1091 419 1047 q 328 1207 328 1135 q 374 1323 328 1279 q 488 1367 419 1367 m 488 1286 q 433 1265 454 1286 q 411 1207 411 1243 q 433 1149 411 1171 q 488 1128 454 1128 q 543 1149 521 1128 q 565 1207 565 1171 q 543 1265 565 1243 q 488 1286 521 1286 z "},"Æ":{"ha":1286,"x_min":6,"x_max":1231,"o":"m 850 825 l 850 574 l 1189 574 l 1189 424 l 850 424 l 850 157 l 1231 157 l 1231 0 l 654 0 l 654 189 l 319 189 l 219 0 l 6 0 l 529 981 l 1231 981 l 1231 825 l 850 825 m 654 338 l 654 818 l 399 338 l 654 338 z "},"Ç":{"ha":1054,"x_min":58,"x_max":996,"o":"m 532 990 q 836 896 715 990 q 996 639 957 801 l 790 639 q 691 764 758 718 q 529 810 624 810 q 389 771 451 810 q 292 660 326 732 q 257 490 257 588 q 292 322 257 394 q 389 211 326 250 q 529 172 451 172 q 691 218 624 172 q 790 343 758 264 l 996 343 q 836 86 957 181 q 532 -8 715 -8 q 284 55 392 -8 q 117 232 176 118 q 58 490 58 346 q 117 750 58 636 q 283 927 176 864 q 532 990 390 990 m 592 -72 q 717 -106 665 -69 q 769 -218 769 -142 q 717 -330 769 -293 q 586 -367 664 -367 l 407 -367 l 407 -261 l 565 -261 q 636 -211 636 -261 q 619 -178 636 -190 q 565 -165 601 -165 l 474 -165 l 474 10 l 592 10 l 592 -72 z "},"È":{"ha":729,"x_min":89,"x_max":674,"o":"m 285 825 l 285 571 l 632 571 l 632 421 l 285 421 l 285 157 l 674 157 l 674 0 l 89 0 l 89 981 l 674 981 l 674 825 l 285 825 m 486 1172 l 486 1039 l 167 1189 l 167 1339 l 486 1172 z "},"É":{"ha":729,"x_min":89,"x_max":674,"o":"m 285 825 l 285 571 l 632 571 l 632 421 l 285 421 l 285 157 l 674 157 l 674 0 l 89 0 l 89 981 l 674 981 l 674 825 l 285 825 m 592 1189 l 272 1039 l 272 1172 l 592 1339 l 592 1189 z "},"Ê":{"ha":729,"x_min":89,"x_max":674,"o":"m 285 825 l 285 571 l 632 571 l 632 421 l 285 421 l 285 157 l 674 157 l 674 0 l 89 0 l 89 981 l 674 981 l 674 825 l 285 825 m 382 1167 l 175 1049 l 175 1181 l 382 1296 l 588 1181 l 588 1049 l 382 1167 z "},"Ë":{"ha":729,"x_min":89,"x_max":674,"o":"m 285 825 l 285 571 l 632 571 l 632 421 l 285 421 l 285 157 l 674 157 l 674 0 l 89 0 l 89 981 l 674 981 l 674 825 l 285 825 m 163 1164 q 188 1227 163 1201 q 250 1253 214 1253 q 314 1227 289 1253 q 339 1164 339 1201 q 314 1102 339 1128 q 250 1076 289 1076 q 188 1102 214 1076 q 163 1164 163 1128 m 425 1164 q 450 1227 425 1201 q 513 1253 475 1253 q 576 1227 550 1253 q 601 1164 601 1201 q 576 1102 601 1128 q 513 1076 550 1076 q 450 1102 475 1076 q 425 1164 425 1128 z "},"Ì":{"ha":374,"x_min":-28,"x_max":292,"o":"m 285 981 l 285 0 l 89 0 l 89 981 l 285 981 m 292 1172 l 292 1039 l -28 1189 l -28 1339 l 292 1172 z "},"Í":{"ha":374,"x_min":78,"x_max":397,"o":"m 285 981 l 285 0 l 89 0 l 89 981 l 285 981 m 397 1189 l 78 1039 l 78 1172 l 397 1339 l 397 1189 z "},"Î":{"ha":374,"x_min":-19,"x_max":393,"o":"m 285 981 l 285 0 l 89 0 l 89 981 l 285 981 m 188 1167 l -19 1049 l -19 1181 l 188 1296 l 393 1181 l 393 1049 l 188 1167 z "},"Ï":{"ha":374,"x_min":-32,"x_max":407,"o":"m 285 981 l 285 0 l 89 0 l 89 981 l 285 981 m -32 1164 q -6 1227 -32 1201 q 56 1253 19 1253 q 119 1227 94 1253 q 144 1164 144 1201 q 119 1102 144 1128 q 56 1076 94 1076 q -6 1102 19 1076 q -32 1164 -32 1128 m 231 1164 q 256 1227 231 1201 q 318 1253 281 1253 q 381 1227 356 1253 q 407 1164 407 1201 q 381 1102 407 1128 q 318 1076 356 1076 q 256 1102 281 1076 q 231 1164 231 1128 z "},"Ð":{"ha":1032,"x_min":6,"x_max":974,"o":"m 460 981 q 735 920 619 981 q 913 749 851 860 q 974 492 974 639 q 913 235 974 346 q 735 62 851 124 q 460 0 619 0 l 111 0 l 111 414 l 6 414 l 6 571 l 111 571 l 111 981 l 460 981 m 443 175 q 688 258 601 175 q 775 492 775 342 q 688 726 775 643 q 443 810 601 810 l 307 810 l 307 571 l 544 571 l 544 414 l 307 414 l 307 175 l 443 175 z "},"Ñ":{"ha":1008,"x_min":89,"x_max":919,"o":"m 919 0 l 724 0 l 285 667 l 285 0 l 89 0 l 89 981 l 285 981 l 724 308 l 724 981 l 919 981 l 919 0 m 417 1240 q 468 1231 446 1240 q 521 1203 490 1221 q 562 1181 546 1188 q 596 1174 578 1174 q 637 1190 621 1174 q 657 1239 653 1207 l 758 1239 q 701 1102 744 1147 q 589 1057 657 1057 q 537 1067 560 1057 q 482 1094 514 1076 q 442 1115 457 1108 q 410 1122 428 1122 q 349 1057 358 1122 l 249 1057 q 417 1240 278 1240 z "},"Ò":{"ha":1097,"x_min":58,"x_max":1039,"o":"m 549 994 q 798 931 686 994 q 974 752 910 867 q 1039 493 1039 638 q 974 233 1039 349 q 798 54 910 118 q 549 -10 686 -10 q 299 54 411 -10 q 123 233 188 118 q 58 493 58 349 q 123 752 58 638 q 299 931 188 867 q 549 994 411 994 m 549 814 q 397 775 463 814 q 295 663 332 736 q 258 493 258 590 q 295 323 258 396 q 397 211 332 250 q 549 172 463 172 q 700 211 635 172 q 802 323 765 250 q 839 493 839 396 q 802 663 839 590 q 700 775 765 736 q 549 814 635 814 m 653 1172 l 653 1039 l 333 1189 l 333 1339 l 653 1172 z "},"Ó":{"ha":1097,"x_min":58,"x_max":1039,"o":"m 549 994 q 798 931 686 994 q 974 752 910 867 q 1039 493 1039 638 q 974 233 1039 349 q 798 54 910 118 q 549 -10 686 -10 q 299 54 411 -10 q 123 233 188 118 q 58 493 58 349 q 123 752 58 638 q 299 931 188 867 q 549 994 411 994 m 549 814 q 397 775 463 814 q 295 663 332 736 q 258 493 258 590 q 295 323 258 396 q 397 211 332 250 q 549 172 463 172 q 700 211 635 172 q 802 323 765 250 q 839 493 839 396 q 802 663 839 590 q 700 775 765 736 q 549 814 635 814 m 758 1189 l 439 1039 l 439 1172 l 758 1339 l 758 1189 z "},"Ô":{"ha":1097,"x_min":58,"x_max":1039,"o":"m 549 994 q 798 931 686 994 q 974 752 910 867 q 1039 493 1039 638 q 974 233 1039 349 q 798 54 910 118 q 549 -10 686 -10 q 299 54 411 -10 q 123 233 188 118 q 58 493 58 349 q 123 752 58 638 q 299 931 188 867 q 549 994 411 994 m 549 814 q 397 775 463 814 q 295 663 332 736 q 258 493 258 590 q 295 323 258 396 q 397 211 332 250 q 549 172 463 172 q 700 211 635 172 q 802 323 765 250 q 839 493 839 396 q 802 663 839 590 q 700 775 765 736 q 549 814 635 814 m 550 1167 l 343 1049 l 343 1181 l 550 1296 l 756 1181 l 756 1049 l 550 1167 z "},"Õ":{"ha":1097,"x_min":58,"x_max":1039,"o":"m 549 994 q 798 931 686 994 q 974 752 910 867 q 1039 493 1039 638 q 974 233 1039 349 q 798 54 910 118 q 549 -10 686 -10 q 299 54 411 -10 q 123 233 188 118 q 58 493 58 349 q 123 752 58 638 q 299 931 188 867 q 549 994 411 994 m 549 814 q 397 775 463 814 q 295 663 332 736 q 258 493 258 590 q 295 323 258 396 q 397 211 332 250 q 549 172 463 172 q 700 211 635 172 q 802 323 765 250 q 839 493 839 396 q 802 663 839 590 q 700 775 765 736 q 549 814 635 814 m 461 1240 q 513 1231 490 1240 q 565 1203 535 1221 q 606 1181 590 1188 q 640 1174 622 1174 q 681 1190 665 1174 q 701 1239 697 1207 l 803 1239 q 745 1102 789 1147 q 633 1057 701 1057 q 581 1067 604 1057 q 526 1094 558 1076 q 487 1115 501 1108 q 454 1122 472 1122 q 393 1057 403 1122 l 293 1057 q 461 1240 322 1240 z "},"Ö":{"ha":1097,"x_min":58,"x_max":1039,"o":"m 549 994 q 798 931 686 994 q 974 752 910 867 q 1039 493 1039 638 q 974 233 1039 349 q 798 54 910 118 q 549 -10 686 -10 q 299 54 411 -10 q 123 233 188 118 q 58 493 58 349 q 123 752 58 638 q 299 931 188 867 q 549 994 411 994 m 549 814 q 397 775 463 814 q 295 663 332 736 q 258 493 258 590 q 295 323 258 396 q 397 211 332 250 q 549 172 463 172 q 700 211 635 172 q 802 323 765 250 q 839 493 839 396 q 802 663 839 590 q 700 775 765 736 q 549 814 635 814 m 329 1164 q 355 1227 329 1201 q 417 1253 381 1253 q 481 1227 456 1253 q 506 1164 506 1201 q 481 1102 506 1128 q 417 1076 456 1076 q 355 1102 381 1076 q 329 1164 329 1128 m 592 1164 q 617 1227 592 1201 q 679 1253 642 1253 q 742 1227 717 1253 q 768 1164 768 1201 q 742 1102 768 1128 q 679 1076 717 1076 q 617 1102 642 1076 q 592 1164 592 1128 z "},"×":{"ha":744,"x_min":39,"x_max":706,"o":"m 575 168 l 368 374 l 165 169 l 39 294 l 243 500 l 42 700 l 172 829 l 372 629 l 569 828 l 696 703 l 497 504 l 706 296 l 575 168 z "},"Ø":{"ha":1097,"x_min":49,"x_max":1047,"o":"m 914 836 q 1006 682 974 769 q 1038 493 1038 594 q 973 233 1038 349 q 797 54 908 118 q 547 -10 685 -10 q 383 17 461 -10 q 242 92 306 43 l 160 1 l 49 1 l 182 149 q 90 303 122 215 q 57 493 57 392 q 122 752 57 638 q 298 931 186 867 q 547 994 410 994 q 713 968 635 994 q 854 892 790 942 l 938 985 l 1047 985 l 914 836 m 257 493 q 311 292 257 374 l 729 754 q 547 814 654 814 q 396 775 461 814 q 294 663 331 736 q 257 493 257 590 m 838 493 q 783 693 838 611 l 367 231 q 547 172 442 172 q 699 211 633 172 q 801 323 764 250 q 838 493 838 396 z "},"Ù":{"ha":949,"x_min":83,"x_max":865,"o":"m 278 981 l 278 406 q 328 233 278 290 q 475 175 379 175 q 620 233 569 175 q 671 406 671 290 l 671 981 l 865 981 l 865 406 q 815 176 865 269 q 674 36 764 82 q 471 -10 585 -10 q 189 96 294 -10 q 83 406 83 201 l 83 981 l 278 981 m 578 1172 l 578 1039 l 258 1189 l 258 1339 l 578 1172 z "},"Ú":{"ha":949,"x_min":83,"x_max":865,"o":"m 278 981 l 278 406 q 328 233 278 290 q 475 175 379 175 q 620 233 569 175 q 671 406 671 290 l 671 981 l 865 981 l 865 406 q 815 176 865 269 q 674 36 764 82 q 471 -10 585 -10 q 189 96 294 -10 q 83 406 83 201 l 83 981 l 278 981 m 683 1189 l 364 1039 l 364 1172 l 683 1339 l 683 1189 z "},"Û":{"ha":949,"x_min":83,"x_max":865,"o":"m 278 981 l 278 406 q 328 233 278 290 q 475 175 379 175 q 620 233 569 175 q 671 406 671 290 l 671 981 l 865 981 l 865 406 q 815 176 865 269 q 674 36 764 82 q 471 -10 585 -10 q 189 96 294 -10 q 83 406 83 201 l 83 981 l 278 981 m 475 1167 l 268 1049 l 268 1181 l 475 1296 l 681 1181 l 681 1049 l 475 1167 z "},"Ü":{"ha":949,"x_min":83,"x_max":865,"o":"m 278 981 l 278 406 q 328 233 278 290 q 475 175 379 175 q 620 233 569 175 q 671 406 671 290 l 671 981 l 865 981 l 865 406 q 815 176 865 269 q 674 36 764 82 q 471 -10 585 -10 q 189 96 294 -10 q 83 406 83 201 l 83 981 l 278 981 m 256 1164 q 281 1227 256 1201 q 343 1253 307 1253 q 407 1227 382 1253 q 432 1164 432 1201 q 407 1102 432 1128 q 343 1076 382 1076 q 281 1102 307 1076 q 256 1164 256 1128 m 518 1164 q 543 1227 518 1201 q 606 1253 568 1253 q 669 1227 643 1253 q 694 1164 694 1201 q 669 1102 694 1128 q 606 1076 643 1076 q 543 1102 568 1076 q 518 1164 518 1128 z "},"Ý":{"ha":896,"x_min":17,"x_max":879,"o":"m 879 981 l 547 343 l 547 0 l 350 0 l 350 343 l 17 981 l 242 981 l 450 551 l 658 981 l 879 981 m 658 1189 l 339 1039 l 339 1172 l 658 1339 l 658 1189 z "},"Þ":{"ha":835,"x_min":89,"x_max":796,"o":"m 285 193 l 285 0 l 89 0 l 89 981 l 283 981 l 283 793 l 446 793 q 707 712 618 793 q 796 492 796 631 q 705 274 796 356 q 446 193 614 193 l 285 193 m 425 342 q 597 492 597 342 q 557 603 597 565 q 425 642 517 642 l 285 642 l 285 342 l 425 342 z "},"ß":{"ha":971,"x_min":89,"x_max":940,"o":"m 736 543 q 893 411 846 479 q 940 244 940 343 q 906 115 940 172 q 808 23 871 57 q 661 -11 744 -11 q 444 64 519 -11 q 368 272 369 139 l 529 272 q 561 189 532 219 q 643 158 590 158 q 723 188 696 158 q 750 260 750 218 q 727 336 750 304 q 643 406 704 368 l 432 529 l 432 608 l 467 628 q 519 675 503 649 q 536 738 536 701 q 503 828 536 793 q 415 864 471 864 q 319 826 356 864 q 283 724 283 789 l 285 0 l 89 0 l 89 683 q 178 952 89 863 q 439 1042 268 1042 q 598 1010 531 1042 q 701 926 665 979 q 736 808 736 874 q 706 700 736 746 q 606 621 675 654 l 736 543 z "},"à":{"ha":939,"x_min":50,"x_max":850,"o":"m 390 779 q 557 733 488 779 q 656 610 626 688 l 656 769 l 850 769 l 850 0 l 656 0 l 656 161 q 557 37 626 83 q 390 -10 488 -10 q 215 38 293 -10 q 94 174 138 85 q 50 385 50 264 q 94 595 50 506 q 215 732 138 685 q 390 779 293 779 m 451 608 q 304 549 360 608 q 249 385 249 489 q 304 222 249 281 q 451 163 360 163 q 598 223 540 163 q 656 385 656 283 q 598 548 656 488 q 451 608 540 608 m 556 961 l 556 828 l 236 978 l 236 1128 l 556 961 z "},"á":{"ha":939,"x_min":50,"x_max":850,"o":"m 390 779 q 557 733 488 779 q 656 610 626 688 l 656 769 l 850 769 l 850 0 l 656 0 l 656 161 q 557 37 626 83 q 390 -10 488 -10 q 215 38 293 -10 q 94 174 138 85 q 50 385 50 264 q 94 595 50 506 q 215 732 138 685 q 390 779 293 779 m 451 608 q 304 549 360 608 q 249 385 249 489 q 304 222 249 281 q 451 163 360 163 q 598 223 540 163 q 656 385 656 283 q 598 548 656 488 q 451 608 540 608 m 661 978 l 342 828 l 342 961 l 661 1128 l 661 978 z "},"â":{"ha":939,"x_min":50,"x_max":850,"o":"m 390 779 q 557 733 488 779 q 656 610 626 688 l 656 769 l 850 769 l 850 0 l 656 0 l 656 161 q 557 37 626 83 q 390 -10 488 -10 q 215 38 293 -10 q 94 174 138 85 q 50 385 50 264 q 94 595 50 506 q 215 732 138 685 q 390 779 293 779 m 451 608 q 304 549 360 608 q 249 385 249 489 q 304 222 249 281 q 451 163 360 163 q 598 223 540 163 q 656 385 656 283 q 598 548 656 488 q 451 608 540 608 m 451 956 l 244 838 l 244 969 l 451 1085 l 657 969 l 657 838 l 451 956 z "},"ã":{"ha":939,"x_min":50,"x_max":850,"o":"m 390 779 q 557 733 488 779 q 656 610 626 688 l 656 769 l 850 769 l 850 0 l 656 0 l 656 161 q 557 37 626 83 q 390 -10 488 -10 q 215 38 293 -10 q 94 174 138 85 q 50 385 50 264 q 94 595 50 506 q 215 732 138 685 q 390 779 293 779 m 451 608 q 304 549 360 608 q 249 385 249 489 q 304 222 249 281 q 451 163 360 163 q 598 223 540 163 q 656 385 656 283 q 598 548 656 488 q 451 608 540 608 m 364 1029 q 415 1019 393 1029 q 468 992 438 1010 q 509 969 493 976 q 543 963 525 963 q 584 979 568 963 q 604 1028 600 996 l 706 1028 q 648 891 692 936 q 536 846 604 846 q 484 856 507 846 q 429 883 461 865 q 390 904 404 897 q 357 911 375 911 q 296 846 306 911 l 196 846 q 364 1029 225 1029 z "},"ä":{"ha":939,"x_min":50,"x_max":850,"o":"m 390 779 q 557 733 488 779 q 656 610 626 688 l 656 769 l 850 769 l 850 0 l 656 0 l 656 161 q 557 37 626 83 q 390 -10 488 -10 q 215 38 293 -10 q 94 174 138 85 q 50 385 50 264 q 94 595 50 506 q 215 732 138 685 q 390 779 293 779 m 451 608 q 304 549 360 608 q 249 385 249 489 q 304 222 249 281 q 451 163 360 163 q 598 223 540 163 q 656 385 656 283 q 598 548 656 488 q 451 608 540 608 m 232 953 q 258 1016 232 990 q 319 1042 283 1042 q 383 1016 358 1042 q 408 953 408 990 q 383 891 408 917 q 319 865 358 865 q 258 891 283 865 q 232 953 232 917 m 494 953 q 519 1016 494 990 q 582 1042 544 1042 q 645 1016 619 1042 q 671 953 671 990 q 645 891 671 917 q 582 865 619 865 q 519 891 544 865 q 494 953 494 917 z "},"å":{"ha":939,"x_min":50,"x_max":850,"o":"m 390 779 q 557 733 488 779 q 656 610 626 688 l 656 769 l 850 769 l 850 0 l 656 0 l 656 161 q 557 37 626 83 q 390 -10 488 -10 q 215 38 293 -10 q 94 174 138 85 q 50 385 50 264 q 94 595 50 506 q 215 732 138 685 q 390 779 293 779 m 451 608 q 304 549 360 608 q 249 385 249 489 q 304 222 249 281 q 451 163 360 163 q 598 223 540 163 q 656 385 656 283 q 598 548 656 488 q 451 608 540 608 m 450 1156 q 564 1113 518 1156 q 610 996 610 1069 q 564 879 610 922 q 450 836 518 836 q 336 880 382 836 q 290 996 290 924 q 336 1112 290 1068 q 450 1156 382 1156 m 450 1075 q 395 1053 417 1075 q 374 996 374 1032 q 395 938 374 960 q 450 917 417 917 q 506 938 483 917 q 528 996 528 960 q 506 1053 528 1032 q 450 1075 483 1075 z "},"æ":{"ha":1508,"x_min":50,"x_max":1458,"o":"m 1458 414 q 1453 347 1458 376 l 857 347 q 919 195 864 244 q 1057 146 974 146 q 1179 179 1131 146 q 1242 271 1228 213 l 1449 271 q 1339 69 1426 147 q 1122 -10 1251 -10 q 951 35 1024 -10 q 850 161 879 79 l 850 0 l 656 0 l 656 161 q 557 37 626 83 q 390 -10 488 -10 q 215 38 293 -10 q 94 174 138 85 q 50 385 50 264 q 94 595 50 506 q 215 732 138 685 q 390 779 293 779 q 557 733 488 779 q 656 610 626 688 l 656 769 l 850 769 l 850 608 q 951 735 879 690 q 1122 779 1024 779 q 1301 732 1225 779 q 1417 602 1376 685 q 1458 414 1458 519 m 1261 433 q 1207 576 1265 528 q 1063 625 1149 625 q 923 578 981 625 q 857 433 865 531 l 1261 433 m 451 163 q 598 223 540 163 q 656 385 656 283 q 598 548 656 488 q 451 608 540 608 q 304 549 360 608 q 249 385 249 489 q 304 222 249 281 q 451 163 360 163 z "},"ç":{"ha":857,"x_min":50,"x_max":807,"o":"m 435 779 q 683 699 583 779 q 807 479 782 618 l 600 479 q 543 576 588 540 q 431 611 499 611 q 301 553 353 611 q 249 385 249 496 q 301 216 249 274 q 431 158 353 158 q 543 194 499 158 q 600 290 588 229 l 807 290 q 683 71 782 151 q 435 -10 583 -10 q 235 38 322 -10 q 99 175 147 86 q 50 385 50 264 q 99 595 50 506 q 235 732 147 685 q 435 779 322 779 m 460 -72 q 585 -106 533 -69 q 638 -218 638 -142 q 585 -330 638 -293 q 454 -367 532 -367 l 275 -367 l 275 -261 l 433 -261 q 504 -211 504 -261 q 487 -178 504 -190 q 433 -165 469 -165 l 342 -165 l 342 10 l 460 10 l 460 -72 z "},"è":{"ha":863,"x_min":50,"x_max":813,"o":"m 813 414 q 806 347 813 385 l 242 347 q 297 196 246 244 q 425 147 349 147 q 538 181 493 147 q 596 271 583 214 l 803 271 q 738 126 788 190 q 609 26 688 63 q 435 -10 531 -10 q 235 38 322 -10 q 99 175 147 86 q 50 385 50 264 q 99 595 50 506 q 235 732 147 685 q 435 779 322 779 q 634 732 549 779 q 766 602 719 685 q 813 414 813 519 m 615 433 q 566 576 619 528 q 435 625 513 625 q 301 576 356 625 q 242 433 247 528 l 615 433 m 536 961 l 536 828 l 217 978 l 217 1128 l 536 961 z "},"é":{"ha":863,"x_min":50,"x_max":813,"o":"m 813 414 q 806 347 813 385 l 242 347 q 297 196 246 244 q 425 147 349 147 q 538 181 493 147 q 596 271 583 214 l 803 271 q 738 126 788 190 q 609 26 688 63 q 435 -10 531 -10 q 235 38 322 -10 q 99 175 147 86 q 50 385 50 264 q 99 595 50 506 q 235 732 147 685 q 435 779 322 779 q 634 732 549 779 q 766 602 719 685 q 813 414 813 519 m 615 433 q 566 576 619 528 q 435 625 513 625 q 301 576 356 625 q 242 433 247 528 l 615 433 m 642 978 l 322 828 l 322 961 l 642 1128 l 642 978 z "},"ê":{"ha":863,"x_min":50,"x_max":813,"o":"m 813 414 q 806 347 813 385 l 242 347 q 297 196 246 244 q 425 147 349 147 q 538 181 493 147 q 596 271 583 214 l 803 271 q 738 126 788 190 q 609 26 688 63 q 435 -10 531 -10 q 235 38 322 -10 q 99 175 147 86 q 50 385 50 264 q 99 595 50 506 q 235 732 147 685 q 435 779 322 779 q 634 732 549 779 q 766 602 719 685 q 813 414 813 519 m 615 433 q 566 576 619 528 q 435 625 513 625 q 301 576 356 625 q 242 433 247 528 l 615 433 m 432 956 l 225 838 l 225 969 l 432 1085 l 638 969 l 638 838 l 432 956 z "},"ë":{"ha":863,"x_min":50,"x_max":813,"o":"m 813 414 q 806 347 813 385 l 242 347 q 297 196 246 244 q 425 147 349 147 q 538 181 493 147 q 596 271 583 214 l 803 271 q 738 126 788 190 q 609 26 688 63 q 435 -10 531 -10 q 235 38 322 -10 q 99 175 147 86 q 50 385 50 264 q 99 595 50 506 q 235 732 147 685 q 435 779 322 779 q 634 732 549 779 q 766 602 719 685 q 813 414 813 519 m 615 433 q 566 576 619 528 q 435 625 513 625 q 301 576 356 625 q 242 433 247 528 l 615 433 m 213 953 q 238 1016 213 990 q 300 1042 264 1042 q 364 1016 339 1042 q 389 953 389 990 q 364 891 389 917 q 300 865 339 865 q 238 891 264 865 q 213 953 213 917 m 475 953 q 500 1016 475 990 q 563 1042 525 1042 q 626 1016 600 1042 q 651 953 651 990 q 626 891 651 917 q 563 865 600 865 q 500 891 525 865 q 475 953 475 917 z "},"ì":{"ha":415,"x_min":-7,"x_max":313,"o":"m 306 769 l 306 0 l 110 0 l 110 769 l 306 769 m 313 961 l 313 828 l -7 978 l -7 1128 l 313 961 z "},"í":{"ha":415,"x_min":99,"x_max":418,"o":"m 306 769 l 306 0 l 110 0 l 110 769 l 306 769 m 418 978 l 99 828 l 99 961 l 418 1128 l 418 978 z "},"î":{"ha":415,"x_min":1,"x_max":414,"o":"m 306 769 l 306 0 l 110 0 l 110 769 l 306 769 m 208 956 l 1 838 l 1 969 l 208 1085 l 414 969 l 414 838 l 208 956 z "},"ï":{"ha":415,"x_min":-11,"x_max":428,"o":"m 306 769 l 306 0 l 110 0 l 110 769 l 306 769 m -11 953 q 15 1016 -11 990 q 76 1042 40 1042 q 140 1016 115 1042 q 165 953 165 990 q 140 891 165 917 q 76 865 115 865 q 15 891 40 865 q -11 953 -11 917 m 251 953 q 276 1016 251 990 q 339 1042 301 1042 q 402 1016 376 1042 q 428 953 428 990 q 402 891 428 917 q 339 865 376 865 q 276 891 301 865 q 251 953 251 917 z "},"ð":{"ha":894,"x_min":50,"x_max":844,"o":"m 658 925 q 797 694 749 818 q 844 435 844 569 q 793 193 844 293 q 653 42 742 93 q 453 -8 565 -8 q 247 42 339 -8 q 103 183 156 92 q 50 396 50 275 q 99 599 50 511 q 234 733 147 686 q 431 781 321 781 q 549 751 494 781 q 633 661 603 721 q 525 883 599 785 l 360 831 l 360 900 l 481 938 q 385 1028 436 986 l 558 1028 q 610 979 576 1013 l 750 1024 l 750 954 l 658 925 m 453 161 q 590 219 536 161 q 644 385 644 276 q 617 510 644 458 q 546 586 590 561 q 450 611 501 611 q 307 556 364 611 q 250 394 250 500 q 308 222 250 282 q 453 161 367 161 z "},"ñ":{"ha":922,"x_min":89,"x_max":839,"o":"m 547 781 q 760 693 681 781 q 839 447 839 606 l 839 0 l 644 0 l 644 425 q 597 567 644 517 q 468 618 550 618 q 335 564 385 618 q 285 408 285 510 l 285 0 l 89 0 l 89 769 l 285 769 l 285 615 q 385 737 315 693 q 547 781 456 781 m 376 1029 q 428 1019 406 1029 q 481 992 450 1010 q 522 969 506 976 q 556 963 538 963 q 597 979 581 963 q 617 1028 613 996 l 718 1028 q 660 891 704 936 q 549 846 617 846 q 497 856 519 846 q 442 883 474 865 q 402 904 417 897 q 369 911 388 911 q 308 846 318 911 l 208 846 q 376 1029 238 1029 z "},"ò":{"ha":889,"x_min":50,"x_max":839,"o":"m 444 779 q 647 732 557 779 q 788 595 736 685 q 839 385 839 506 q 788 175 839 264 q 647 38 736 86 q 444 -10 557 -10 q 242 38 332 -10 q 101 175 153 86 q 50 385 50 264 q 101 595 50 506 q 242 732 153 685 q 444 779 332 779 m 444 610 q 306 552 363 610 q 249 385 249 494 q 306 217 249 275 q 444 160 363 160 q 583 217 526 160 q 640 385 640 275 q 583 552 640 494 q 444 610 526 610 m 549 961 l 549 828 l 229 978 l 229 1128 l 549 961 z "},"ó":{"ha":889,"x_min":50,"x_max":839,"o":"m 444 779 q 647 732 557 779 q 788 595 736 685 q 839 385 839 506 q 788 175 839 264 q 647 38 736 86 q 444 -10 557 -10 q 242 38 332 -10 q 101 175 153 86 q 50 385 50 264 q 101 595 50 506 q 242 732 153 685 q 444 779 332 779 m 444 610 q 306 552 363 610 q 249 385 249 494 q 306 217 249 275 q 444 160 363 160 q 583 217 526 160 q 640 385 640 275 q 583 552 640 494 q 444 610 526 610 m 654 978 l 335 828 l 335 961 l 654 1128 l 654 978 z "},"ô":{"ha":889,"x_min":50,"x_max":839,"o":"m 444 779 q 647 732 557 779 q 788 595 736 685 q 839 385 839 506 q 788 175 839 264 q 647 38 736 86 q 444 -10 557 -10 q 242 38 332 -10 q 101 175 153 86 q 50 385 50 264 q 101 595 50 506 q 242 732 153 685 q 444 779 332 779 m 444 610 q 306 552 363 610 q 249 385 249 494 q 306 217 249 275 q 444 160 363 160 q 583 217 526 160 q 640 385 640 275 q 583 552 640 494 q 444 610 526 610 m 446 956 l 239 838 l 239 969 l 446 1085 l 651 969 l 651 838 l 446 956 z "},"õ":{"ha":889,"x_min":50,"x_max":839,"o":"m 444 779 q 647 732 557 779 q 788 595 736 685 q 839 385 839 506 q 788 175 839 264 q 647 38 736 86 q 444 -10 557 -10 q 242 38 332 -10 q 101 175 153 86 q 50 385 50 264 q 101 595 50 506 q 242 732 153 685 q 444 779 332 779 m 444 610 q 306 552 363 610 q 249 385 249 494 q 306 217 249 275 q 444 160 363 160 q 583 217 526 160 q 640 385 640 275 q 583 552 640 494 q 444 610 526 610 m 358 1029 q 410 1019 388 1029 q 463 992 432 1010 q 503 969 488 976 q 538 963 519 963 q 578 979 563 963 q 599 1028 594 996 l 700 1028 q 642 891 686 936 q 531 846 599 846 q 478 856 501 846 q 424 883 456 865 q 384 904 399 897 q 351 911 369 911 q 290 846 300 911 l 190 846 q 358 1029 219 1029 z "},"ö":{"ha":889,"x_min":50,"x_max":839,"o":"m 444 779 q 647 732 557 779 q 788 595 736 685 q 839 385 839 506 q 788 175 839 264 q 647 38 736 86 q 444 -10 557 -10 q 242 38 332 -10 q 101 175 153 86 q 50 385 50 264 q 101 595 50 506 q 242 732 153 685 q 444 779 332 779 m 444 610 q 306 552 363 610 q 249 385 249 494 q 306 217 249 275 q 444 160 363 160 q 583 217 526 160 q 640 385 640 275 q 583 552 640 494 q 444 610 526 610 m 226 953 q 252 1016 226 990 q 314 1042 278 1042 q 378 1016 353 1042 q 403 953 403 990 q 378 891 403 917 q 314 865 353 865 q 252 891 278 865 q 226 953 226 917 m 489 953 q 514 1016 489 990 q 576 1042 539 1042 q 640 1016 614 1042 q 665 953 665 990 q 640 891 665 917 q 576 865 614 865 q 514 891 539 865 q 489 953 489 917 z "},"÷":{"ha":786,"x_min":39,"x_max":747,"o":"m 497 911 l 497 707 l 286 707 l 286 911 l 497 911 m 747 583 l 747 406 l 39 406 l 39 583 l 747 583 m 497 285 l 497 81 l 286 81 l 286 285 l 497 285 z "},"ø":{"ha":876,"x_min":39,"x_max":840,"o":"m 736 657 q 807 538 782 607 q 832 385 832 468 q 781 175 832 264 q 640 38 729 86 q 438 -10 550 -10 q 194 64 293 -10 l 136 0 l 39 0 l 140 111 q 68 232 93 163 q 43 385 43 301 q 94 595 43 506 q 235 732 146 685 q 438 779 325 779 q 683 706 579 779 l 742 769 l 840 769 l 736 657 m 242 385 q 271 254 242 310 l 558 569 q 438 610 510 610 q 299 552 356 610 q 242 385 242 494 m 633 385 q 606 513 633 457 l 318 199 q 438 160 369 160 q 576 217 519 160 q 633 385 633 275 z "},"ù":{"ha":914,"x_min":75,"x_max":825,"o":"m 825 769 l 825 0 l 629 0 l 629 156 q 528 34 599 78 q 367 -10 458 -10 q 154 78 233 -10 q 75 322 75 165 l 75 769 l 269 769 l 269 344 q 317 202 269 253 q 444 151 364 151 q 579 206 529 151 q 629 361 629 260 l 629 769 l 825 769 m 554 961 l 554 828 l 235 978 l 235 1128 l 554 961 z "},"ú":{"ha":914,"x_min":75,"x_max":825,"o":"m 825 769 l 825 0 l 629 0 l 629 156 q 528 34 599 78 q 367 -10 458 -10 q 154 78 233 -10 q 75 322 75 165 l 75 769 l 269 769 l 269 344 q 317 202 269 253 q 444 151 364 151 q 579 206 529 151 q 629 361 629 260 l 629 769 l 825 769 m 660 978 l 340 828 l 340 961 l 660 1128 l 660 978 z "},"û":{"ha":914,"x_min":75,"x_max":825,"o":"m 825 769 l 825 0 l 629 0 l 629 156 q 528 34 599 78 q 367 -10 458 -10 q 154 78 233 -10 q 75 322 75 165 l 75 769 l 269 769 l 269 344 q 317 202 269 253 q 444 151 364 151 q 579 206 529 151 q 629 361 629 260 l 629 769 l 825 769 m 450 956 l 243 838 l 243 969 l 450 1085 l 656 969 l 656 838 l 450 956 z "},"ü":{"ha":914,"x_min":75,"x_max":825,"o":"m 825 769 l 825 0 l 629 0 l 629 156 q 528 34 599 78 q 367 -10 458 -10 q 154 78 233 -10 q 75 322 75 165 l 75 769 l 269 769 l 269 344 q 317 202 269 253 q 444 151 364 151 q 579 206 529 151 q 629 361 629 260 l 629 769 l 825 769 m 231 953 q 256 1016 231 990 q 318 1042 282 1042 q 382 1016 357 1042 q 407 953 407 990 q 382 891 407 917 q 318 865 357 865 q 256 891 282 865 q 231 953 231 917 m 493 953 q 518 1016 493 990 q 581 1042 543 1042 q 644 1016 618 1042 q 669 953 669 990 q 644 891 669 917 q 581 865 618 865 q 518 891 543 865 q 493 953 493 917 z "},"ý":{"ha":843,"x_min":3,"x_max":840,"o":"m 221 769 l 431 247 l 625 769 l 840 769 l 369 -367 l 153 -367 l 326 22 l 3 769 l 221 769 m 632 978 l 313 828 l 313 961 l 632 1128 l 632 978 z "},"þ":{"ha":939,"x_min":89,"x_max":889,"o":"m 536 778 q 715 728 635 778 q 842 588 796 678 q 889 382 889 499 q 842 177 889 265 q 715 40 796 89 q 536 -8 635 -8 q 384 33 447 -8 q 285 149 321 74 l 285 -367 l 89 -367 l 89 1028 l 285 1028 l 285 632 q 383 740 319 701 q 536 778 447 778 m 489 607 q 387 581 433 607 q 313 506 340 556 q 285 385 285 456 q 313 264 285 314 q 388 188 340 214 q 489 163 435 163 q 633 219 576 163 q 690 382 690 275 q 633 548 690 489 q 489 607 575 607 z "},"ÿ":{"ha":843,"x_min":3,"x_max":840,"o":"m 221 769 l 431 247 l 625 769 l 840 769 l 369 -367 l 153 -367 l 326 22 l 3 769 l 221 769 m 203 953 q 228 1016 203 990 q 290 1042 254 1042 q 354 1016 329 1042 q 379 953 379 990 q 354 891 379 917 q 290 865 329 865 q 228 891 254 865 q 203 953 203 917 m 465 953 q 490 1016 465 990 q 553 1042 515 1042 q 616 1016 590 1042 q 642 953 642 990 q 616 891 642 917 q 553 865 590 865 q 490 891 515 865 q 465 953 465 917 z "},"Ā":{"ha":978,"x_min":17,"x_max":961,"o":"m 686 197 l 293 197 l 224 0 l 17 0 l 378 969 l 601 969 l 961 0 l 754 0 l 686 197 m 633 346 l 489 760 l 344 346 l 633 346 m 754 1228 l 754 1096 l 224 1096 l 224 1228 l 754 1228 z "},"ā":{"ha":939,"x_min":50,"x_max":850,"o":"m 390 779 q 557 733 488 779 q 656 610 626 688 l 656 769 l 850 769 l 850 0 l 656 0 l 656 161 q 557 37 626 83 q 390 -10 488 -10 q 215 38 293 -10 q 94 174 138 85 q 50 385 50 264 q 94 595 50 506 q 215 732 138 685 q 390 779 293 779 m 451 608 q 304 549 360 608 q 249 385 249 489 q 304 222 249 281 q 451 163 360 163 q 598 223 540 163 q 656 385 656 283 q 598 548 656 488 q 451 608 540 608 m 717 1017 l 717 885 l 186 885 l 186 1017 l 717 1017 z "},"Ă":{"ha":978,"x_min":17,"x_max":961,"o":"m 686 197 l 293 197 l 224 0 l 17 0 l 378 969 l 601 969 l 961 0 l 754 0 l 686 197 m 633 346 l 489 760 l 344 346 l 633 346 m 489 1053 q 327 1114 388 1053 q 267 1281 267 1175 l 267 1297 l 364 1297 q 489 1194 364 1194 q 614 1297 614 1194 l 711 1297 l 711 1281 q 651 1114 711 1175 q 489 1053 590 1053 z "},"ă":{"ha":939,"x_min":50,"x_max":850,"o":"m 390 779 q 557 733 488 779 q 656 610 626 688 l 656 769 l 850 769 l 850 0 l 656 0 l 656 161 q 557 37 626 83 q 390 -10 488 -10 q 215 38 293 -10 q 94 174 138 85 q 50 385 50 264 q 94 595 50 506 q 215 732 138 685 q 390 779 293 779 m 451 608 q 304 549 360 608 q 249 385 249 489 q 304 222 249 281 q 451 163 360 163 q 598 223 540 163 q 656 385 656 283 q 598 548 656 488 q 451 608 540 608 m 450 842 q 288 903 349 842 q 228 1069 228 964 l 228 1086 l 325 1086 q 450 983 325 983 q 575 1086 575 983 l 672 1086 l 672 1069 q 612 903 672 964 q 450 842 551 842 z "},"Ą":{"ha":978,"x_min":17,"x_max":1017,"o":"m 1017 -183 l 1017 -287 l 839 -287 q 704 -249 758 -287 q 650 -133 650 -210 q 753 4 650 -33 l 686 197 l 293 197 l 224 0 l 17 0 l 378 969 l 601 969 l 957 13 l 957 -74 l 857 -74 q 803 -87 822 -74 q 783 -128 783 -101 q 803 -169 783 -154 q 857 -183 822 -183 l 1017 -183 m 633 346 l 489 761 l 344 346 l 633 346 z "},"ą":{"ha":939,"x_min":50,"x_max":910,"o":"m 390 779 q 557 733 488 779 q 656 610 626 688 l 656 769 l 850 769 l 850 0 l 656 0 l 656 161 q 557 37 626 83 q 390 -10 488 -10 q 215 38 293 -10 q 94 174 138 85 q 50 385 50 264 q 94 595 50 506 q 215 732 138 685 q 390 779 293 779 m 451 608 q 304 549 360 608 q 249 385 249 489 q 304 222 249 281 q 451 163 360 163 q 598 223 540 163 q 656 385 656 283 q 598 548 656 488 q 451 608 540 608 m 850 22 l 850 -72 l 751 -72 q 697 -87 717 -72 q 676 -126 676 -101 q 697 -167 676 -153 q 751 -182 717 -182 l 910 -182 l 910 -287 l 732 -287 q 597 -249 651 -287 q 543 -133 543 -210 q 594 -17 543 -57 q 715 22 646 22 l 850 22 z "},"Ć":{"ha":1054,"x_min":58,"x_max":996,"o":"m 532 990 q 836 896 715 990 q 996 639 957 801 l 790 639 q 691 764 758 718 q 529 810 624 810 q 389 771 451 810 q 292 660 326 732 q 257 490 257 588 q 292 322 257 394 q 389 211 326 250 q 529 172 451 172 q 691 218 624 172 q 790 343 758 264 l 996 343 q 836 86 957 181 q 532 -8 715 -8 q 284 55 392 -8 q 117 232 176 118 q 58 490 58 346 q 117 750 58 636 q 283 927 176 864 q 532 990 390 990 m 738 1189 l 418 1039 l 418 1172 l 738 1339 l 738 1189 z "},"ć":{"ha":857,"x_min":50,"x_max":807,"o":"m 435 779 q 683 699 583 779 q 807 479 782 618 l 600 479 q 543 576 588 540 q 431 611 499 611 q 301 553 353 611 q 249 385 249 496 q 301 216 249 274 q 431 158 353 158 q 543 194 499 158 q 600 290 588 229 l 807 290 q 683 71 782 151 q 435 -10 583 -10 q 235 38 322 -10 q 99 175 147 86 q 50 385 50 264 q 99 595 50 506 q 235 732 147 685 q 435 779 322 779 m 638 978 l 318 828 l 318 961 l 638 1128 l 638 978 z "},"Ċ":{"ha":1054,"x_min":58,"x_max":996,"o":"m 532 990 q 836 896 715 990 q 996 639 957 801 l 790 639 q 691 764 758 718 q 529 810 624 810 q 389 771 451 810 q 292 660 326 732 q 257 490 257 588 q 292 322 257 394 q 389 211 326 250 q 529 172 451 172 q 691 218 624 172 q 790 343 758 264 l 996 343 q 836 86 957 181 q 532 -8 715 -8 q 284 55 392 -8 q 117 232 176 118 q 58 490 58 346 q 117 750 58 636 q 283 927 176 864 q 532 990 390 990 m 439 1164 q 465 1227 439 1201 q 526 1253 490 1253 q 590 1227 564 1253 q 615 1164 615 1201 q 590 1102 615 1128 q 526 1076 564 1076 q 465 1102 490 1076 q 439 1164 439 1128 z "},"ċ":{"ha":857,"x_min":50,"x_max":807,"o":"m 435 779 q 683 699 583 779 q 807 479 782 618 l 600 479 q 543 576 588 540 q 431 611 499 611 q 301 553 353 611 q 249 385 249 496 q 301 216 249 274 q 431 158 353 158 q 543 194 499 158 q 600 290 588 229 l 807 290 q 683 71 782 151 q 435 -10 583 -10 q 235 38 322 -10 q 99 175 147 86 q 50 385 50 264 q 99 595 50 506 q 235 732 147 685 q 435 779 322 779 m 340 953 q 366 1016 340 990 q 428 1042 392 1042 q 491 1016 465 1042 q 517 953 517 990 q 491 891 517 917 q 428 865 465 865 q 366 891 392 865 q 340 953 340 917 z "},"Č":{"ha":1054,"x_min":58,"x_max":996,"o":"m 532 990 q 836 896 715 990 q 996 639 957 801 l 790 639 q 691 764 758 718 q 529 810 624 810 q 389 771 451 810 q 292 660 326 732 q 257 490 257 588 q 292 322 257 394 q 389 211 326 250 q 529 172 451 172 q 691 218 624 172 q 790 343 758 264 l 996 343 q 836 86 957 181 q 532 -8 715 -8 q 284 55 392 -8 q 117 232 176 118 q 58 490 58 346 q 117 750 58 636 q 283 927 176 864 q 532 990 390 990 m 733 1163 l 528 1047 l 321 1163 l 321 1294 l 528 1176 l 733 1294 l 733 1163 z "},"č":{"ha":857,"x_min":50,"x_max":807,"o":"m 435 779 q 683 699 583 779 q 807 479 782 618 l 600 479 q 543 576 588 540 q 431 611 499 611 q 301 553 353 611 q 249 385 249 496 q 301 216 249 274 q 431 158 353 158 q 543 194 499 158 q 600 290 588 229 l 807 290 q 683 71 782 151 q 435 -10 583 -10 q 235 38 322 -10 q 99 175 147 86 q 50 385 50 264 q 99 595 50 506 q 235 732 147 685 q 435 779 322 779 m 635 951 l 429 836 l 222 951 l 222 1083 l 429 965 l 635 1083 l 635 951 z "},"Ď":{"ha":1010,"x_min":89,"x_max":951,"o":"m 951 492 q 890 235 951 346 q 713 62 829 124 q 438 0 597 0 l 89 0 l 89 981 l 438 981 q 713 920 597 981 q 890 749 829 860 q 951 492 951 639 m 421 175 q 666 258 579 175 q 753 492 753 342 q 666 726 753 643 q 421 810 579 810 l 285 810 l 285 175 l 421 175 m 726 1163 l 521 1047 l 314 1163 l 314 1294 l 521 1176 l 726 1294 l 726 1163 z "},"ď":{"ha":1108,"x_min":50,"x_max":1117,"o":"m 390 779 q 556 733 488 779 q 656 610 625 688 l 656 1028 l 850 1028 l 850 0 l 656 0 l 656 161 q 556 37 625 83 q 390 -10 488 -10 q 215 38 293 -10 q 94 174 138 85 q 50 385 50 264 q 94 595 50 506 q 215 732 138 685 q 390 779 293 779 m 1093 1028 q 1117 878 1117 951 q 1072 738 1117 789 q 942 688 1028 688 l 942 764 q 995 785 978 764 q 1013 850 1013 806 l 1013 876 l 932 876 l 932 1028 l 1093 1028 m 451 608 q 304 549 360 608 q 249 385 249 489 q 304 222 249 281 q 451 163 360 163 q 598 223 540 163 q 656 385 656 283 q 598 548 656 488 q 451 608 540 608 z "},"Đ":{"ha":1032,"x_min":6,"x_max":974,"o":"m 460 981 q 735 920 619 981 q 913 749 851 860 q 974 492 974 639 q 913 235 974 346 q 735 62 851 124 q 460 0 619 0 l 111 0 l 111 414 l 6 414 l 6 571 l 111 571 l 111 981 l 460 981 m 443 175 q 688 258 601 175 q 775 492 775 342 q 688 726 775 643 q 443 810 601 810 l 307 810 l 307 571 l 544 571 l 544 414 l 307 414 l 307 175 l 443 175 z "},"đ":{"ha":956,"x_min":50,"x_max":942,"o":"m 942 854 l 850 854 l 850 0 l 656 0 l 656 161 q 556 37 625 83 q 390 -10 488 -10 q 215 38 293 -10 q 94 174 138 85 q 50 385 50 264 q 94 595 50 506 q 215 732 138 685 q 390 779 293 779 q 556 733 488 779 q 656 610 625 688 l 656 854 l 492 854 l 492 944 l 656 944 l 656 1028 l 850 1028 l 850 944 l 942 944 l 942 854 m 451 163 q 598 223 540 163 q 656 385 656 283 q 598 548 656 488 q 451 608 540 608 q 304 549 360 608 q 249 385 249 489 q 304 222 249 281 q 451 163 360 163 z "},"Ē":{"ha":729,"x_min":89,"x_max":674,"o":"m 285 825 l 285 571 l 632 571 l 632 421 l 285 421 l 285 157 l 674 157 l 674 0 l 89 0 l 89 981 l 674 981 l 674 825 l 285 825 m 647 1228 l 647 1096 l 117 1096 l 117 1228 l 647 1228 z "},"ē":{"ha":863,"x_min":50,"x_max":813,"o":"m 813 414 q 806 347 813 385 l 242 347 q 297 196 246 244 q 425 147 349 147 q 538 181 493 147 q 596 271 583 214 l 803 271 q 738 126 788 190 q 609 26 688 63 q 435 -10 531 -10 q 235 38 322 -10 q 99 175 147 86 q 50 385 50 264 q 99 595 50 506 q 235 732 147 685 q 435 779 322 779 q 634 732 549 779 q 766 602 719 685 q 813 414 813 519 m 615 433 q 566 576 619 528 q 435 625 513 625 q 301 576 356 625 q 242 433 247 528 l 615 433 m 697 1017 l 697 885 l 167 885 l 167 1017 l 697 1017 z "},"Ĕ":{"ha":729,"x_min":89,"x_max":674,"o":"m 285 825 l 285 571 l 632 571 l 632 421 l 285 421 l 285 157 l 674 157 l 674 0 l 89 0 l 89 981 l 674 981 l 674 825 l 285 825 m 381 1053 q 219 1114 279 1053 q 158 1281 158 1175 l 158 1297 l 256 1297 q 381 1194 256 1194 q 506 1297 506 1194 l 603 1297 l 603 1281 q 542 1114 603 1175 q 381 1053 482 1053 z "},"ĕ":{"ha":863,"x_min":50,"x_max":813,"o":"m 813 414 q 806 347 813 385 l 242 347 q 297 196 246 244 q 425 147 349 147 q 538 181 493 147 q 596 271 583 214 l 803 271 q 738 126 788 190 q 609 26 688 63 q 435 -10 531 -10 q 235 38 322 -10 q 99 175 147 86 q 50 385 50 264 q 99 595 50 506 q 235 732 147 685 q 435 779 322 779 q 634 732 549 779 q 766 602 719 685 q 813 414 813 519 m 615 433 q 566 576 619 528 q 435 625 513 625 q 301 576 356 625 q 242 433 247 528 l 615 433 m 431 842 q 269 903 329 842 q 208 1069 208 964 l 208 1086 l 306 1086 q 431 983 306 983 q 556 1086 556 983 l 653 1086 l 653 1069 q 592 903 653 964 q 431 842 532 842 z "},"Ė":{"ha":729,"x_min":89,"x_max":674,"o":"m 285 825 l 285 571 l 632 571 l 632 421 l 285 421 l 285 157 l 674 157 l 674 0 l 89 0 l 89 981 l 674 981 l 674 825 l 285 825 m 293 1164 q 319 1227 293 1201 q 381 1253 344 1253 q 444 1227 418 1253 q 469 1164 469 1201 q 444 1102 469 1128 q 381 1076 418 1076 q 319 1102 344 1076 q 293 1164 293 1128 z "},"ė":{"ha":863,"x_min":50,"x_max":813,"o":"m 813 414 q 806 347 813 385 l 242 347 q 297 196 246 244 q 425 147 349 147 q 538 181 493 147 q 596 271 583 214 l 803 271 q 738 126 788 190 q 609 26 688 63 q 435 -10 531 -10 q 235 38 322 -10 q 99 175 147 86 q 50 385 50 264 q 99 595 50 506 q 235 732 147 685 q 435 779 322 779 q 634 732 549 779 q 766 602 719 685 q 813 414 813 519 m 615 433 q 566 576 619 528 q 435 625 513 625 q 301 576 356 625 q 242 433 247 528 l 615 433 m 343 953 q 369 1016 343 990 q 431 1042 394 1042 q 494 1016 468 1042 q 519 953 519 990 q 494 891 519 917 q 431 865 468 865 q 369 891 394 865 q 343 953 343 917 z "},"Ę":{"ha":729,"x_min":89,"x_max":696,"o":"m 285 825 l 285 571 l 632 571 l 632 421 l 285 421 l 285 157 l 674 157 l 674 0 l 89 0 l 89 981 l 674 981 l 674 825 l 285 825 m 636 85 l 636 -10 l 538 -10 q 483 -24 503 -10 q 463 -64 463 -39 q 483 -105 463 -90 q 538 -119 503 -119 l 696 -119 l 696 -225 l 518 -225 q 383 -186 438 -225 q 329 -71 329 -147 q 381 45 329 6 q 501 85 432 85 l 636 85 z "},"ę":{"ha":863,"x_min":50,"x_max":813,"o":"m 813 414 q 806 347 813 385 l 242 347 q 299 197 247 246 q 426 147 351 147 q 538 181 493 147 q 596 271 583 215 l 803 271 q 708 94 783 167 q 521 0 633 21 q 497 -10 504 -3 q 490 -32 490 -18 q 512 -69 490 -56 q 574 -83 533 -83 l 715 -83 l 715 -189 l 546 -189 q 411 -150 465 -189 q 357 -35 357 -111 l 357 0 q 134 123 218 21 q 50 385 50 225 q 99 595 50 506 q 235 732 147 685 q 435 779 322 779 q 634 732 549 779 q 766 602 719 685 q 813 414 813 519 m 615 433 q 566 576 619 528 q 435 625 513 625 q 301 576 356 625 q 242 433 247 528 l 615 433 z "},"Ě":{"ha":729,"x_min":89,"x_max":674,"o":"m 285 825 l 285 571 l 632 571 l 632 421 l 285 421 l 285 157 l 674 157 l 674 0 l 89 0 l 89 981 l 674 981 l 674 825 l 285 825 m 588 1163 l 382 1047 l 175 1163 l 175 1294 l 382 1176 l 588 1294 l 588 1163 z "},"ě":{"ha":863,"x_min":50,"x_max":813,"o":"m 813 414 q 806 347 813 385 l 242 347 q 297 196 246 244 q 425 147 349 147 q 538 181 493 147 q 596 271 583 214 l 803 271 q 738 126 788 190 q 609 26 688 63 q 435 -10 531 -10 q 235 38 322 -10 q 99 175 147 86 q 50 385 50 264 q 99 595 50 506 q 235 732 147 685 q 435 779 322 779 q 634 732 549 779 q 766 602 719 685 q 813 414 813 519 m 615 433 q 566 576 619 528 q 435 625 513 625 q 301 576 356 625 q 242 433 247 528 l 615 433 m 638 951 l 432 836 l 225 951 l 225 1083 l 432 965 l 638 1083 l 638 951 z "},"Ğ":{"ha":1067,"x_min":58,"x_max":1008,"o":"m 543 990 q 840 902 722 990 q 992 664 958 814 l 786 664 q 694 770 757 731 q 544 810 631 810 q 394 771 460 810 q 293 660 329 732 q 257 490 257 588 q 340 250 257 336 q 565 164 422 164 q 747 226 671 164 q 844 400 822 289 l 513 400 l 513 540 l 1008 540 l 1008 351 q 927 172 988 254 q 769 41 867 90 q 544 -8 671 -8 q 290 55 400 -8 q 119 231 179 118 q 58 490 58 344 q 119 749 58 636 q 289 926 179 863 q 543 990 399 990 m 533 1053 q 372 1114 432 1053 q 311 1281 311 1175 l 311 1297 l 408 1297 q 533 1194 408 1194 q 658 1297 658 1194 l 756 1297 l 756 1281 q 695 1114 756 1175 q 533 1053 635 1053 z "},"ğ":{"ha":939,"x_min":50,"x_max":850,"o":"m 390 779 q 557 733 488 779 q 656 610 626 688 l 656 769 l 850 769 l 850 -3 q 808 -195 850 -110 q 681 -329 765 -281 q 478 -378 597 -378 q 208 -299 311 -378 q 83 -83 106 -219 l 276 -83 q 341 -174 293 -142 q 464 -207 389 -207 q 603 -156 550 -207 q 656 -3 656 -106 l 656 161 q 557 37 626 83 q 390 -10 488 -10 q 215 38 293 -10 q 94 174 138 85 q 50 385 50 264 q 94 595 50 506 q 215 732 138 685 q 390 779 293 779 m 451 608 q 304 549 360 608 q 249 385 249 489 q 304 222 249 281 q 451 163 360 163 q 598 223 540 163 q 656 385 656 283 q 598 548 656 488 q 451 608 540 608 m 450 842 q 288 903 349 842 q 228 1069 228 964 l 228 1086 l 325 1086 q 450 983 325 983 q 575 1086 575 983 l 672 1086 l 672 1069 q 612 903 672 964 q 450 842 551 842 z "},"Ġ":{"ha":1067,"x_min":58,"x_max":1008,"o":"m 543 990 q 840 902 722 990 q 992 664 958 814 l 786 664 q 694 770 757 731 q 544 810 631 810 q 394 771 460 810 q 293 660 329 732 q 257 490 257 588 q 340 250 257 336 q 565 164 422 164 q 747 226 671 164 q 844 400 822 289 l 513 400 l 513 540 l 1008 540 l 1008 351 q 927 172 988 254 q 769 41 867 90 q 544 -8 671 -8 q 290 55 400 -8 q 119 231 179 118 q 58 490 58 344 q 119 749 58 636 q 289 926 179 863 q 543 990 399 990 m 446 1164 q 472 1227 446 1201 q 533 1253 497 1253 q 597 1227 571 1253 q 622 1164 622 1201 q 597 1102 622 1128 q 533 1076 571 1076 q 472 1102 497 1076 q 446 1164 446 1128 z "},"ġ":{"ha":939,"x_min":50,"x_max":850,"o":"m 390 779 q 557 733 488 779 q 656 610 626 688 l 656 769 l 850 769 l 850 -3 q 808 -195 850 -110 q 681 -329 765 -281 q 478 -378 597 -378 q 208 -299 311 -378 q 83 -83 106 -219 l 276 -83 q 341 -174 293 -142 q 464 -207 389 -207 q 603 -156 550 -207 q 656 -3 656 -106 l 656 161 q 557 37 626 83 q 390 -10 488 -10 q 215 38 293 -10 q 94 174 138 85 q 50 385 50 264 q 94 595 50 506 q 215 732 138 685 q 390 779 293 779 m 451 608 q 304 549 360 608 q 249 385 249 489 q 304 222 249 281 q 451 163 360 163 q 598 223 540 163 q 656 385 656 283 q 598 548 656 488 q 451 608 540 608 m 363 953 q 388 1016 363 990 q 450 1042 414 1042 q 513 1016 488 1042 q 539 953 539 990 q 513 891 539 917 q 450 865 488 865 q 388 891 414 865 q 363 953 363 917 z "},"Ģ":{"ha":1069,"x_min":58,"x_max":1008,"o":"m 543 990 q 840 902 722 990 q 992 664 958 814 l 786 664 q 694 770 757 731 q 544 810 631 810 q 394 771 460 810 q 293 660 329 732 q 257 490 257 588 q 340 250 257 336 q 565 164 422 164 q 747 226 671 164 q 844 400 822 289 l 513 400 l 513 540 l 1008 540 l 1008 351 q 927 172 988 254 q 769 41 867 90 q 544 -8 671 -8 q 290 55 400 -8 q 119 231 179 118 q 58 490 58 344 q 119 749 58 636 q 289 926 179 863 q 543 990 399 990 m 617 -62 q 639 -192 639 -125 q 594 -335 639 -283 q 465 -386 550 -386 l 465 -311 q 535 -218 535 -311 l 535 -206 l 458 -206 l 458 -62 l 617 -62 z "},"ģ":{"ha":939,"x_min":50,"x_max":850,"o":"m 399 829 q 375 979 375 906 q 419 1119 375 1068 q 549 1169 464 1169 l 549 1093 q 478 1006 478 1093 l 478 981 l 560 981 l 560 829 l 399 829 m 390 779 q 557 733 488 779 q 656 610 626 688 l 656 769 l 850 769 l 850 -3 q 808 -195 850 -110 q 681 -329 765 -281 q 478 -378 597 -378 q 208 -299 311 -378 q 83 -83 106 -219 l 276 -83 q 341 -174 293 -142 q 464 -207 389 -207 q 603 -156 550 -207 q 656 -3 656 -106 l 656 161 q 557 37 626 83 q 390 -10 488 -10 q 215 38 293 -10 q 94 174 138 85 q 50 385 50 264 q 94 595 50 506 q 215 732 138 685 q 390 779 293 779 m 451 608 q 304 549 360 608 q 249 385 249 489 q 304 222 249 281 q 451 163 360 163 q 598 223 540 163 q 656 385 656 283 q 598 548 656 488 q 451 608 540 608 z "},"Ĩ":{"ha":374,"x_min":-68,"x_max":442,"o":"m 285 981 l 285 0 l 89 0 l 89 981 l 285 981 m 100 1240 q 151 1231 129 1240 q 204 1203 174 1221 q 245 1181 229 1188 q 279 1174 261 1174 q 320 1190 304 1174 q 340 1239 336 1207 l 442 1239 q 384 1102 428 1147 q 272 1057 340 1057 q 220 1067 243 1057 q 165 1094 197 1076 q 126 1115 140 1108 q 93 1122 111 1122 q 32 1057 42 1122 l -68 1057 q 100 1240 -39 1240 z "},"ĩ":{"ha":415,"x_min":-47,"x_max":463,"o":"m 306 769 l 306 0 l 110 0 l 110 769 l 306 769 m 121 1029 q 172 1019 150 1029 q 225 992 194 1010 q 266 969 250 976 q 300 963 282 963 q 341 979 325 963 q 361 1028 357 996 l 463 1028 q 405 891 449 936 q 293 846 361 846 q 241 856 264 846 q 186 883 218 865 q 147 904 161 897 q 114 911 132 911 q 53 846 63 911 l -47 846 q 121 1029 -18 1029 z "},"Ī":{"ha":374,"x_min":-78,"x_max":453,"o":"m 285 981 l 285 0 l 89 0 l 89 981 l 285 981 m 453 1228 l 453 1096 l -78 1096 l -78 1228 l 453 1228 z "},"ī":{"ha":415,"x_min":-57,"x_max":474,"o":"m 306 769 l 306 0 l 110 0 l 110 769 l 306 769 m 474 1017 l 474 885 l -57 885 l -57 1017 l 474 1017 z "},"Ĭ":{"ha":374,"x_min":-35,"x_max":410,"o":"m 285 981 l 285 0 l 89 0 l 89 981 l 285 981 m 188 1053 q 26 1114 86 1053 q -35 1281 -35 1175 l -35 1297 l 63 1297 q 188 1194 63 1194 q 313 1297 313 1194 l 410 1297 l 410 1281 q 349 1114 410 1175 q 188 1053 289 1053 z "},"ĭ":{"ha":415,"x_min":-14,"x_max":431,"o":"m 306 769 l 306 0 l 110 0 l 110 769 l 306 769 m 208 842 q 47 903 107 842 q -14 1069 -14 964 l -14 1086 l 83 1086 q 208 983 83 983 q 333 1086 333 983 l 431 1086 l 431 1069 q 370 903 431 964 q 208 842 310 842 z "},"Į":{"ha":374,"x_min":-22,"x_max":344,"o":"m 285 981 l 285 0 l 89 0 l 89 981 l 285 981 m 285 22 l 285 -72 l 186 -72 q 131 -87 151 -72 q 111 -126 111 -101 q 131 -167 111 -153 q 186 -182 151 -182 l 344 -182 l 344 -287 l 167 -287 q 32 -249 86 -287 q -22 -133 -22 -210 q 29 -17 -22 -57 q 150 22 81 22 l 285 22 z "},"į":{"ha":374,"x_min":-22,"x_max":344,"o":"m 67 990 q 100 1067 67 1038 q 188 1097 133 1097 q 275 1067 242 1097 q 308 990 308 1038 q 275 915 308 944 q 188 885 242 885 q 100 915 133 885 q 67 990 67 944 m 285 769 l 285 0 l 89 0 l 89 769 l 285 769 m 285 22 l 285 -72 l 186 -72 q 131 -87 151 -72 q 111 -126 111 -101 q 131 -167 111 -153 q 186 -182 151 -182 l 344 -182 l 344 -287 l 167 -287 q 32 -249 86 -287 q -22 -133 -22 -210 q 29 -17 -22 -57 q 150 22 81 22 l 285 22 z "},"İ":{"ha":374,"x_min":89,"x_max":285,"o":"m 285 981 l 285 0 l 89 0 l 89 981 l 285 981 m 99 1164 q 124 1227 99 1201 q 186 1253 150 1253 q 249 1227 224 1253 q 275 1164 275 1201 q 249 1102 275 1128 q 186 1076 224 1076 q 124 1102 150 1076 q 99 1164 99 1128 z "},"ı":{"ha":415,"x_min":110,"x_max":306,"o":"m 306 769 l 306 0 l 110 0 l 110 769 l 306 769 z "},"Ķ":{"ha":939,"x_min":89,"x_max":885,"o":"m 469 499 l 885 0 l 647 0 l 285 449 l 285 0 l 89 0 l 89 981 l 285 981 l 285 540 l 649 981 l 885 981 l 469 499 m 544 -62 q 567 -192 567 -125 q 522 -335 567 -283 q 394 -386 478 -386 l 394 -311 q 464 -218 464 -311 l 464 -206 l 386 -206 l 386 -62 l 544 -62 z "},"ķ":{"ha":783,"x_min":89,"x_max":778,"o":"m 778 0 l 539 0 l 285 336 l 285 0 l 89 0 l 89 1028 l 285 1028 l 285 450 l 538 769 l 769 769 l 446 386 l 778 0 m 475 -62 q 497 -192 497 -125 q 453 -335 497 -283 q 324 -386 408 -386 l 324 -311 q 394 -218 394 -311 l 394 -206 l 317 -206 l 317 -62 l 475 -62 z "},"Ĺ":{"ha":642,"x_min":89,"x_max":614,"o":"m 285 150 l 614 150 l 614 0 l 89 0 l 89 981 l 285 981 l 285 150 m 482 1189 l 163 1039 l 163 1172 l 482 1339 l 482 1189 z "},"ĺ":{"ha":374,"x_min":89,"x_max":408,"o":"m 285 1028 l 285 0 l 89 0 l 89 1028 l 285 1028 m 408 1214 l 89 1064 l 89 1197 l 408 1364 l 408 1214 z "},"Ļ":{"ha":646,"x_min":89,"x_max":614,"o":"m 285 150 l 614 150 l 614 0 l 89 0 l 89 981 l 285 981 l 285 150 m 449 -62 q 471 -192 471 -125 q 426 -335 471 -283 q 297 -386 382 -386 l 297 -311 q 367 -218 367 -311 l 367 -206 l 290 -206 l 290 -62 l 449 -62 z "},"ļ":{"ha":374,"x_min":89,"x_max":290,"o":"m 285 1028 l 285 0 l 89 0 l 89 1028 l 285 1028 m 268 -62 q 290 -192 290 -125 q 246 -335 290 -283 q 117 -386 201 -386 l 117 -311 q 188 -218 188 -311 l 188 -206 l 110 -206 l 110 -62 l 268 -62 z "},"Ľ":{"ha":700,"x_min":89,"x_max":621,"o":"m 285 150 l 614 150 l 614 0 l 89 0 l 89 981 l 285 981 l 285 150 m 597 981 q 621 831 621 904 q 576 691 621 742 q 447 640 532 640 l 447 717 q 518 804 518 717 l 518 831 l 436 831 l 436 981 l 597 981 z "},"ľ":{"ha":536,"x_min":89,"x_max":544,"o":"m 285 1028 l 285 0 l 89 0 l 89 1028 l 285 1028 m 522 1028 q 544 878 544 956 q 501 738 544 789 q 371 688 457 688 l 371 764 q 424 785 407 764 q 442 850 442 806 l 442 876 l 361 876 l 361 1028 l 522 1028 z "},"Ŀ":{"ha":642,"x_min":89,"x_max":614,"o":"m 285 150 l 614 150 l 614 0 l 89 0 l 89 981 l 285 981 l 285 150 m 438 490 q 463 553 438 528 q 525 579 489 579 q 588 553 563 579 q 614 490 614 528 q 588 428 614 454 q 525 403 563 403 q 463 428 489 403 q 438 490 438 454 z "},"ŀ":{"ha":433,"x_min":89,"x_max":492,"o":"m 285 1028 l 285 0 l 89 0 l 89 1028 l 285 1028 m 315 514 q 341 577 315 551 q 403 603 367 603 q 466 577 440 603 q 492 514 492 551 q 466 452 492 478 q 403 426 440 426 q 341 452 367 426 q 315 514 315 478 z "},"Ł":{"ha":665,"x_min":14,"x_max":638,"o":"m 638 150 l 638 0 l 113 0 l 113 390 l 14 357 l 14 550 l 113 583 l 113 981 l 308 981 l 308 650 l 461 703 l 461 511 l 308 458 l 308 150 l 638 150 z "},"ł":{"ha":426,"x_min":14,"x_max":413,"o":"m 413 560 l 311 524 l 311 0 l 115 0 l 115 454 l 14 418 l 14 610 l 115 646 l 115 1028 l 311 1028 l 311 714 l 413 750 l 413 560 z "},"Ń":{"ha":1008,"x_min":89,"x_max":919,"o":"m 919 0 l 724 0 l 285 667 l 285 0 l 89 0 l 89 981 l 285 981 l 724 308 l 724 981 l 919 981 l 919 0 m 714 1189 l 394 1039 l 394 1172 l 714 1339 l 714 1189 z "},"ń":{"ha":922,"x_min":89,"x_max":839,"o":"m 547 781 q 760 693 681 781 q 839 447 839 606 l 839 0 l 644 0 l 644 425 q 597 567 644 517 q 468 618 550 618 q 335 564 385 618 q 285 408 285 510 l 285 0 l 89 0 l 89 769 l 285 769 l 285 615 q 385 737 315 693 q 547 781 456 781 m 674 978 l 354 828 l 354 961 l 674 1128 l 674 978 z "},"Ņ":{"ha":1050,"x_min":89,"x_max":919,"o":"m 919 0 l 724 0 l 285 667 l 285 0 l 89 0 l 89 981 l 285 981 l 724 308 l 724 981 l 919 981 l 919 0 m 601 -62 q 625 -192 625 -129 q 581 -335 625 -283 q 451 -386 536 -386 l 451 -311 q 521 -218 521 -311 l 521 -206 l 443 -206 l 443 -62 l 601 -62 z "},"ņ":{"ha":922,"x_min":89,"x_max":839,"o":"m 547 781 q 760 693 681 781 q 839 447 839 606 l 839 0 l 644 0 l 644 425 q 597 567 644 517 q 468 618 550 618 q 335 564 385 618 q 285 408 285 510 l 285 0 l 89 0 l 89 769 l 285 769 l 285 615 q 385 737 315 693 q 547 781 456 781 m 563 -62 q 583 -192 583 -121 q 539 -335 583 -283 q 411 -386 494 -386 l 411 -311 q 481 -218 481 -311 l 481 -206 l 404 -206 l 404 -62 l 563 -62 z "},"Ň":{"ha":1008,"x_min":89,"x_max":919,"o":"m 919 0 l 724 0 l 285 667 l 285 0 l 89 0 l 89 981 l 285 981 l 724 308 l 724 981 l 919 981 l 919 0 m 710 1163 l 504 1047 l 297 1163 l 297 1294 l 504 1176 l 710 1294 l 710 1163 z "},"ň":{"ha":922,"x_min":89,"x_max":839,"o":"m 547 781 q 760 693 681 781 q 839 447 839 606 l 839 0 l 644 0 l 644 425 q 597 567 644 517 q 468 618 550 618 q 335 564 385 618 q 285 408 285 510 l 285 0 l 89 0 l 89 769 l 285 769 l 285 615 q 385 737 315 693 q 547 781 456 781 m 669 951 l 464 836 l 257 951 l 257 1083 l 464 965 l 669 1083 l 669 951 z "},"Ō":{"ha":1097,"x_min":58,"x_max":1039,"o":"m 549 994 q 798 931 686 994 q 974 752 910 867 q 1039 493 1039 638 q 974 233 1039 349 q 798 54 910 118 q 549 -10 686 -10 q 299 54 411 -10 q 123 233 188 118 q 58 493 58 349 q 123 752 58 638 q 299 931 188 867 q 549 994 411 994 m 549 814 q 397 775 463 814 q 295 663 332 736 q 258 493 258 590 q 295 323 258 396 q 397 211 332 250 q 549 172 463 172 q 700 211 635 172 q 802 323 765 250 q 839 493 839 396 q 802 663 839 590 q 700 775 765 736 q 549 814 635 814 m 814 1228 l 814 1096 l 283 1096 l 283 1228 l 814 1228 z "},"ō":{"ha":889,"x_min":50,"x_max":839,"o":"m 444 779 q 647 732 557 779 q 788 595 736 685 q 839 385 839 506 q 788 175 839 264 q 647 38 736 86 q 444 -10 557 -10 q 242 38 332 -10 q 101 175 153 86 q 50 385 50 264 q 101 595 50 506 q 242 732 153 685 q 444 779 332 779 m 444 610 q 306 552 363 610 q 249 385 249 494 q 306 217 249 275 q 444 160 363 160 q 583 217 526 160 q 640 385 640 275 q 583 552 640 494 q 444 610 526 610 m 710 1017 l 710 885 l 179 885 l 179 1017 l 710 1017 z "},"Ŏ":{"ha":1097,"x_min":58,"x_max":1039,"o":"m 549 994 q 798 931 686 994 q 974 752 910 867 q 1039 493 1039 638 q 974 233 1039 349 q 798 54 910 118 q 549 -10 686 -10 q 299 54 411 -10 q 123 233 188 118 q 58 493 58 349 q 123 752 58 638 q 299 931 188 867 q 549 994 411 994 m 549 814 q 397 775 463 814 q 295 663 332 736 q 258 493 258 590 q 295 323 258 396 q 397 211 332 250 q 549 172 463 172 q 700 211 635 172 q 802 323 765 250 q 839 493 839 396 q 802 663 839 590 q 700 775 765 736 q 549 814 635 814 m 549 1053 q 387 1114 447 1053 q 326 1281 326 1175 l 326 1297 l 424 1297 q 549 1194 424 1194 q 674 1297 674 1194 l 771 1297 l 771 1281 q 710 1114 771 1175 q 549 1053 650 1053 z "},"ŏ":{"ha":889,"x_min":50,"x_max":839,"o":"m 444 779 q 647 732 557 779 q 788 595 736 685 q 839 385 839 506 q 788 175 839 264 q 647 38 736 86 q 444 -10 557 -10 q 242 38 332 -10 q 101 175 153 86 q 50 385 50 264 q 101 595 50 506 q 242 732 153 685 q 444 779 332 779 m 444 610 q 306 552 363 610 q 249 385 249 494 q 306 217 249 275 q 444 160 363 160 q 583 217 526 160 q 640 385 640 275 q 583 552 640 494 q 444 610 526 610 m 444 842 q 283 903 343 842 q 222 1069 222 964 l 222 1086 l 319 1086 q 444 983 319 983 q 569 1086 569 983 l 667 1086 l 667 1069 q 606 903 667 964 q 444 842 546 842 z "},"Ő":{"ha":1097,"x_min":58,"x_max":1039,"o":"m 549 994 q 798 931 686 994 q 974 752 910 867 q 1039 493 1039 638 q 974 233 1039 349 q 798 54 910 118 q 549 -10 686 -10 q 299 54 411 -10 q 123 233 188 118 q 58 493 58 349 q 123 752 58 638 q 299 931 188 867 q 549 994 411 994 m 549 814 q 397 775 463 814 q 295 663 332 736 q 258 493 258 590 q 295 323 258 396 q 397 211 332 250 q 549 172 463 172 q 700 211 635 172 q 802 323 765 250 q 839 493 839 396 q 802 663 839 590 q 700 775 765 736 q 549 814 635 814 m 476 1046 l 354 1046 l 454 1307 l 607 1307 l 476 1046 m 722 1046 l 600 1046 l 724 1307 l 876 1307 l 722 1046 z "},"ő":{"ha":889,"x_min":50,"x_max":839,"o":"m 444 779 q 647 732 557 779 q 788 595 736 685 q 839 385 839 506 q 788 175 839 264 q 647 38 736 86 q 444 -10 557 -10 q 242 38 332 -10 q 101 175 153 86 q 50 385 50 264 q 101 595 50 506 q 242 732 153 685 q 444 779 332 779 m 444 610 q 306 552 363 610 q 249 385 249 494 q 306 217 249 275 q 444 160 363 160 q 583 217 526 160 q 640 385 640 275 q 583 552 640 494 q 444 610 526 610 m 381 835 l 258 835 l 358 1096 l 511 1096 l 381 835 m 626 835 l 504 835 l 628 1096 l 781 1096 l 626 835 z "},"Œ":{"ha":1489,"x_min":58,"x_max":1432,"o":"m 1044 571 l 1390 571 l 1390 421 l 1044 421 l 1044 157 l 1432 157 l 1432 0 l 849 0 l 849 164 q 722 35 807 82 q 535 -14 638 -12 q 289 50 397 -14 q 119 229 181 114 q 58 490 58 344 q 119 751 58 636 q 290 930 181 865 q 535 994 399 994 q 722 947 638 994 q 849 815 807 899 l 849 981 l 1432 981 l 1432 825 l 1044 825 l 1044 571 m 549 167 q 701 206 635 167 q 803 319 767 246 q 839 490 839 392 q 802 661 839 588 q 700 774 765 735 q 549 814 635 814 q 397 774 463 814 q 295 661 332 735 q 258 490 258 588 q 294 319 258 392 q 397 206 331 246 q 549 167 463 167 z "},"œ":{"ha":1482,"x_min":50,"x_max":1411,"o":"m 1411 414 q 1404 347 1411 385 l 839 347 q 896 196 844 244 q 1024 147 947 147 q 1136 181 1090 147 q 1193 271 1182 215 l 1400 271 q 1335 126 1385 190 q 1208 26 1286 63 q 1033 -10 1129 -10 q 860 30 936 -10 q 742 143 785 69 q 619 31 697 71 q 444 -10 542 -10 q 242 38 332 -10 q 101 175 153 86 q 50 385 50 264 q 101 595 50 506 q 242 732 153 685 q 444 779 332 779 q 619 739 542 779 q 742 626 697 699 q 860 740 785 700 q 1033 779 936 779 q 1233 732 1147 779 q 1365 602 1318 685 q 1411 414 1411 519 m 1213 433 q 1164 576 1217 528 q 1033 625 1111 625 q 899 576 953 625 q 839 433 844 528 l 1213 433 m 444 160 q 583 217 526 160 q 640 385 640 275 q 583 552 640 494 q 444 610 526 610 q 306 552 363 610 q 249 385 249 494 q 306 217 249 275 q 444 160 363 160 z "},"Ŕ":{"ha":856,"x_min":89,"x_max":817,"o":"m 600 0 l 371 382 l 285 382 l 285 0 l 89 0 l 89 981 l 463 981 q 723 897 633 981 q 813 678 813 814 q 751 492 813 567 q 572 392 689 417 l 817 0 l 600 0 m 285 517 l 446 517 q 614 665 614 517 q 573 776 614 736 q 446 815 532 815 l 285 815 l 285 517 m 663 1189 l 343 1039 l 343 1172 l 663 1339 l 663 1189 z "},"ŕ":{"ha":576,"x_min":89,"x_max":557,"o":"m 285 622 q 399 738 328 696 q 557 781 469 781 l 557 571 l 500 571 q 285 371 285 571 l 285 0 l 89 0 l 89 769 l 285 769 l 285 622 m 533 978 l 214 828 l 214 961 l 533 1128 l 533 978 z "},"Ŗ":{"ha":882,"x_min":89,"x_max":817,"o":"m 817 0 l 600 0 l 371 382 l 285 382 l 285 0 l 89 0 l 89 981 l 463 981 q 723 897 633 981 q 813 678 813 814 q 751 492 813 567 q 572 392 689 417 l 817 0 m 285 517 l 446 517 q 614 665 614 517 q 573 776 614 736 q 446 815 532 815 l 285 815 l 285 517 m 515 -62 q 538 -192 538 -125 q 493 -335 538 -283 q 364 -386 449 -386 l 364 -311 q 433 -218 433 -311 l 433 -206 l 357 -206 l 357 -62 l 515 -62 z "},"ŗ":{"ha":576,"x_min":89,"x_max":557,"o":"m 285 622 q 399 738 328 696 q 557 781 469 781 l 557 571 l 500 571 q 285 371 285 571 l 285 0 l 89 0 l 89 769 l 285 769 l 285 622 m 263 -62 q 285 -192 285 -125 q 240 -335 285 -283 q 111 -386 196 -386 l 111 -311 q 181 -218 181 -311 l 181 -206 l 104 -206 l 104 -62 l 263 -62 z "},"Ř":{"ha":856,"x_min":89,"x_max":817,"o":"m 600 0 l 371 382 l 285 382 l 285 0 l 89 0 l 89 981 l 463 981 q 723 897 633 981 q 813 678 813 814 q 751 492 813 567 q 572 392 689 417 l 817 0 l 600 0 m 285 517 l 446 517 q 614 665 614 517 q 573 776 614 736 q 446 815 532 815 l 285 815 l 285 517 m 660 1163 l 454 1047 l 247 1163 l 247 1294 l 454 1176 l 660 1294 l 660 1163 z "},"ř":{"ha":576,"x_min":89,"x_max":557,"o":"m 285 622 q 399 738 328 696 q 557 781 469 781 l 557 571 l 500 571 q 285 371 285 571 l 285 0 l 89 0 l 89 769 l 285 769 l 285 622 m 529 951 l 324 836 l 117 951 l 117 1083 l 324 965 l 529 1083 l 529 951 z "},"Ś":{"ha":818,"x_min":58,"x_max":763,"o":"m 763 268 q 725 130 763 193 q 614 28 688 67 q 435 -10 540 -10 q 249 26 331 -10 q 117 128 167 61 q 61 283 68 194 l 269 283 q 317 184 276 224 q 426 144 358 144 q 520 177 488 144 q 553 261 553 210 q 526 337 553 307 q 460 385 500 367 q 349 426 419 403 q 199 487 257 457 q 99 574 140 517 q 58 722 58 631 q 149 922 58 849 q 390 994 240 994 q 638 919 546 994 q 743 719 731 844 l 532 719 q 488 806 524 772 q 389 840 451 840 q 301 812 335 840 q 268 729 268 783 q 294 658 268 686 q 359 611 319 629 q 467 571 399 593 q 620 508 561 538 q 721 421 679 479 q 763 268 763 363 m 619 1189 l 300 1039 l 300 1172 l 619 1339 l 619 1189 z "},"ś":{"ha":751,"x_min":60,"x_max":694,"o":"m 354 779 q 579 708 494 779 q 685 519 664 638 l 501 519 q 451 608 490 575 q 350 642 413 642 q 272 618 300 642 q 244 554 244 594 q 267 503 244 522 q 322 472 289 483 q 418 446 356 461 q 560 405 506 426 q 655 337 615 383 q 694 211 694 290 q 617 51 694 113 q 410 -10 540 -10 q 169 58 260 -10 q 60 250 79 125 l 247 250 q 297 160 254 193 q 410 128 340 128 q 486 152 460 128 q 513 215 513 176 q 490 269 513 249 q 433 301 467 290 q 336 328 399 313 q 197 367 250 347 q 105 432 143 388 q 67 554 67 476 q 143 717 67 654 q 354 779 219 779 m 586 978 l 267 828 l 267 961 l 586 1128 l 586 978 z "},"Ş":{"ha":818,"x_min":58,"x_max":763,"o":"m 763 268 q 725 130 763 193 q 614 28 688 67 q 435 -10 540 -10 q 249 26 331 -10 q 117 128 167 61 q 61 283 68 194 l 269 283 q 317 184 276 224 q 426 144 358 144 q 520 177 488 144 q 553 261 553 210 q 526 337 553 307 q 460 385 500 367 q 349 426 419 403 q 199 487 257 457 q 99 574 140 517 q 58 722 58 631 q 149 922 58 849 q 390 994 240 994 q 638 919 546 994 q 743 719 731 844 l 532 719 q 488 806 524 772 q 389 840 451 840 q 301 812 335 840 q 268 729 268 783 q 294 658 268 686 q 359 611 319 629 q 467 571 399 593 q 620 508 561 538 q 721 421 679 479 q 763 268 763 363 m 482 -72 q 608 -106 556 -69 q 660 -218 660 -142 q 607 -330 660 -293 q 476 -367 554 -367 l 297 -367 l 297 -261 l 456 -261 q 526 -211 526 -261 q 509 -178 526 -190 q 456 -165 492 -165 l 364 -165 l 364 10 l 482 10 l 482 -72 z "},"ş":{"ha":751,"x_min":60,"x_max":694,"o":"m 354 779 q 579 708 494 779 q 685 519 664 638 l 501 519 q 451 608 490 575 q 350 642 413 642 q 272 618 300 642 q 244 554 244 594 q 267 503 244 522 q 322 472 289 483 q 418 446 356 461 q 560 405 506 426 q 655 337 615 383 q 694 211 694 290 q 617 51 694 113 q 410 -10 540 -10 q 169 58 260 -10 q 60 250 79 125 l 247 250 q 297 160 254 193 q 410 128 340 128 q 486 152 460 128 q 513 215 513 176 q 490 269 513 249 q 433 301 467 290 q 336 328 399 313 q 197 367 250 347 q 105 432 143 388 q 67 554 67 476 q 143 717 67 654 q 354 779 219 779 m 442 -72 q 567 -106 515 -69 q 619 -218 619 -142 q 567 -330 619 -293 q 436 -367 514 -367 l 257 -367 l 257 -261 l 415 -261 q 486 -211 486 -261 q 469 -178 486 -190 q 415 -165 451 -165 l 324 -165 l 324 10 l 442 10 l 442 -72 z "},"Š":{"ha":818,"x_min":58,"x_max":763,"o":"m 763 268 q 725 130 763 193 q 614 28 688 67 q 435 -10 540 -10 q 249 26 331 -10 q 117 128 167 61 q 61 283 68 194 l 269 283 q 317 184 276 224 q 426 144 358 144 q 520 177 488 144 q 553 261 553 210 q 526 337 553 307 q 460 385 500 367 q 349 426 419 403 q 199 487 257 457 q 99 574 140 517 q 58 722 58 631 q 149 922 58 849 q 390 994 240 994 q 638 919 546 994 q 743 719 731 844 l 532 719 q 488 806 524 772 q 389 840 451 840 q 301 812 335 840 q 268 729 268 783 q 294 658 268 686 q 359 611 319 629 q 467 571 399 593 q 620 508 561 538 q 721 421 679 479 q 763 268 763 363 m 617 1163 l 411 1047 l 204 1163 l 204 1294 l 411 1176 l 617 1294 l 617 1163 z "},"š":{"ha":751,"x_min":60,"x_max":694,"o":"m 354 779 q 579 708 494 779 q 685 519 664 638 l 501 519 q 451 608 490 575 q 350 642 413 642 q 272 618 300 642 q 244 554 244 594 q 267 503 244 522 q 322 472 289 483 q 418 446 356 461 q 560 405 506 426 q 655 337 615 383 q 694 211 694 290 q 617 51 694 113 q 410 -10 540 -10 q 169 58 260 -10 q 60 250 79 125 l 247 250 q 297 160 254 193 q 410 128 340 128 q 486 152 460 128 q 513 215 513 176 q 490 269 513 249 q 433 301 467 290 q 336 328 399 313 q 197 367 250 347 q 105 432 143 388 q 67 554 67 476 q 143 717 67 654 q 354 779 219 779 m 583 951 l 378 836 l 171 951 l 171 1083 l 378 965 l 583 1083 l 583 951 z "},"Ţ":{"ha":775,"x_min":19,"x_max":756,"o":"m 485 825 l 485 7 q 570 -44 543 -12 q 597 -125 597 -76 q 544 -237 597 -200 q 413 -274 492 -274 l 238 -274 l 238 -169 l 396 -169 q 464 -119 464 -169 q 396 -72 464 -72 l 289 -72 l 289 825 l 19 825 l 19 981 l 756 981 l 756 825 l 485 825 z "},"ţ":{"ha":551,"x_min":24,"x_max":563,"o":"m 383 -72 q 510 -106 457 -69 q 563 -218 563 -142 q 510 -330 563 -293 q 378 -367 457 -367 l 199 -367 l 199 -261 l 357 -261 q 429 -211 429 -261 q 412 -178 429 -190 q 357 -165 394 -165 l 267 -165 l 267 21 q 131 271 131 75 l 131 604 l 24 604 l 24 769 l 131 769 l 131 960 l 326 960 l 326 769 l 499 769 l 499 604 l 326 604 l 326 268 q 349 190 326 213 q 424 168 371 168 l 500 168 l 500 0 l 397 0 l 383 0 l 383 -72 z "},"Ť":{"ha":775,"x_min":19,"x_max":756,"o":"m 756 981 l 756 825 l 485 825 l 485 0 l 289 0 l 289 825 l 19 825 l 19 981 l 756 981 m 594 1163 l 389 1047 l 182 1163 l 182 1294 l 389 1176 l 594 1294 l 594 1163 z "},"ť":{"ha":551,"x_min":24,"x_max":579,"o":"m 556 1153 q 579 1011 579 1076 q 535 883 579 929 q 404 838 490 838 l 404 914 q 475 971 475 914 l 475 1001 l 394 1001 l 394 1153 l 556 1153 m 326 268 q 349 190 326 213 q 424 168 371 168 l 500 168 l 500 0 l 397 0 q 199 63 268 0 q 131 271 131 125 l 131 604 l 24 604 l 24 769 l 131 769 l 131 960 l 326 960 l 326 769 l 499 769 l 499 604 l 326 604 l 326 268 z "},"Ũ":{"ha":949,"x_min":83,"x_max":865,"o":"m 278 981 l 278 406 q 328 233 278 290 q 475 175 379 175 q 620 233 569 175 q 671 406 671 290 l 671 981 l 865 981 l 865 406 q 815 176 865 269 q 674 36 764 82 q 471 -10 585 -10 q 189 96 294 -10 q 83 406 83 201 l 83 981 l 278 981 m 388 1240 q 439 1231 417 1240 q 492 1203 461 1221 q 533 1181 517 1188 q 567 1174 549 1174 q 608 1190 592 1174 q 628 1239 624 1207 l 729 1239 q 672 1102 715 1147 q 560 1057 628 1057 q 508 1067 531 1057 q 453 1094 485 1076 q 413 1115 428 1108 q 381 1122 399 1122 q 319 1057 329 1122 l 219 1057 q 388 1240 249 1240 z "},"ũ":{"ha":914,"x_min":75,"x_max":825,"o":"m 825 769 l 825 0 l 629 0 l 629 156 q 528 34 599 78 q 367 -10 458 -10 q 154 78 233 -10 q 75 322 75 165 l 75 769 l 269 769 l 269 344 q 317 202 269 253 q 444 151 364 151 q 579 206 529 151 q 629 361 629 260 l 629 769 l 825 769 m 363 1029 q 414 1019 392 1029 q 467 992 436 1010 q 508 969 492 976 q 542 963 524 963 q 583 979 567 963 q 603 1028 599 996 l 704 1028 q 647 891 690 936 q 535 846 603 846 q 483 856 506 846 q 428 883 460 865 q 388 904 403 897 q 356 911 374 911 q 294 846 304 911 l 194 846 q 363 1029 224 1029 z "},"Ū":{"ha":949,"x_min":83,"x_max":865,"o":"m 278 981 l 278 406 q 328 233 278 290 q 475 175 379 175 q 620 233 569 175 q 671 406 671 290 l 671 981 l 865 981 l 865 406 q 815 176 865 269 q 674 36 764 82 q 471 -10 585 -10 q 189 96 294 -10 q 83 406 83 201 l 83 981 l 278 981 m 739 1228 l 739 1096 l 208 1096 l 208 1228 l 739 1228 z "},"ū":{"ha":914,"x_min":75,"x_max":825,"o":"m 825 769 l 825 0 l 629 0 l 629 156 q 528 34 599 78 q 367 -10 458 -10 q 154 78 233 -10 q 75 322 75 165 l 75 769 l 269 769 l 269 344 q 317 202 269 253 q 444 151 364 151 q 579 206 529 151 q 629 361 629 260 l 629 769 l 825 769 m 715 1017 l 715 885 l 185 885 l 185 1017 l 715 1017 z "},"Ŭ":{"ha":949,"x_min":83,"x_max":865,"o":"m 278 981 l 278 406 q 328 233 278 290 q 475 175 379 175 q 620 233 569 175 q 671 406 671 290 l 671 981 l 865 981 l 865 406 q 815 176 865 269 q 674 36 764 82 q 471 -10 585 -10 q 189 96 294 -10 q 83 406 83 201 l 83 981 l 278 981 m 474 1053 q 312 1114 372 1053 q 251 1281 251 1175 l 251 1297 l 349 1297 q 474 1194 349 1194 q 599 1297 599 1194 l 696 1297 l 696 1281 q 635 1114 696 1175 q 474 1053 575 1053 z "},"ŭ":{"ha":914,"x_min":75,"x_max":825,"o":"m 825 769 l 825 0 l 629 0 l 629 156 q 528 34 599 78 q 367 -10 458 -10 q 154 78 233 -10 q 75 322 75 165 l 75 769 l 269 769 l 269 344 q 317 202 269 253 q 444 151 364 151 q 579 206 529 151 q 629 361 629 260 l 629 769 l 825 769 m 449 842 q 287 903 347 842 q 226 1069 226 964 l 226 1086 l 324 1086 q 449 983 324 983 q 574 1086 574 983 l 671 1086 l 671 1069 q 610 903 671 964 q 449 842 550 842 z "},"Ů":{"ha":949,"x_min":83,"x_max":865,"o":"m 278 981 l 278 406 q 328 233 278 290 q 475 175 379 175 q 620 233 569 175 q 671 406 671 290 l 671 981 l 865 981 l 865 406 q 815 176 865 269 q 674 36 764 82 q 471 -10 585 -10 q 189 96 294 -10 q 83 406 83 201 l 83 981 l 278 981 m 474 1367 q 588 1324 542 1367 q 633 1207 633 1281 q 588 1090 633 1133 q 474 1047 542 1047 q 360 1091 406 1047 q 314 1207 314 1135 q 360 1323 314 1279 q 474 1367 406 1367 m 474 1286 q 419 1265 440 1286 q 397 1207 397 1243 q 419 1149 397 1171 q 474 1128 440 1128 q 529 1149 507 1128 q 551 1207 551 1171 q 529 1265 551 1243 q 474 1286 507 1286 z "},"ů":{"ha":914,"x_min":75,"x_max":825,"o":"m 825 769 l 825 0 l 629 0 l 629 156 q 528 34 599 78 q 367 -10 458 -10 q 154 78 233 -10 q 75 322 75 165 l 75 769 l 269 769 l 269 344 q 317 202 269 253 q 444 151 364 151 q 579 206 529 151 q 629 361 629 260 l 629 769 l 825 769 m 449 1156 q 563 1113 517 1156 q 608 996 608 1069 q 563 879 608 922 q 449 836 517 836 q 335 880 381 836 q 289 996 289 924 q 335 1112 289 1068 q 449 1156 381 1156 m 449 1075 q 394 1053 415 1075 q 372 996 372 1032 q 394 938 372 960 q 449 917 415 917 q 504 938 482 917 q 526 996 526 960 q 504 1053 526 1032 q 449 1075 482 1075 z "},"Ű":{"ha":949,"x_min":83,"x_max":865,"o":"m 278 981 l 278 406 q 328 233 278 290 q 475 175 379 175 q 620 233 569 175 q 671 406 671 290 l 671 981 l 865 981 l 865 406 q 815 176 865 269 q 674 36 764 82 q 471 -10 585 -10 q 189 96 294 -10 q 83 406 83 201 l 83 981 l 278 981 m 351 1046 l 229 1046 l 329 1307 l 482 1307 l 351 1046 m 597 1046 l 475 1046 l 599 1307 l 751 1307 l 597 1046 z "},"ű":{"ha":914,"x_min":75,"x_max":825,"o":"m 825 769 l 825 0 l 629 0 l 629 156 q 528 34 599 78 q 367 -10 458 -10 q 154 78 233 -10 q 75 322 75 165 l 75 769 l 269 769 l 269 344 q 317 202 269 253 q 444 151 364 151 q 579 206 529 151 q 629 361 629 260 l 629 769 l 825 769 m 328 835 l 206 835 l 306 1096 l 458 1096 l 328 835 m 574 835 l 451 835 l 575 1096 l 728 1096 l 574 835 z "},"Ų":{"ha":989,"x_min":104,"x_max":886,"o":"m 556 -215 q 431 -174 482 -215 q 381 -57 381 -132 q 389 -24 381 -39 q 411 -1 397 -8 q 190 128 276 24 q 104 406 104 233 l 104 981 l 299 981 l 299 406 q 349 233 299 290 q 496 175 400 175 q 640 231 588 175 q 692 406 692 288 l 692 981 l 886 981 l 886 406 q 802 131 886 233 q 589 4 718 29 q 515 -57 515 -8 q 535 -97 515 -82 q 592 -111 554 -111 l 740 -111 l 740 -215 l 556 -215 z "},"ų":{"ha":914,"x_min":75,"x_max":885,"o":"m 825 769 l 825 0 l 629 0 l 629 156 q 528 34 599 78 q 367 -10 458 -10 q 154 78 233 -10 q 75 322 75 165 l 75 769 l 269 769 l 269 344 q 317 202 269 253 q 444 151 364 151 q 579 206 529 151 q 629 361 629 260 l 629 769 l 825 769 m 825 22 l 825 -72 l 726 -72 q 672 -87 692 -72 q 651 -126 651 -101 q 672 -167 651 -153 q 726 -182 692 -182 l 885 -182 l 885 -287 l 707 -287 q 572 -249 626 -287 q 518 -133 518 -210 q 569 -17 518 -57 q 690 22 621 22 l 825 22 z "},"Ŵ":{"ha":1419,"x_min":44,"x_max":1375,"o":"m 1375 981 l 1135 0 l 893 0 l 710 711 l 525 0 l 285 0 l 44 981 l 257 981 l 407 221 l 601 981 l 817 981 l 1013 221 l 1163 981 l 1375 981 m 711 1167 l 504 1049 l 504 1181 l 711 1296 l 917 1181 l 917 1049 l 711 1167 z "},"ŵ":{"ha":1199,"x_min":10,"x_max":1190,"o":"m 1190 769 l 983 0 l 767 0 l 601 560 l 432 0 l 215 0 l 10 769 l 206 769 l 331 175 l 501 769 l 708 769 l 881 175 l 1007 769 l 1190 769 m 600 956 l 393 838 l 393 969 l 600 1085 l 806 969 l 806 838 l 600 956 z "},"Ŷ":{"ha":896,"x_min":17,"x_max":879,"o":"m 879 981 l 547 343 l 547 0 l 350 0 l 350 343 l 17 981 l 242 981 l 450 551 l 658 981 l 879 981 m 449 1167 l 242 1049 l 242 1181 l 449 1296 l 654 1181 l 654 1049 l 449 1167 z "},"ŷ":{"ha":843,"x_min":3,"x_max":840,"o":"m 221 769 l 431 247 l 625 769 l 840 769 l 369 -367 l 153 -367 l 326 22 l 3 769 l 221 769 m 422 956 l 215 838 l 215 969 l 422 1085 l 628 969 l 628 838 l 422 956 z "},"Ÿ":{"ha":896,"x_min":17,"x_max":879,"o":"m 879 981 l 547 343 l 547 0 l 350 0 l 350 343 l 17 981 l 242 981 l 450 551 l 658 981 l 879 981 m 229 1164 q 255 1227 229 1201 q 317 1253 281 1253 q 381 1227 356 1253 q 406 1164 406 1201 q 381 1102 406 1128 q 317 1076 356 1076 q 255 1102 281 1076 q 229 1164 229 1128 m 492 1164 q 517 1227 492 1201 q 579 1253 542 1253 q 642 1227 617 1253 q 668 1164 668 1201 q 642 1102 668 1128 q 579 1076 617 1076 q 517 1102 542 1076 q 492 1164 492 1128 z "},"Ź":{"ha":796,"x_min":61,"x_max":735,"o":"m 278 158 l 735 158 l 735 0 l 61 0 l 61 150 l 508 824 l 68 824 l 68 981 l 729 981 l 729 831 l 278 158 m 608 1189 l 289 1039 l 289 1172 l 608 1339 l 608 1189 z "},"ź":{"ha":658,"x_min":33,"x_max":625,"o":"m 247 164 l 625 164 l 625 0 l 33 0 l 33 156 l 388 607 l 42 607 l 42 769 l 611 769 l 611 615 l 247 164 m 539 978 l 219 828 l 219 961 l 539 1128 l 539 978 z "},"Ż":{"ha":796,"x_min":61,"x_max":735,"o":"m 278 158 l 735 158 l 735 0 l 61 0 l 61 150 l 508 824 l 68 824 l 68 981 l 729 981 l 729 831 l 278 158 m 310 1164 q 335 1227 310 1201 q 397 1253 361 1253 q 460 1227 435 1253 q 486 1164 486 1201 q 460 1102 486 1128 q 397 1076 435 1076 q 335 1102 361 1076 q 310 1164 310 1128 z "},"ż":{"ha":658,"x_min":33,"x_max":625,"o":"m 247 164 l 625 164 l 625 0 l 33 0 l 33 156 l 388 607 l 42 607 l 42 769 l 611 769 l 611 615 l 247 164 m 240 953 q 266 1016 240 990 q 328 1042 292 1042 q 391 1016 365 1042 q 417 953 417 990 q 391 891 417 917 q 328 865 365 865 q 266 891 292 865 q 240 953 240 917 z "},"Ž":{"ha":796,"x_min":61,"x_max":735,"o":"m 278 158 l 735 158 l 735 0 l 61 0 l 61 150 l 508 824 l 68 824 l 68 981 l 729 981 l 729 831 l 278 158 m 604 1163 l 399 1047 l 192 1163 l 192 1294 l 399 1176 l 604 1294 l 604 1163 z "},"ž":{"ha":658,"x_min":33,"x_max":625,"o":"m 247 164 l 625 164 l 625 0 l 33 0 l 33 156 l 388 607 l 42 607 l 42 769 l 611 769 l 611 615 l 247 164 m 535 951 l 329 836 l 122 951 l 122 1083 l 329 965 l 535 1083 l 535 951 z "},"ƒ":{"ha":467,"x_min":-72,"x_max":504,"o":"m 488 911 q 390 888 424 911 q 350 813 356 865 l 346 769 l 483 769 l 467 606 l 328 606 l 253 -100 q 168 -280 240 -226 q -28 -333 96 -333 l -72 -333 l -57 -165 l -10 -165 q 38 -151 22 -165 q 57 -100 53 -136 l 132 606 l 50 606 l 67 769 l 150 769 l 154 813 q 256 1015 169 950 q 504 1079 342 1079 l 488 911 z "},"Ǽ":{"ha":1286,"x_min":6,"x_max":1231,"o":"m 850 825 l 850 574 l 1189 574 l 1189 424 l 850 424 l 850 157 l 1231 157 l 1231 0 l 654 0 l 654 189 l 319 189 l 219 0 l 6 0 l 529 981 l 1231 981 l 1231 825 l 850 825 m 654 338 l 654 818 l 399 338 l 654 338 m 863 1189 l 543 1039 l 543 1172 l 863 1339 l 863 1189 z "},"ǽ":{"ha":1508,"x_min":50,"x_max":1458,"o":"m 1458 414 q 1453 347 1458 376 l 857 347 q 919 195 864 244 q 1057 146 974 146 q 1179 179 1131 146 q 1242 271 1228 213 l 1449 271 q 1339 69 1426 147 q 1122 -10 1251 -10 q 951 35 1024 -10 q 850 161 879 79 l 850 0 l 656 0 l 656 161 q 557 37 626 83 q 390 -10 488 -10 q 215 38 293 -10 q 94 174 138 85 q 50 385 50 264 q 94 595 50 506 q 215 732 138 685 q 390 779 293 779 q 557 733 488 779 q 656 610 626 688 l 656 769 l 850 769 l 850 608 q 951 735 879 690 q 1122 779 1024 779 q 1301 732 1225 779 q 1417 602 1376 685 q 1458 414 1458 519 m 1261 433 q 1207 576 1265 528 q 1063 625 1149 625 q 923 578 981 625 q 857 433 865 531 l 1261 433 m 451 163 q 598 223 540 163 q 656 385 656 283 q 598 548 656 488 q 451 608 540 608 q 304 549 360 608 q 249 385 249 489 q 304 222 249 281 q 451 163 360 163 m 964 978 l 644 828 l 644 961 l 964 1128 l 964 978 z "},"Ș":{"ha":868,"x_min":58,"x_max":763,"o":"m 763 268 q 725 130 763 193 q 614 28 688 67 q 435 -10 540 -10 q 249 26 331 -10 q 117 128 167 61 q 61 283 68 194 l 269 283 q 317 184 276 224 q 426 144 358 144 q 520 177 488 144 q 553 261 553 210 q 526 337 553 307 q 460 385 500 367 q 349 426 419 403 q 199 487 257 457 q 99 574 140 517 q 58 722 58 631 q 149 922 58 849 q 390 994 240 994 q 638 919 546 994 q 743 719 731 844 l 532 719 q 488 806 524 772 q 389 840 451 840 q 301 812 335 840 q 268 729 268 783 q 294 658 268 686 q 359 611 319 629 q 467 571 399 593 q 620 508 561 538 q 721 421 679 479 q 763 268 763 363 m 526 -62 q 549 -192 549 -125 q 504 -335 549 -283 q 375 -386 460 -386 l 375 -311 q 444 -218 444 -311 l 444 -206 l 368 -206 l 368 -62 l 526 -62 z "},"ș":{"ha":751,"x_min":60,"x_max":694,"o":"m 354 779 q 579 708 494 779 q 685 519 664 638 l 501 519 q 451 608 490 575 q 350 642 413 642 q 272 618 300 642 q 244 554 244 594 q 267 503 244 522 q 322 472 289 483 q 418 446 356 461 q 560 405 506 426 q 655 337 615 383 q 694 211 694 290 q 617 51 694 113 q 410 -10 540 -10 q 169 58 260 -10 q 60 250 79 125 l 247 250 q 297 160 254 193 q 410 128 340 128 q 486 152 460 128 q 513 215 513 176 q 490 269 513 249 q 433 301 467 290 q 336 328 399 313 q 197 367 250 347 q 105 432 143 388 q 67 554 67 476 q 143 717 67 654 q 354 779 219 779 m 464 -62 q 485 -192 485 -121 q 440 -335 485 -283 q 313 -386 396 -386 l 313 -311 q 382 -218 382 -311 l 382 -206 l 306 -206 l 306 -62 l 464 -62 z "},"Ț":{"ha":775,"x_min":19,"x_max":756,"o":"m 756 981 l 756 825 l 485 825 l 485 0 l 289 0 l 289 825 l 19 825 l 19 981 l 756 981 m 464 -62 q 486 -192 486 -125 q 442 -335 486 -283 q 314 -386 397 -386 l 314 -311 q 383 -218 383 -311 l 383 -206 l 306 -206 l 306 -62 l 464 -62 z "},"ț":{"ha":551,"x_min":24,"x_max":500,"o":"m 500 168 l 500 0 l 397 0 q 199 63 268 0 q 131 271 131 125 l 131 604 l 24 604 l 24 769 l 131 769 l 131 960 l 326 960 l 326 769 l 499 769 l 499 604 l 326 604 l 326 268 q 349 190 326 213 q 424 168 371 168 l 500 168 m 379 -62 q 401 -192 401 -125 q 357 -335 401 -283 q 228 -386 313 -386 l 228 -311 q 299 -218 299 -311 l 299 -206 l 221 -206 l 221 -62 l 379 -62 z "},"ʼ":{"ha":301,"x_min":60,"x_max":243,"o":"m 221 1142 q 243 992 243 1068 q 199 851 243 901 q 69 800 156 800 l 69 878 q 123 899 106 878 q 140 964 140 919 l 140 990 l 60 990 l 60 1142 l 221 1142 z "},"ˆ":{"ha":474,"x_min":31,"x_max":443,"o":"m 238 956 l 31 838 l 31 969 l 238 1085 l 443 969 l 443 838 l 238 956 z "},"ˇ":{"ha":474,"x_min":31,"x_max":443,"o":"m 443 951 l 238 836 l 31 951 l 31 1083 l 238 965 l 443 1083 l 443 951 z "},"ˉ":{"ha":592,"x_min":31,"x_max":561,"o":"m 561 1017 l 561 885 l 31 885 l 31 1017 l 561 1017 z "},"˘":{"ha":504,"x_min":31,"x_max":475,"o":"m 253 842 q 91 903 151 842 q 31 1069 31 964 l 31 1086 l 128 1086 q 253 983 128 983 q 378 1086 378 983 l 475 1086 l 475 1069 q 415 903 475 964 q 253 842 354 842 z "},"˙":{"ha":246,"x_min":35,"x_max":211,"o":"m 35 953 q 60 1016 35 990 q 122 1042 86 1042 q 185 1016 160 1042 q 211 953 211 990 q 185 891 211 917 q 122 865 160 865 q 60 891 86 865 q 35 953 35 917 z "},"˚":{"ha":381,"x_min":31,"x_max":350,"o":"m 190 1156 q 304 1113 258 1156 q 350 996 350 1069 q 304 879 350 922 q 190 836 258 836 q 76 880 122 836 q 31 996 31 924 q 76 1112 31 1068 q 190 1156 122 1156 m 190 1075 q 135 1053 157 1075 q 114 996 114 1032 q 135 938 114 960 q 190 917 157 917 q 246 938 224 917 q 268 996 268 960 q 246 1053 268 1032 q 190 1075 224 1075 z "},"˛":{"ha":411,"x_min":22,"x_max":389,"o":"m 329 1 l 329 -93 l 231 -93 q 176 -108 196 -93 q 156 -147 156 -122 q 176 -188 156 -174 q 231 -203 196 -203 l 389 -203 l 389 -308 l 211 -308 q 76 -269 131 -308 q 22 -154 22 -231 q 74 -38 22 -78 q 194 1 125 1 l 329 1 z "},"˜":{"ha":554,"x_min":22,"x_max":532,"o":"m 190 1029 q 242 1019 219 1029 q 294 992 264 1010 q 335 969 319 976 q 369 963 351 963 q 410 979 394 963 q 431 1028 426 996 l 532 1028 q 474 891 518 936 q 363 846 431 846 q 310 856 333 846 q 256 883 288 865 q 216 904 231 897 q 183 911 201 911 q 122 846 132 911 l 22 846 q 190 1029 51 1029 z "},"˝":{"ha":583,"x_min":31,"x_max":553,"o":"m 153 835 l 31 835 l 131 1096 l 283 1096 l 153 835 m 399 835 l 276 835 l 400 1096 l 553 1096 l 399 835 z "},"π":{"ha":990,"x_min":44,"x_max":950,"o":"m 950 769 l 950 622 l 847 622 l 847 0 l 651 0 l 651 622 l 343 622 l 343 0 l 147 0 l 147 622 l 44 622 l 44 769 l 950 769 z "},"Ẁ":{"ha":1419,"x_min":44,"x_max":1375,"o":"m 1375 981 l 1135 0 l 893 0 l 710 711 l 525 0 l 285 0 l 44 981 l 257 981 l 407 221 l 601 981 l 817 981 l 1013 221 l 1163 981 l 1375 981 m 814 1172 l 814 1039 l 494 1189 l 494 1339 l 814 1172 z "},"ẁ":{"ha":1199,"x_min":10,"x_max":1190,"o":"m 1190 769 l 983 0 l 767 0 l 601 560 l 432 0 l 215 0 l 10 769 l 206 769 l 331 175 l 501 769 l 708 769 l 881 175 l 1007 769 l 1190 769 m 704 961 l 704 828 l 385 978 l 385 1128 l 704 961 z "},"Ẃ":{"ha":1419,"x_min":44,"x_max":1375,"o":"m 1375 981 l 1135 0 l 893 0 l 710 711 l 525 0 l 285 0 l 44 981 l 257 981 l 407 221 l 601 981 l 817 981 l 1013 221 l 1163 981 l 1375 981 m 919 1189 l 600 1039 l 600 1172 l 919 1339 l 919 1189 z "},"ẃ":{"ha":1199,"x_min":10,"x_max":1190,"o":"m 1190 769 l 983 0 l 767 0 l 601 560 l 432 0 l 215 0 l 10 769 l 206 769 l 331 175 l 501 769 l 708 769 l 881 175 l 1007 769 l 1190 769 m 810 978 l 490 828 l 490 961 l 810 1128 l 810 978 z "},"Ẅ":{"ha":1419,"x_min":44,"x_max":1375,"o":"m 1375 981 l 1135 0 l 893 0 l 710 711 l 525 0 l 285 0 l 44 981 l 257 981 l 407 221 l 601 981 l 817 981 l 1013 221 l 1163 981 l 1375 981 m 490 1164 q 516 1227 490 1201 q 578 1253 542 1253 q 642 1227 617 1253 q 667 1164 667 1201 q 642 1102 667 1128 q 578 1076 617 1076 q 516 1102 542 1076 q 490 1164 490 1128 m 753 1164 q 778 1227 753 1201 q 840 1253 803 1253 q 903 1227 878 1253 q 929 1164 929 1201 q 903 1102 929 1128 q 840 1076 878 1076 q 778 1102 803 1076 q 753 1164 753 1128 z "},"ẅ":{"ha":1199,"x_min":10,"x_max":1190,"o":"m 1190 769 l 983 0 l 767 0 l 601 560 l 432 0 l 215 0 l 10 769 l 206 769 l 331 175 l 501 769 l 708 769 l 881 175 l 1007 769 l 1190 769 m 381 953 q 406 1016 381 990 q 468 1042 432 1042 q 532 1016 507 1042 q 557 953 557 990 q 532 891 557 917 q 468 865 507 865 q 406 891 432 865 q 381 953 381 917 m 643 953 q 668 1016 643 990 q 731 1042 693 1042 q 794 1016 768 1042 q 819 953 819 990 q 794 891 819 917 q 731 865 768 865 q 668 891 693 865 q 643 953 643 917 z "},"Ẽ":{"ha":729,"x_min":89,"x_max":674,"o":"m 285 825 l 285 571 l 632 571 l 632 421 l 285 421 l 285 157 l 674 157 l 674 0 l 89 0 l 89 981 l 674 981 l 674 825 l 285 825 m 294 1240 q 346 1231 324 1240 q 399 1203 368 1221 q 440 1181 424 1188 q 474 1174 456 1174 q 515 1190 499 1174 q 535 1239 531 1207 l 636 1239 q 578 1102 622 1147 q 467 1057 535 1057 q 415 1067 438 1057 q 360 1094 392 1076 q 320 1115 335 1108 q 288 1122 306 1122 q 226 1057 236 1122 l 126 1057 q 294 1240 156 1240 z "},"ẽ":{"ha":863,"x_min":50,"x_max":813,"o":"m 813 414 q 806 347 813 385 l 242 347 q 297 196 246 244 q 425 147 349 147 q 538 181 493 147 q 596 271 583 214 l 803 271 q 738 126 788 190 q 609 26 688 63 q 435 -10 531 -10 q 235 38 322 -10 q 99 175 147 86 q 50 385 50 264 q 99 595 50 506 q 235 732 147 685 q 435 779 322 779 q 634 732 549 779 q 766 602 719 685 q 813 414 813 519 m 615 433 q 566 576 619 528 q 435 625 513 625 q 301 576 356 625 q 242 433 247 528 l 615 433 m 344 1029 q 396 1019 374 1029 q 449 992 418 1010 q 490 969 474 976 q 524 963 506 963 q 565 979 549 963 q 585 1028 581 996 l 686 1028 q 628 891 672 936 q 517 846 585 846 q 465 856 488 846 q 410 883 442 865 q 370 904 385 897 q 338 911 356 911 q 276 846 286 911 l 176 846 q 344 1029 206 1029 z "},"Ỳ":{"ha":896,"x_min":17,"x_max":879,"o":"m 879 981 l 547 343 l 547 0 l 350 0 l 350 343 l 17 981 l 242 981 l 450 551 l 658 981 l 879 981 m 553 1172 l 553 1039 l 233 1189 l 233 1339 l 553 1172 z "},"ỳ":{"ha":843,"x_min":3,"x_max":840,"o":"m 221 769 l 431 247 l 625 769 l 840 769 l 369 -367 l 153 -367 l 326 22 l 3 769 l 221 769 m 526 961 l 526 828 l 207 978 l 207 1128 l 526 961 z "},"Ỹ":{"ha":896,"x_min":17,"x_max":879,"o":"m 879 981 l 547 343 l 547 0 l 350 0 l 350 343 l 17 981 l 242 981 l 450 551 l 658 981 l 879 981 m 361 1240 q 413 1231 390 1240 q 465 1203 435 1221 q 506 1181 490 1188 q 540 1174 522 1174 q 581 1190 565 1174 q 601 1239 597 1207 l 703 1239 q 645 1102 689 1147 q 533 1057 601 1057 q 481 1067 504 1057 q 426 1094 458 1076 q 387 1115 401 1108 q 354 1122 372 1122 q 293 1057 303 1122 l 193 1057 q 361 1240 222 1240 z "},"ỹ":{"ha":843,"x_min":3,"x_max":840,"o":"m 221 769 l 431 247 l 625 769 l 840 769 l 369 -367 l 153 -367 l 326 22 l 3 769 l 221 769 m 335 1029 q 386 1019 364 1029 q 439 992 408 1010 q 480 969 464 976 q 514 963 496 963 q 555 979 539 963 q 575 1028 571 996 l 676 1028 q 619 891 663 936 q 507 846 575 846 q 455 856 478 846 q 400 883 432 865 q 360 904 375 897 q 328 911 346 911 q 267 846 276 911 l 167 846 q 335 1029 196 1029 z "},"–":{"ha":892,"x_min":68,"x_max":824,"o":"m 824 576 l 824 414 l 68 414 l 68 576 l 824 576 z "},"—":{"ha":1204,"x_min":68,"x_max":1136,"o":"m 1136 576 l 1136 414 l 68 414 l 68 576 l 1136 576 z "},"‘":{"ha":301,"x_min":58,"x_max":243,"o":"m 82 800 q 58 951 58 879 q 103 1091 58 1040 q 233 1142 147 1142 l 233 1065 q 180 1044 197 1065 q 163 978 163 1022 l 163 953 l 243 953 l 243 800 l 82 800 z "},"’":{"ha":301,"x_min":60,"x_max":243,"o":"m 221 1142 q 243 992 243 1068 q 199 851 243 901 q 69 800 156 800 l 69 878 q 123 899 106 878 q 140 964 140 919 l 140 990 l 60 990 l 60 1142 l 221 1142 z "},"‚":{"ha":307,"x_min":42,"x_max":246,"o":"m 213 126 q 246 -25 246 51 q 201 -167 246 -111 q 61 -222 156 -222 l 61 -147 q 114 -130 97 -147 q 131 -68 131 -112 l 131 -54 l 42 -54 l 42 126 l 213 126 z "},"“":{"ha":538,"x_min":58,"x_max":478,"o":"m 82 800 q 58 951 58 879 q 103 1091 58 1040 q 233 1142 147 1142 l 233 1065 q 180 1044 197 1065 q 163 978 163 1022 l 163 953 l 243 953 l 243 800 l 82 800 m 317 800 q 293 951 293 879 q 338 1091 293 1040 q 468 1142 382 1142 l 468 1065 q 415 1044 432 1065 q 397 978 397 1022 l 397 953 l 478 953 l 478 800 l 317 800 z "},"”":{"ha":538,"x_min":60,"x_max":479,"o":"m 221 1142 q 243 992 243 1068 q 199 851 243 901 q 69 800 156 800 l 69 878 q 123 899 106 878 q 140 964 140 919 l 140 990 l 60 990 l 60 1142 l 221 1142 m 456 1142 q 479 992 479 1063 q 435 851 479 903 q 304 800 390 800 l 304 878 q 358 899 340 878 q 375 964 375 919 l 375 990 l 294 990 l 294 1142 l 456 1142 z "},"„":{"ha":538,"x_min":60,"x_max":479,"o":"m 221 151 q 243 1 243 78 q 199 -140 243 -89 q 69 -190 156 -190 l 69 -112 q 123 -92 106 -112 q 140 -26 140 -71 l 140 0 l 60 0 l 60 151 l 221 151 m 456 151 q 479 1 479 72 q 435 -139 479 -87 q 304 -190 390 -190 l 304 -112 q 358 -92 340 -112 q 375 -26 375 -71 l 375 0 l 294 0 l 294 151 l 456 151 z "},"†":{"ha":836,"x_min":60,"x_max":776,"o":"m 776 621 l 496 635 l 515 -367 l 321 -367 l 339 635 l 60 621 l 60 769 l 339 756 l 321 1092 l 515 1092 l 496 756 l 776 769 l 776 621 z "},"‡":{"ha":836,"x_min":58,"x_max":778,"o":"m 496 635 l 496 90 l 778 107 l 778 -44 l 496 -31 l 514 -367 l 319 -367 l 339 -31 l 58 -44 l 58 107 l 339 90 l 339 635 l 58 621 l 58 769 l 339 756 l 319 1092 l 514 1092 l 496 756 l 778 769 l 778 621 l 496 635 z "},"•":{"ha":589,"x_min":100,"x_max":489,"o":"m 100 463 q 126 562 100 517 q 197 633 151 607 q 294 658 242 658 q 393 633 349 658 q 463 562 438 607 q 489 463 489 517 q 463 365 489 410 q 393 295 438 321 q 294 269 349 269 q 197 295 242 269 q 126 365 151 321 q 100 463 100 410 z "},"…":{"ha":913,"x_min":40,"x_max":871,"o":"m 561 204 l 561 0 l 350 0 l 350 204 l 561 204 m 871 204 l 871 0 l 660 0 l 660 204 l 871 204 m 251 204 l 251 0 l 40 0 l 40 204 l 251 204 z "},"‰":{"ha":1531,"x_min":39,"x_max":1492,"o":"m 260 996 q 419 937 357 996 q 481 774 481 878 q 419 610 481 669 q 260 551 357 551 q 101 610 163 551 q 39 774 39 669 q 101 937 39 878 q 260 996 163 996 m 888 983 l 342 0 l 153 0 l 699 983 l 888 983 m 171 774 q 194 698 171 726 q 258 669 218 669 q 324 698 299 669 q 349 774 349 726 q 324 849 349 821 q 258 878 299 878 q 194 849 218 878 q 171 774 171 821 m 782 432 q 940 373 879 432 q 1001 210 1001 314 q 940 47 1001 106 q 782 -12 879 -12 q 623 47 685 -12 q 561 210 561 106 q 623 373 561 314 q 782 432 685 432 m 1272 432 q 1431 373 1369 432 q 1492 210 1492 314 q 1431 47 1492 106 q 1272 -12 1369 -12 q 1113 47 1175 -12 q 1050 210 1050 106 q 1113 373 1050 314 q 1272 432 1175 432 m 693 210 q 717 133 693 161 q 781 104 740 104 q 846 133 821 104 q 871 210 871 161 q 846 286 871 257 q 781 315 821 315 q 717 287 740 315 q 693 210 693 258 m 1182 210 q 1206 133 1182 161 q 1271 104 1231 104 q 1336 133 1311 104 q 1361 210 1361 161 q 1336 286 1361 257 q 1271 315 1311 315 q 1206 287 1231 315 q 1182 210 1182 258 z "},"‹":{"ha":438,"x_min":63,"x_max":368,"o":"m 186 167 l 63 410 l 186 653 l 368 653 l 242 410 l 368 167 l 186 167 z "},"›":{"ha":438,"x_min":69,"x_max":375,"o":"m 197 410 l 69 653 l 253 653 l 375 410 l 253 167 l 69 167 l 197 410 z "},"⁄":{"ha":578,"x_min":-89,"x_max":647,"o":"m 647 983 l 101 0 l -89 0 l 457 983 l 647 983 z "},"€":{"ha":1124,"x_min":24,"x_max":1065,"o":"m 597 172 q 759 218 692 172 q 858 343 826 264 l 1065 343 q 906 86 1026 181 q 601 -8 785 -8 q 305 88 426 -8 q 143 344 183 183 l 24 344 l 24 436 l 129 436 q 126 490 126 472 q 128 539 126 524 l 24 539 l 24 632 l 142 632 q 303 894 181 797 q 601 990 425 990 q 906 896 785 990 q 1065 639 1026 801 l 858 639 q 759 764 826 718 q 597 810 692 810 q 446 763 511 810 q 350 632 381 717 l 631 632 l 631 539 l 329 539 q 326 490 326 508 q 329 436 326 472 l 631 436 l 631 344 l 351 344 q 447 218 382 264 q 597 172 513 172 z "},"₺":{"ha":1110,"x_min":44,"x_max":1065,"o":"m 1065 613 q 1013 256 1065 394 q 846 51 960 118 q 546 -17 732 -17 q 239 18 426 -17 l 239 346 l 44 307 l 44 425 l 239 464 l 239 575 l 44 535 l 44 650 l 239 690 l 239 985 l 438 985 l 438 732 l 650 776 l 650 658 l 438 615 l 438 504 l 653 547 l 653 428 l 438 385 l 438 178 q 544 167 488 167 q 797 283 726 167 q 867 613 867 399 l 1065 613 z "},"₽":{"ha":918,"x_min":44,"x_max":879,"o":"m 368 396 l 368 285 l 615 285 l 615 138 l 368 138 l 368 0 l 172 0 l 172 138 l 44 138 l 44 285 l 172 285 l 172 396 l 44 396 l 44 547 l 172 547 l 172 981 l 529 981 q 790 901 701 981 q 879 689 879 822 q 789 474 879 551 q 529 396 699 396 l 368 396 m 368 547 l 518 547 q 641 585 601 547 q 681 689 681 622 q 641 794 681 756 q 518 832 601 832 l 368 832 l 368 547 z "},"ℓ":{"ha":404,"x_min":89,"x_max":285,"o":"m 285 1028 l 285 0 l 89 0 l 89 1028 l 285 1028 z "},"™":{"ha":1172,"x_min":42,"x_max":1125,"o":"m 42 981 l 442 981 l 442 864 l 311 864 l 311 494 l 172 494 l 172 864 l 42 864 l 42 981 m 1125 981 l 1125 494 l 996 494 l 993 806 l 860 494 l 763 494 l 629 818 l 629 494 l 507 494 l 507 981 l 694 981 l 815 660 l 954 981 l 1125 981 z "},"Ω":{"ha":1100,"x_min":56,"x_max":1046,"o":"m 1046 518 q 868 149 1046 264 l 1035 149 l 1035 0 l 657 0 l 657 156 q 795 288 744 203 q 846 492 846 374 q 808 663 846 590 q 704 775 771 736 q 550 814 638 814 q 395 774 463 814 q 290 662 328 735 q 253 492 253 589 q 305 288 254 374 q 443 156 356 203 l 443 0 l 65 0 l 65 149 l 232 149 q 56 518 56 265 q 121 771 56 663 q 299 937 186 879 q 550 994 411 994 q 801 937 689 994 q 980 771 914 879 q 1046 518 1046 663 z "},"℮":{"ha":1046,"x_min":56,"x_max":992,"o":"m 535 -10 q 288 47 397 -10 q 117 210 179 103 q 56 464 56 317 q 110 729 56 611 q 271 915 165 847 q 522 983 376 983 q 774 920 667 983 q 936 753 881 857 q 992 529 992 649 l 992 442 l 290 442 l 290 201 q 535 108 390 108 q 715 149 633 108 q 879 269 797 189 l 951 188 q 535 -10 765 -10 m 750 788 q 651 849 710 828 q 522 869 593 869 q 290 776 376 869 l 290 551 l 750 551 l 750 788 z "},"∂":{"ha":829,"x_min":49,"x_max":781,"o":"m 418 774 q 600 632 567 774 q 536 842 589 769 q 364 915 483 915 q 274 906 329 915 l 274 1006 q 432 1028 357 1028 q 691 910 601 1028 q 781 567 781 793 q 731 258 781 389 q 586 58 681 128 q 361 -11 492 -11 q 203 27 275 -11 q 90 142 132 65 q 49 332 49 219 q 95 559 49 458 q 226 717 142 660 q 418 774 310 774 m 438 611 q 298 533 349 611 q 247 333 247 456 q 284 203 247 246 q 378 160 321 160 q 518 240 468 160 q 568 446 568 321 q 533 570 568 529 q 438 611 497 611 z "},"∆":{"ha":993,"x_min":28,"x_max":965,"o":"m 576 972 l 965 150 l 965 0 l 28 0 l 28 150 l 417 972 l 576 972 m 229 150 l 764 150 l 496 750 l 229 150 z "},"∏":{"ha":1033,"x_min":44,"x_max":989,"o":"m 989 983 l 989 835 l 886 835 l 886 0 l 690 0 l 690 835 l 343 835 l 343 0 l 147 0 l 147 835 l 44 835 l 44 983 l 989 983 z "},"∑":{"ha":703,"x_min":56,"x_max":675,"o":"m 675 822 l 229 822 l 579 535 l 579 385 l 222 65 l 675 65 l 675 -85 l 56 -85 l 56 143 l 392 454 l 56 746 l 56 972 l 675 972 l 675 822 z "},"−":{"ha":668,"x_min":39,"x_max":629,"o":"m 629 576 l 629 414 l 39 414 l 39 576 l 629 576 z "},"∕":{"ha":532,"x_min":-14,"x_max":551,"o":"m 551 1315 l 175 -251 l -14 -251 l 363 1315 l 551 1315 z "},"∙":{"ha":318,"x_min":53,"x_max":264,"o":"m 264 553 l 264 349 l 53 349 l 53 553 l 264 553 z "},"√":{"ha":1217,"x_min":24,"x_max":1182,"o":"m 1182 1238 l 471 -58 l 381 -58 l 186 286 l 81 226 l 24 318 l 303 481 l 482 164 l 1068 1238 l 1182 1238 z "},"∞":{"ha":1024,"x_min":36,"x_max":1006,"o":"m 764 710 q 942 651 878 710 q 1006 483 1006 592 q 939 317 1006 379 q 771 256 872 256 q 624 290 686 256 q 510 383 563 324 q 410 290 469 325 q 276 256 350 256 q 100 315 164 256 q 36 482 36 374 q 103 649 36 588 q 271 710 169 710 q 416 674 357 710 q 526 574 475 638 q 628 672 567 635 q 764 710 689 710 m 286 386 q 367 410 329 386 q 435 476 406 433 q 360 556 393 529 q 288 582 328 582 q 216 555 243 582 q 189 482 189 528 q 215 412 189 438 q 286 386 240 386 m 753 385 q 826 412 799 385 q 853 483 853 439 q 827 554 853 528 q 756 581 801 581 q 669 554 710 581 q 599 478 629 528 q 670 409 635 433 q 753 385 706 385 z "},"∫":{"ha":390,"x_min":-64,"x_max":458,"o":"m 161 1068 q 245 1243 174 1190 q 433 1296 317 1296 l 458 1296 l 442 1128 l 414 1128 q 356 1068 364 1128 l 233 -100 q 151 -280 221 -226 q -36 -333 82 -333 l -64 -333 l -47 -165 l -18 -165 q 22 -151 11 -165 q 38 -100 33 -137 l 161 1068 z "},"≈":{"ha":821,"x_min":39,"x_max":782,"o":"m 285 476 q 362 463 328 476 q 440 424 396 449 q 501 393 479 403 q 547 383 524 383 q 633 478 618 383 l 782 478 q 697 275 761 342 q 536 208 633 208 q 461 222 494 208 q 381 261 428 235 q 322 292 344 282 q 274 301 299 301 q 186 207 203 301 l 39 207 q 125 410 61 343 q 285 476 189 476 m 285 803 q 362 789 328 803 q 440 750 396 775 q 501 719 479 729 q 547 710 524 710 q 633 804 618 710 l 782 804 q 697 601 761 668 q 536 535 633 535 q 461 548 494 535 q 381 588 428 561 q 322 618 344 608 q 274 628 299 628 q 186 533 203 628 l 39 533 q 125 736 61 669 q 285 803 189 803 z "},"≠":{"ha":835,"x_min":39,"x_max":796,"o":"m 525 571 l 413 417 l 796 417 l 796 240 l 285 240 l 181 96 l 79 96 l 183 240 l 39 240 l 39 417 l 311 417 l 422 571 l 39 571 l 39 749 l 551 749 l 656 893 l 758 893 l 654 749 l 796 749 l 796 571 l 525 571 z "},"≤":{"ha":628,"x_min":39,"x_max":589,"o":"m 343 286 l 39 546 l 343 807 l 586 807 l 285 546 l 586 286 l 343 286 m 589 199 l 589 46 l 64 46 l 64 199 l 589 199 z "},"≥":{"ha":628,"x_min":39,"x_max":589,"o":"m 42 286 l 343 546 l 42 807 l 285 807 l 589 546 l 285 286 l 42 286 m 39 199 l 564 199 l 564 46 l 39 46 l 39 199 z "},"◊":{"ha":779,"x_min":36,"x_max":743,"o":"m 743 489 l 390 135 l 36 489 l 390 842 l 743 489 m 231 489 l 390 328 l 550 489 l 390 649 l 231 489 z "},"ﬁ":{"ha":868,"x_min":21,"x_max":788,"o":"m 314 769 l 764 769 l 764 0 l 568 0 l 568 604 l 314 604 l 314 0 l 118 0 l 118 604 l 21 604 l 21 769 l 118 769 l 118 788 q 195 1000 118 926 q 422 1074 272 1074 l 458 1072 l 458 903 q 346 877 378 907 q 314 771 314 847 l 314 769 m 667 868 q 578 896 611 868 q 546 969 546 924 q 578 1044 546 1015 q 667 1072 611 1072 q 755 1044 722 1072 q 788 969 788 1015 q 755 896 788 924 q 667 868 722 868 z "},"ﬂ":{"ha":843,"x_min":19,"x_max":765,"o":"m 469 903 q 349 878 383 908 q 314 771 314 847 l 314 769 l 469 769 l 469 604 l 314 604 l 314 0 l 118 0 l 118 604 l 19 604 l 19 769 l 118 769 l 118 788 q 197 999 118 925 q 429 1074 275 1074 q 469 1072 456 1074 l 469 903 m 765 1028 l 765 0 l 569 0 l 569 1028 l 765 1028 z "}}}
